<?xml version="1.0" encoding="UTF-8" standalone="no"?>
<!DOCTYPE svg PUBLIC "-//W3C//DTD SVG 1.1//EN" "http://www.w3.org/Graphics/SVG/1.1/DTD/svg11.dtd">
<svg xmlns="http://www.w3.org/2000/svg" version="1.1" viewBox="0.00 0.00 180.00 180.00">
<g stroke-width="2.00" fill="none" stroke-linecap="butt">
<path stroke="#6dd7fd" vector-effect="non-scaling-stroke" d="
  M 91.42 3.78
  L 91.06 14.49"
/>
<path stroke="#c2f0f9" vector-effect="non-scaling-stroke" d="
  M 91.06 14.49
  Q 78.19 14.70 65.85 18.98
  Q 64.25 19.53 65.91 19.87
  C 66.97 20.08 68.25 19.95 69.27 20.64
  C 73.97 23.84 70.93 29.42 65.50 28.75
  Q 56.65 27.65 47.80 26.39
  Q 46.49 26.21 45.20 25.40
  Q 44.16 24.76 42.71 23.97"
/>
<path stroke="#a0d5f7" vector-effect="non-scaling-stroke" d="
  M 130.22 164.99
  C 128.93 161.35 130.27 159.43 133.42 157.39
  C 172.32 132.12 181.33 78.93 151.48 42.83
  Q 129.01 15.66 91.37 14.41"
/>
<path stroke="#aaddf9" vector-effect="non-scaling-stroke" d="
  M 91.37 14.41
  Q 91.70 14.69 91.06 14.49"
/>
<path stroke="#f6eef4" vector-effect="non-scaling-stroke" d="
  M 91.37 14.41
  L 91.69 74.08"
/>
<path stroke="#aaddf9" vector-effect="non-scaling-stroke" d="
  M 91.69 74.08
  L 90.97 76.61"
/>
<path stroke="#c2f0f9" vector-effect="non-scaling-stroke" d="
  M 90.97 76.61
  Q 90.84 76.60 90.69 76.70
  Q 90.59 76.77 90.53 76.92
  Q 84.00 93.54 77.36 110.11
  C 73.85 118.89 84.32 121.68 86.64 115.86
  Q 88.46 111.26 90.24 106.70"
/>
<path stroke="#f6eef4" vector-effect="non-scaling-stroke" d="
  M 90.24 106.70
  Q 90.81 106.52 91.12 106.70
  Q 91.37 106.85 91.37 107.39
  Q 91.37 141.01 91.30 174.67"
/>
<path stroke="#c2f0f9" vector-effect="non-scaling-stroke" d="
  M 84.13 174.25
  C 84.00 170.43 82.00 169.11 78.34 168.41
  Q 73.68 167.51 69.09 166.21
  C 65.53 165.19 63.13 165.85 61.47 169.09"
/>
<path stroke="#c2f0f9" vector-effect="non-scaling-stroke" d="
  M 48.76 162.87
  C 50.45 159.73 49.60 157.40 46.78 155.25
  Q 42.70 152.13 38.83 148.73
  C 36.05 146.30 33.54 145.97 30.67 148.23"
/>
<path stroke="#c2f0f9" vector-effect="non-scaling-stroke" d="
  M 21.96 137.19
  C 25.02 134.97 25.30 132.37 23.58 128.97
  Q 21.30 124.49 19.36 119.85
  C 17.88 116.34 15.63 114.98 11.96 115.99"
/>
<path stroke="#a0a1ba" vector-effect="non-scaling-stroke" d="
  M 8.33 94.52
  Q 19.32 94.51 30.49 94.66
  C 38.77 94.77 39.87 83.70 30.74 83.76
  Q 24.42 83.80 17.90 83.73
  Q 17.19 83.73 17.62 83.16
  Q 28.57 68.75 31.69 63.21
  Q 39.94 48.58 27.87 38.06"
/>
<path stroke="#a0a1ba" vector-effect="non-scaling-stroke" d="
  M 63.19 80.02
  C 63.24 83.32 62.56 88.37 63.84 90.85
  C 66.46 95.94 73.81 93.55 73.82 87.75
  Q 73.83 83.90 73.92 79.98
  Q 73.93 79.43 74.49 79.39
  C 82.03 78.87 81.90 68.90 74.55 68.70
  Q 73.97 68.68 73.98 68.11
  Q 74.06 56.30 73.99 44.50
  C 73.95 39.04 70.83 34.27 64.94 34.86
  Q 61.12 35.24 58.77 38.57
  Q 53.83 45.59 40.72 69.86
  Q 39.26 72.55 39.33 74.44
  C 39.52 79.49 44.07 79.47 48.40 79.39
  Q 55.49 79.26 62.62 79.45
  Q 63.18 79.46 63.19 80.02"
/>
<path stroke="#a0d5f7" vector-effect="non-scaling-stroke" d="
  M 120.78 169.29
  C 119.28 166.46 117.02 165.57 113.79 166.41
  Q 108.75 167.73 103.67 168.68
  C 100.20 169.32 98.26 170.85 98.20 174.42"
/>
<path stroke="#b9e8f8" vector-effect="non-scaling-stroke" d="
  M 90.24 106.70
  L 91.49 103.48"
/>
<path stroke="#a0d5f7" vector-effect="non-scaling-stroke" d="
  M 91.49 103.48
  Q 98.59 85.99 105.26 69.07
  Q 106.48 65.95 106.17 64.18
  C 105.55 60.65 100.63 58.79 97.76 61.01
  C 95.28 62.93 92.96 70.91 91.69 74.08"
/>
<path stroke="#8b8eac" vector-effect="non-scaling-stroke" d="
  M 128.48 101.07
  A 0.34 0.33 11.9 0 1 128.79 101.54
  Q 120.20 121.04 111.78 140.26
  Q 110.41 143.39 110.91 145.38
  C 111.74 148.74 116.43 150.38 119.28 148.13
  Q 120.39 147.25 121.35 145.06
  Q 131.30 122.45 141.25 99.84
  Q 142.47 97.07 142.44 95.42
  C 142.33 90.60 138.17 90.35 134.02 90.35
  Q 122.87 90.36 111.72 90.40
  C 103.04 90.44 103.90 101.11 110.74 101.10
  Q 119.72 101.08 128.48 101.07"
/>
<path stroke="#a0a1ba" vector-effect="non-scaling-stroke" d="
  M 10.00 75.28
  Q 14.64 69.51 18.61 63.56
  C 21.68 58.96 27.95 51.40 21.46 46.83"
/>
<path stroke="#a0a1ba" vector-effect="non-scaling-stroke" d="
  M 53.90 68.20
  A 0.31 0.31 0.0 0 0 54.17 68.66
  L 62.93 68.70
  A 0.31 0.31 0.0 0 0 63.24 68.39
  L 63.30 52.84
  A 0.31 0.31 0.0 0 0 62.72 52.69
  L 53.90 68.20"
/>
<path stroke="#6dd7fd" vector-effect="non-scaling-stroke" d="
  M 91.49 103.48
  Q 91.22 89.92 91.35 77.00
  Q 91.35 76.72 90.97 76.61"
/>
</g>
<path fill="#85eafd" d="
  M 91.42 3.78
  L 91.06 14.49
  Q 78.19 14.70 65.85 18.98
  Q 64.25 19.53 65.91 19.87
  C 66.97 20.08 68.25 19.95 69.27 20.64
  C 73.97 23.84 70.93 29.42 65.50 28.75
  Q 56.65 27.65 47.80 26.39
  Q 46.49 26.21 45.20 25.40
  Q 44.16 24.76 42.71 23.97
  Q 47.79 10.49 54.31 1.83
  C 56.84 -1.53 62.94 1.71 61.66 6.47
  C 61.45 7.26 60.71 8.15 60.31 9.04
  Q 60.01 9.73 60.71 9.47
  Q 75.61 4.00 91.42 3.78
  Z"
/>
<path fill="#54c4fc" d="
  M 91.42 3.78
  C 139.02 4.06 175.53 39.08 180.00 86.21
  L 180.00 97.91
  Q 175.49 143.47 138.25 167.06
  Q 133.50 170.07 130.22 164.99
  C 128.93 161.35 130.27 159.43 133.42 157.39
  C 172.32 132.12 181.33 78.93 151.48 42.83
  Q 129.01 15.66 91.37 14.41
  Q 91.70 14.69 91.06 14.49
  L 91.42 3.78
  Z"
/>
<path fill="#fff5f5" d="
  M 91.06 14.49
  Q 91.70 14.69 91.37 14.41
  L 91.69 74.08
  L 90.97 76.61
  Q 90.84 76.60 90.69 76.70
  Q 90.59 76.77 90.53 76.92
  Q 84.00 93.54 77.36 110.11
  C 73.85 118.89 84.32 121.68 86.64 115.86
  Q 88.46 111.26 90.24 106.70
  Q 90.81 106.52 91.12 106.70
  Q 91.37 106.85 91.37 107.39
  Q 91.37 141.01 91.30 174.67
  L 84.13 174.25
  C 84.00 170.43 82.00 169.11 78.34 168.41
  Q 73.68 167.51 69.09 166.21
  C 65.53 165.19 63.13 165.85 61.47 169.09
  L 48.76 162.87
  C 50.45 159.73 49.60 157.40 46.78 155.25
  Q 42.70 152.13 38.83 148.73
  C 36.05 146.30 33.54 145.97 30.67 148.23
  L 21.96 137.19
  C 25.02 134.97 25.30 132.37 23.58 128.97
  Q 21.30 124.49 19.36 119.85
  C 17.88 116.34 15.63 114.98 11.96 115.99
  Q 8.68 105.25 8.33 94.52
  Q 19.32 94.51 30.49 94.66
  C 38.77 94.77 39.87 83.70 30.74 83.76
  Q 24.42 83.80 17.90 83.73
  Q 17.19 83.73 17.62 83.16
  Q 28.57 68.75 31.69 63.21
  Q 39.94 48.58 27.87 38.06
  Q 35.14 29.99 42.71 23.97
  Q 44.16 24.76 45.20 25.40
  Q 46.49 26.21 47.80 26.39
  Q 56.65 27.65 65.50 28.75
  C 70.93 29.42 73.97 23.84 69.27 20.64
  C 68.25 19.95 66.97 20.08 65.91 19.87
  Q 64.25 19.53 65.85 18.98
  Q 78.19 14.70 91.06 14.49
  Z
  M 63.19 80.02
  C 63.24 83.32 62.56 88.37 63.84 90.85
  C 66.46 95.94 73.81 93.55 73.82 87.75
  Q 73.83 83.90 73.92 79.98
  Q 73.93 79.43 74.49 79.39
  C 82.03 78.87 81.90 68.90 74.55 68.70
  Q 73.97 68.68 73.98 68.11
  Q 74.06 56.30 73.99 44.50
  C 73.95 39.04 70.83 34.27 64.94 34.86
  Q 61.12 35.24 58.77 38.57
  Q 53.83 45.59 40.72 69.86
  Q 39.26 72.55 39.33 74.44
  C 39.52 79.49 44.07 79.47 48.40 79.39
  Q 55.49 79.26 62.62 79.45
  Q 63.18 79.46 63.19 80.02
  Z"
/>
<path fill="#ece6f2" d="
  M 91.37 14.41
  Q 129.01 15.66 151.48 42.83
  C 181.33 78.93 172.32 132.12 133.42 157.39
  C 130.27 159.43 128.93 161.35 130.22 164.99
  L 120.78 169.29
  C 119.28 166.46 117.02 165.57 113.79 166.41
  Q 108.75 167.73 103.67 168.68
  C 100.20 169.32 98.26 170.85 98.20 174.42
  L 91.30 174.67
  Q 91.37 141.01 91.37 107.39
  Q 91.37 106.85 91.12 106.70
  Q 90.81 106.52 90.24 106.70
  L 91.49 103.48
  Q 98.59 85.99 105.26 69.07
  Q 106.48 65.95 106.17 64.18
  C 105.55 60.65 100.63 58.79 97.76 61.01
  C 95.28 62.93 92.96 70.91 91.69 74.08
  L 91.37 14.41
  Z
  M 128.48 101.07
  A 0.34 0.33 11.9 0 1 128.79 101.54
  Q 120.20 121.04 111.78 140.26
  Q 110.41 143.39 110.91 145.38
  C 111.74 148.74 116.43 150.38 119.28 148.13
  Q 120.39 147.25 121.35 145.06
  Q 131.30 122.45 141.25 99.84
  Q 142.47 97.07 142.44 95.42
  C 142.33 90.60 138.17 90.35 134.02 90.35
  Q 122.87 90.36 111.72 90.40
  C 103.04 90.44 103.90 101.11 110.74 101.10
  Q 119.72 101.08 128.48 101.07
  Z"
/>
<path fill="#414c7f" d="
  M 27.87 38.06
  Q 39.94 48.58 31.69 63.21
  Q 28.57 68.75 17.62 83.16
  Q 17.19 83.73 17.90 83.73
  Q 24.42 83.80 30.74 83.76
  C 39.87 83.70 38.77 94.77 30.49 94.66
  Q 19.32 94.51 8.33 94.52
  Q 1.05 93.53 1.84 88.27
  Q 2.18 85.95 5.31 81.89
  Q 7.85 78.59 10.00 75.28
  Q 14.64 69.51 18.61 63.56
  C 21.68 58.96 27.95 51.40 21.46 46.83
  Q 16.09 43.43 11.78 48.37
  C 10.51 49.83 10.83 52.04 9.09 53.62
  Q 3.81 58.39 0.00 51.20
  L 0.00 49.03
  C 3.18 36.21 16.78 30.82 27.87 38.06
  Z"
/>
<path fill="#414c7f" d="
  M 62.62 79.45
  Q 55.49 79.26 48.40 79.39
  C 44.07 79.47 39.52 79.49 39.33 74.44
  Q 39.26 72.55 40.72 69.86
  Q 53.83 45.59 58.77 38.57
  Q 61.12 35.24 64.94 34.86
  C 70.83 34.27 73.95 39.04 73.99 44.50
  Q 74.06 56.30 73.98 68.11
  Q 73.97 68.68 74.55 68.70
  C 81.90 68.90 82.03 78.87 74.49 79.39
  Q 73.93 79.43 73.92 79.98
  Q 73.83 83.90 73.82 87.75
  C 73.81 93.55 66.46 95.94 63.84 90.85
  C 62.56 88.37 63.24 83.32 63.19 80.02
  Q 63.18 79.46 62.62 79.45
  Z
  M 53.90 68.20
  A 0.31 0.31 0.0 0 0 54.17 68.66
  L 62.93 68.70
  A 0.31 0.31 0.0 0 0 63.24 68.39
  L 63.30 52.84
  A 0.31 0.31 0.0 0 0 62.72 52.69
  L 53.90 68.20
  Z"
/>
<path fill="#fff5f5" d="
  M 21.46 46.83
  C 27.95 51.40 21.68 58.96 18.61 63.56
  Q 14.64 69.51 10.00 75.28
  Q 12.87 60.03 21.46 46.83
  Z"
/>
<path fill="#fff5f5" d="
  M 53.90 68.20
  L 62.72 52.69
  A 0.31 0.31 0.0 0 1 63.30 52.84
  L 63.24 68.39
  A 0.31 0.31 0.0 0 1 62.93 68.70
  L 54.17 68.66
  A 0.31 0.31 0.0 0 1 53.90 68.20
  Z"
/>
<path fill="#54c4fc" d="
  M 91.49 103.48
  Q 91.22 89.92 91.35 77.00
  Q 91.35 76.72 90.97 76.61
  L 91.69 74.08
  C 92.96 70.91 95.28 62.93 97.76 61.01
  C 100.63 58.79 105.55 60.65 106.17 64.18
  Q 106.48 65.95 105.26 69.07
  Q 98.59 85.99 91.49 103.48
  Z"
/>
<path fill="#85eafd" d="
  M 90.97 76.61
  Q 91.35 76.72 91.35 77.00
  Q 91.22 89.92 91.49 103.48
  L 90.24 106.70
  Q 88.46 111.26 86.64 115.86
  C 84.32 121.68 73.85 118.89 77.36 110.11
  Q 84.00 93.54 90.53 76.92
  Q 90.59 76.77 90.69 76.70
  Q 90.84 76.60 90.97 76.61
  Z"
/>
<path fill="#293565" d="
  M 128.48 101.07
  Q 119.72 101.08 110.74 101.10
  C 103.90 101.11 103.04 90.44 111.72 90.40
  Q 122.87 90.36 134.02 90.35
  C 138.17 90.35 142.33 90.60 142.44 95.42
  Q 142.47 97.07 141.25 99.84
  Q 131.30 122.45 121.35 145.06
  Q 120.39 147.25 119.28 148.13
  C 116.43 150.38 111.74 148.74 110.91 145.38
  Q 110.41 143.39 111.78 140.26
  Q 120.20 121.04 128.79 101.54
  A 0.34 0.33 11.9 0 0 128.48 101.07
  Z"
/>
<path fill="#85eafd" d="
  M 11.96 115.99
  C 15.63 114.98 17.88 116.34 19.36 119.85
  Q 21.30 124.49 23.58 128.97
  C 25.30 132.37 25.02 134.97 21.96 137.19
  C 16.23 139.12 14.87 135.43 12.49 130.76
  C 9.89 125.68 6.24 119.47 11.96 115.99
  Z"
/>
<path fill="#85eafd" d="
  M 48.76 162.87
  Q 45.20 167.26 40.87 164.14
  Q 33.25 158.65 30.58 155.64
  Q 27.65 152.33 30.67 148.23
  C 33.54 145.97 36.05 146.30 38.83 148.73
  Q 42.70 152.13 46.78 155.25
  C 49.60 157.40 50.45 159.73 48.76 162.87
  Z"
/>
<path fill="#85eafd" d="
  M 84.13 174.25
  C 83.20 178.93 80.09 179.64 75.73 178.81
  Q 69.01 177.52 65.10 176.15
  Q 60.31 174.47 61.47 169.09
  C 63.13 165.85 65.53 165.19 69.09 166.21
  Q 73.68 167.51 78.34 168.41
  C 82.00 169.11 84.00 170.43 84.13 174.25
  Z"
/>
<path fill="#54c4fc" d="
  M 120.78 169.29
  Q 121.57 172.33 120.05 174.46
  C 117.91 177.43 106.66 179.19 104.12 179.38
  Q 99.24 179.75 98.20 174.42
  C 98.26 170.85 100.20 169.32 103.67 168.68
  Q 108.75 167.73 113.79 166.41
  C 117.02 165.57 119.28 166.46 120.78 169.29
  Z"
/>
</svg>
