<?xml version="1.0" encoding="UTF-8" standalone="no"?>
<!DOCTYPE svg PUBLIC "-//W3C//DTD SVG 1.1//EN" "http://www.w3.org/Graphics/SVG/1.1/DTD/svg11.dtd">
<svg xmlns="http://www.w3.org/2000/svg" version="1.1" viewBox="0.00 0.00 180.00 180.00">
<path fill="#58b2de" d="
  M 44.16 0.00
  L 54.74 0.00
  C 61.56 1.93 61.03 6.32 61.04 13.00
  Q 61.07 25.23 61.04 37.62
  Q 61.04 38.17 60.48 38.17
  L 38.26 38.17
  Q 37.76 38.17 37.76 37.67
  Q 37.69 23.60 37.74 9.52
  C 37.76 4.36 39.04 1.22 44.16 0.00
  Z"
/>
<path fill="#58b2de" d="
  M 64.87 14.07
  A 0.34 0.34 0.0 0 1 65.21 13.73
  L 70.08 13.74
  A 8.23 8.04 0.2 0 1 78.28 21.81
  L 78.28 23.93
  A 8.23 8.04 0.2 0 1 70.02 31.94
  L 65.15 31.93
  A 0.34 0.34 0.0 0 1 64.81 31.59
  L 64.87 14.07
  Z"
/>
<path fill="#6ac3e9" d="
  M 115.75 44.25
  C 115.76 36.29 110.37 29.03 103.26 26.17
  C 97.65 23.91 89.15 24.70 82.51 24.74
  Q 82.01 24.74 82.01 24.24
  L 82.02 21.50
  Q 82.03 21.00 82.53 21.00
  C 89.19 21.00 97.13 20.27 103.01 22.19
  Q 114.38 25.92 118.16 37.14
  Q 119.50 41.12 119.49 48.49
  Q 119.49 61.17 119.49 73.81
  Q 119.49 74.29 119.00 74.29
  L 116.25 74.29
  Q 115.76 74.29 115.75 73.79
  Q 115.74 59.01 115.75 44.25
  Z"
/>
<rect fill="#58b2de" x="-19.79" y="-10.78" transform="translate(49.41,52.75) rotate(-0.1)" width="39.58" height="21.56" rx="5.95"/>
<path fill="#6ac3e9" d="
  M 156.85 72.90
  C 156.26 58.12 145.30 45.94 129.95 46.05
  A 1.69 1.69 0.0 0 1 128.33 43.84
  Q 128.93 42.01 131.02 42.18
  C 147.83 43.49 159.35 55.21 160.47 72.24
  Q 160.61 74.41 158.68 74.54
  A 1.71 1.71 0.0 0 1 156.85 72.90
  Z"
/>
<path fill="#6ac3e9" d="
  M 146.91 72.46
  C 146.27 62.88 139.43 56.07 129.81 55.93
  A 1.72 1.72 0.0 0 1 128.50 53.12
  Q 129.44 51.97 131.25 52.23
  Q 148.68 54.70 150.72 72.26
  A 2.07 2.06 -8.7 0 1 149.05 74.52
  C 147.62 74.80 147.00 73.78 146.91 72.46
  Z"
/>
<path fill="#6ac3e9" d="
  M 133.78 66.93
  C 132.26 65.95 130.61 66.14 129.09 65.36
  A 1.76 1.75 -28.8 0 1 130.05 62.05
  Q 139.40 62.92 140.74 72.15
  A 2.09 2.07 -17.7 0 1 139.61 74.31
  Q 138.24 75.01 137.48 73.99
  Q 137.12 73.53 137.00 72.31
  Q 136.65 68.79 133.78 66.93
  Z"
/>
<path fill="#3e9bce" d="
  M 60.56 71.79
  C 53.30 67.65 45.37 67.60 38.22 71.77
  Q 37.73 72.06 37.73 71.49
  L 37.73 67.79
  Q 37.73 67.31 38.21 67.31
  L 60.50 67.32
  Q 61.07 67.32 61.07 67.88
  L 61.07 71.49
  Q 61.07 72.08 60.56 71.79
  Z"
/>
<circle fill="#58b2de" cx="130.13" cy="72.75" r="1.84"/>
<path fill="#3e9bce" d="
  M 59.58 83.95
  C 54.83 75.77 44.11 76.43 39.09 84.00
  Q 38.85 84.36 38.42 84.36
  L 33.30 84.36
  Q 32.76 84.36 32.96 83.86
  C 38.82 68.66 59.93 68.65 65.80 83.82
  Q 66.00 84.33 65.46 84.33
  L 60.33 84.37
  Q 59.83 84.38 59.58 83.95
  Z"
/>
<path fill="#58b2de" d="
  M 134.56 85.68
  C 142.73 91.42 142.00 99.85 141.87 109.04
  C 141.75 117.69 139.11 124.32 131.01 127.68
  C 126.19 129.68 119.77 129.03 114.10 129.09
  C 105.12 129.17 97.75 126.45 94.47 117.46
  C 92.93 113.25 93.33 108.06 93.27 103.13
  C 93.13 92.61 97.10 85.19 107.89 82.42
  A 1.95 1.91 15.0 0 0 108.74 81.94
  C 113.38 77.50 118.84 76.86 124.22 80.34
  C 127.63 82.55 131.83 83.76 134.56 85.68
  Z
  M 125.62 106.84
  A 1.79 1.79 0.0 0 0 123.83 105.05
  L 111.35 105.05
  A 1.79 1.79 0.0 0 0 109.56 106.84
  L 109.56 107.04
  A 1.79 1.79 0.0 0 0 111.35 108.83
  L 123.83 108.83
  A 1.79 1.79 0.0 0 0 125.62 107.04
  L 125.62 106.84
  Z
  M 125.6201 116.6640
  A 1.84 1.84 0.0 0 0 123.7833 114.8208
  L 111.4033 114.7992
  A 1.84 1.84 0.0 0 0 109.5601 116.6360
  L 109.5599 116.7760
  A 1.84 1.84 0.0 0 0 111.3967 118.6192
  L 123.7767 118.6408
  A 1.84 1.84 0.0 0 0 125.6199 116.8040
  L 125.6201 116.6640
  Z"
/>
<path fill="#3e9bce" d="
  M 40.80 91.80
  L 21.25 91.84
  A 1.73 1.72 7.4 0 1 19.58 89.68
  Q 20.04 87.94 22.00 87.97
  Q 31.47 88.11 40.95 88.17
  Q 41.47 88.17 41.64 87.68
  C 44.25 79.79 54.13 80.00 57.14 87.70
  Q 57.32 88.15 57.79 88.14
  L 77.44 88.13
  A 1.77 1.76 87.1 0 1 79.19 89.72
  Q 79.39 91.76 77.25 91.78
  Q 67.53 91.89 57.80 91.82
  A 0.72 0.72 0.0 0 0 57.12 92.30
  C 54.49 100.17 44.52 99.99 41.65 92.39
  Q 41.42 91.80 40.80 91.80
  Z"
/>
<path fill="#3e9bce" d="
  M 39.18 96.08
  C 44.05 104.25 54.62 103.55 59.68 96.00
  Q 59.92 95.64 60.35 95.64
  L 65.48 95.66
  Q 66.17 95.66 65.88 96.28
  C 58.86 111.18 39.21 111.54 32.91 96.20
  Q 32.68 95.65 33.28 95.65
  L 38.40 95.63
  Q 38.92 95.63 39.18 96.08
  Z"
/>
<path fill="#3e9bce" d="
  M 38.02 108.12
  Q 49.25 114.54 60.54 108.26
  Q 61.07 107.96 61.07 108.58
  L 61.06 112.06
  Q 61.06 112.68 60.44 112.68
  L 38.21 112.69
  Q 37.73 112.69 37.73 112.21
  L 37.73 108.29
  Q 37.73 107.96 38.02 108.12
  Z"
/>
<rect fill="#3e9bce" x="-19.79" y="-10.78" transform="translate(49.41,127.26) rotate(0.1)" width="39.58" height="21.56" rx="5.95"/>
<path fill="#3e9bce" d="
  M 54.61 180.00
  L 44.04 180.00
  Q 37.77 178.23 37.74 171.25
  Q 37.69 156.79 37.76 142.32
  Q 37.76 141.82 38.26 141.82
  L 60.48 141.83
  Q 61.04 141.83 61.04 142.38
  Q 61.05 156.47 61.04 170.44
  C 61.04 175.62 59.73 178.77 54.61 180.00
  Z"
/>
</svg>
