<?xml version="1.0" encoding="UTF-8" standalone="no"?>
<!DOCTYPE svg PUBLIC "-//W3C//DTD SVG 1.1//EN" "http://www.w3.org/Graphics/SVG/1.1/DTD/svg11.dtd">
<svg xmlns="http://www.w3.org/2000/svg" version="1.1" viewBox="0.00 0.00 180.00 180.00">
<g stroke-width="2.00" fill="none" stroke-linecap="butt">
<path stroke="#5aa2d2" vector-effect="non-scaling-stroke" d="
  M 43.44 12.85
  L 6.26 12.84"
/>
<path stroke="#5aa2d2" vector-effect="non-scaling-stroke" d="
  M 167.46 37.60
  L 167.41 7.12
  Q 167.41 6.85 167.18 6.71
  Q 167.07 6.63 166.95 6.54"
/>
<path stroke="#5aa2d2" vector-effect="non-scaling-stroke" d="
  M 148.94 49.93
  L 111.76 49.93"
/>
<path stroke="#aadef0" vector-effect="non-scaling-stroke" d="
  M 128.08 27.55
  C 130.98 21.61 135.93 22.00 142.25 22.18
  Q 142.75 22.19 142.75 21.69
  L 142.75 16.56
  Q 142.75 16.07 142.26 16.04
  Q 134.62 15.59 132.24 16.46
  C 122.51 19.99 120.46 27.27 121.07 37.02
  Q 121.11 37.63 121.72 37.63
  L 126.79 37.67
  A 0.65 0.64 -3.9 0 0 127.43 36.94
  Q 126.58 30.64 128.08 27.55"
/>
<path stroke="#aadef0" vector-effect="non-scaling-stroke" d="
  M 155.20 16.31
  A 0.42 0.42 0.0 0 0 154.78 15.89
  L 149.40 15.89
  A 0.42 0.42 0.0 0 0 148.98 16.31
  L 148.98 21.73
  A 0.42 0.42 0.0 0 0 149.40 22.15
  L 154.78 22.15
  A 0.42 0.42 0.0 0 0 155.20 21.73
  L 155.20 16.31"
/>
<path stroke="#5aa2d2" vector-effect="non-scaling-stroke" d="
  M 43.44 49.93
  L 6.25 49.95"
/>
<path stroke="#aadef0" vector-effect="non-scaling-stroke" d="
  M 34.16 22.65
  A 0.51 0.51 0.0 0 0 33.65 22.14
  L 28.45 22.14
  A 0.51 0.51 0.0 0 0 27.94 22.65
  L 27.94 40.23
  A 0.51 0.51 0.0 0 0 28.45 40.74
  L 33.65 40.74
  A 0.51 0.51 0.0 0 0 34.16 40.23
  L 34.16 22.65"
/>
<path stroke="#5aa2d2" vector-effect="non-scaling-stroke" d="
  M 43.39 62.53
  L 6.24 62.55"
/>
<path stroke="#5aa2d2" vector-effect="non-scaling-stroke" d="
  M 149.00 62.56
  L 111.96 62.58"
/>
<path stroke="#aadef0" vector-effect="non-scaling-stroke" d="
  M 117.28 120.24
  Q 106.29 126.89 93.82 129.54"
/>
<path stroke="#aadef0" vector-effect="non-scaling-stroke" d="
  M 86.36 130.53
  L 70.58 130.42"
/>
<path stroke="#5aa2d2" vector-effect="non-scaling-stroke" d="
  M 70.58 130.42
  Q 71.08 129.50 70.88 129.02
  Q 68.59 123.21 66.22 117.24
  Q 66.02 116.73 66.51 116.49
  L 81.61 108.93
  Q 82.10 108.68 81.85 108.20
  L 79.58 103.69
  A 0.63 0.63 0.0 0 0 78.74 103.41
  L 62.44 111.56
  Q 62.06 111.75 61.68 111.56
  L 51.68 106.52
  Q 51.07 106.21 50.75 106.82
  L 48.53 111.21
  Q 48.23 111.79 48.82 112.08
  L 59.09 117.17
  Q 59.56 117.40 59.75 117.89
  L 64.54 129.93"
/>
<path stroke="#aadef0" vector-effect="non-scaling-stroke" d="
  M 64.54 129.93
  Q 56.91 128.84 49.03 125.98"
/>
<path stroke="#aadef0" vector-effect="non-scaling-stroke" d="
  M 34.1506 72.1791
  A 0.44 0.44 0.0 0 0 33.7091 71.7406
  L 28.3291 71.7594
  A 0.44 0.44 0.0 0 0 27.8907 72.2009
  L 27.9094 77.5609
  A 0.44 0.44 0.0 0 0 28.3509 77.9994
  L 33.7309 77.9806
  A 0.44 0.44 0.0 0 0 34.1693 77.5391
  L 34.1506 72.1791"
/>
<path stroke="#7db2d9" vector-effect="non-scaling-stroke" d="
  M 70.58 130.42
  Q 68.58 130.46 66.02 131.65
  Q 65.45 131.91 65.19 131.34
  L 64.54 129.93"
/>
</g>
<path fill="#2d75bb" d="
  M 43.44 12.85
  L 6.26 12.84
  L 0.00 12.74
  L 0.00 0.43
  L 49.07 0.46
  Q 49.63 0.46 49.63 1.02
  L 49.63 12.23
  Q 49.63 12.76 49.10 12.77
  L 43.44 12.85
  Z"
/>
<path fill="#2d75bb" d="
  M 180.00 0.39
  L 180.00 43.82
  L 168.14 43.75
  Q 167.61 43.74 167.60 43.21
  L 167.46 37.60
  L 167.41 7.12
  Q 167.41 6.85 167.18 6.71
  Q 167.07 6.63 166.95 6.54
  Q 167.20 6.64 167.40 6.42
  Q 167.52 6.28 167.52 6.03
  Q 167.60 3.69 167.76 1.19
  Q 167.80 0.68 168.31 0.67
  L 180.00 0.39
  Z"
/>
<path fill="#87cee9" d="
  M 166.95 6.54
  Q 167.07 6.63 167.18 6.71
  Q 167.41 6.85 167.41 7.12
  L 167.46 37.60
  Q 161.90 37.66 156.63 37.62
  C 147.91 37.56 149.04 43.48 148.94 49.93
  L 111.76 49.93
  Q 111.74 42.04 111.74 34.37
  Q 111.74 27.68 113.05 23.76
  Q 117.11 11.53 129.25 7.83
  Q 133.49 6.54 142.11 6.60
  Q 154.55 6.69 166.95 6.54
  Z
  M 128.08 27.55
  C 130.98 21.61 135.93 22.00 142.25 22.18
  Q 142.75 22.19 142.75 21.69
  L 142.75 16.56
  Q 142.75 16.07 142.26 16.04
  Q 134.62 15.59 132.24 16.46
  C 122.51 19.99 120.46 27.27 121.07 37.02
  Q 121.11 37.63 121.72 37.63
  L 126.79 37.67
  A 0.65 0.64 -3.9 0 0 127.43 36.94
  Q 126.58 30.64 128.08 27.55
  Z
  M 155.20 16.31
  A 0.42 0.42 0.0 0 0 154.78 15.89
  L 149.40 15.89
  A 0.42 0.42 0.0 0 0 148.98 16.31
  L 148.98 21.73
  A 0.42 0.42 0.0 0 0 149.40 22.15
  L 154.78 22.15
  A 0.42 0.42 0.0 0 0 155.20 21.73
  L 155.20 16.31
  Z"
/>
<path fill="#87cee9" d="
  M 43.44 12.85
  L 43.44 49.93
  L 6.25 49.95
  L 6.26 12.84
  L 43.44 12.85
  Z
  M 34.16 22.65
  A 0.51 0.51 0.0 0 0 33.65 22.14
  L 28.45 22.14
  A 0.51 0.51 0.0 0 0 27.94 22.65
  L 27.94 40.23
  A 0.51 0.51 0.0 0 0 28.45 40.74
  L 33.65 40.74
  A 0.51 0.51 0.0 0 0 34.16 40.23
  L 34.16 22.65
  Z"
/>
<path fill="#cdeef6" d="
  M 128.08 27.55
  Q 126.58 30.64 127.43 36.94
  A 0.65 0.64 -3.9 0 1 126.79 37.67
  L 121.72 37.63
  Q 121.11 37.63 121.07 37.02
  C 120.46 27.27 122.51 19.99 132.24 16.46
  Q 134.62 15.59 142.26 16.04
  Q 142.75 16.07 142.75 16.56
  L 142.75 21.69
  Q 142.75 22.19 142.25 22.18
  C 135.93 22.00 130.98 21.61 128.08 27.55
  Z"
/>
<rect fill="#cdeef6" x="148.98" y="15.89" width="6.22" height="6.26" rx="0.42"/>
<rect fill="#cdeef6" x="27.94" y="22.14" width="6.22" height="18.60" rx="0.51"/>
<path fill="#2d75bb" d="
  M 6.25 49.95
  L 43.44 49.93
  L 49.10 50.00
  Q 49.63 50.01 49.63 50.54
  L 49.63 61.96
  Q 49.64 62.45 49.15 62.45
  L 43.39 62.53
  L 6.24 62.55
  L 0.00 62.42
  L 0.00 49.98
  L 6.25 49.95
  Z"
/>
<path fill="#2d75bb" d="
  M 111.76 49.93
  L 148.94 49.93
  L 154.64 50.01
  Q 155.16 50.02 155.16 50.53
  L 155.17 61.98
  Q 155.17 62.43 154.72 62.44
  L 149.00 62.56
  L 111.96 62.58
  L 106.00 62.46
  Q 105.52 62.46 105.52 61.97
  L 105.52 50.52
  Q 105.52 50.04 106.01 50.03
  L 111.76 49.93
  Z"
/>
<path fill="#87cee9" d="
  M 43.39 62.53
  C 43.92 79.57 56.34 92.72 73.50 93.46
  C 80.13 93.74 86.57 93.69 92.56 91.11
  Q 110.21 83.51 111.96 62.58
  L 149.00 62.56
  Q 148.07 95.74 122.84 116.09
  Q 121.29 117.34 117.28 120.24
  Q 106.29 126.89 93.82 129.54
  L 86.36 130.53
  L 70.58 130.42
  Q 71.08 129.50 70.88 129.02
  Q 68.59 123.21 66.22 117.24
  Q 66.02 116.73 66.51 116.49
  L 81.61 108.93
  Q 82.10 108.68 81.85 108.20
  L 79.58 103.69
  A 0.63 0.63 0.0 0 0 78.74 103.41
  L 62.44 111.56
  Q 62.06 111.75 61.68 111.56
  L 51.68 106.52
  Q 51.07 106.21 50.75 106.82
  L 48.53 111.21
  Q 48.23 111.79 48.82 112.08
  L 59.09 117.17
  Q 59.56 117.40 59.75 117.89
  L 64.54 129.93
  Q 56.91 128.84 49.03 125.98
  Q 42.25 122.72 40.08 121.43
  C 19.09 108.92 6.42 87.13 6.24 62.55
  L 43.39 62.53
  Z
  M 34.1506 72.1791
  A 0.44 0.44 0.0 0 0 33.7091 71.7406
  L 28.3291 71.7594
  A 0.44 0.44 0.0 0 0 27.8907 72.2009
  L 27.9094 77.5609
  A 0.44 0.44 0.0 0 0 28.3509 77.9994
  L 33.7309 77.9806
  A 0.44 0.44 0.0 0 0 34.1693 77.5391
  L 34.1506 72.1791
  Z"
/>
<rect fill="#cdeef6" x="-3.13" y="-3.12" transform="translate(31.03,74.87) rotate(-0.2)" width="6.26" height="6.24" rx="0.44"/>
<path fill="#2d75bb" d="
  M 70.58 130.42
  Q 68.58 130.46 66.02 131.65
  Q 65.45 131.91 65.19 131.34
  L 64.54 129.93
  L 59.75 117.89
  Q 59.56 117.40 59.09 117.17
  L 48.82 112.08
  Q 48.23 111.79 48.53 111.21
  L 50.75 106.82
  Q 51.07 106.21 51.68 106.52
  L 61.68 111.56
  Q 62.06 111.75 62.44 111.56
  L 78.74 103.41
  A 0.63 0.63 0.0 0 1 79.58 103.69
  L 81.85 108.20
  Q 82.10 108.68 81.61 108.93
  L 66.51 116.49
  Q 66.02 116.73 66.22 117.24
  Q 68.59 123.21 70.88 129.02
  Q 71.08 129.50 70.58 130.42
  Z"
/>
<path fill="#cdeef6" d="
  M 117.28 120.24
  Q 114.01 127.75 114.48 132.99
  Q 114.97 138.46 114.73 141.24
  C 114.06 149.04 101.72 149.66 102.42 139.87
  C 102.77 134.85 98.46 131.26 93.82 129.54
  Q 106.29 126.89 117.28 120.24
  Z"
/>
<path fill="#cdeef6" d="
  M 64.54 129.93
  L 65.19 131.34
  Q 65.45 131.91 66.02 131.65
  Q 68.58 130.46 70.58 130.42
  L 86.36 130.53
  C 73.55 139.76 75.94 152.18 78.30 165.54
  Q 80.41 177.51 68.34 180.00
  L 67.47 180.00
  C 58.57 177.85 55.90 170.95 58.17 162.64
  C 60.52 154.06 65.79 146.65 59.45 138.07
  Q 54.96 132.00 49.03 125.98
  Q 56.91 128.84 64.54 129.93
  Z"
/>
</svg>
