<?xml version="1.0" encoding="UTF-8" standalone="no"?>
<!DOCTYPE svg PUBLIC "-//W3C//DTD SVG 1.1//EN" "http://www.w3.org/Graphics/SVG/1.1/DTD/svg11.dtd">
<svg xmlns="http://www.w3.org/2000/svg" version="1.1" viewBox="0.00 0.00 180.00 180.00">
<g stroke-width="2.00" fill="none" stroke-linecap="butt">
<path stroke="#cfdde5" vector-effect="non-scaling-stroke" d="
  M 121.18 0.00
  C 121.42 3.49 120.66 5.17 117.01 5.77
  Q 87.88 10.56 58.78 15.53
  Q 54.16 16.32 54.20 20.51
  Q 54.27 27.28 53.29 30.63"
/>
<path stroke="#b3c2ca" vector-effect="non-scaling-stroke" d="
  M 53.29 30.63
  L 36.90 30.61"
/>
<path stroke="#a9b8c3" vector-effect="non-scaling-stroke" d="
  M 60.18 30.67
  L 53.29 30.63"
/>
<path stroke="#a9b8c3" vector-effect="non-scaling-stroke" d="
  M 60.19 45.44
  L 53.86 45.46"
/>
<path stroke="#b3c2ca" vector-effect="non-scaling-stroke" d="
  M 53.86 45.46
  L 36.90 45.42"
/>
<path stroke="#cfdde5" vector-effect="non-scaling-stroke" d="
  M 53.86 45.46
  L 53.93 156.32"
/>
<path stroke="#bccad3" vector-effect="non-scaling-stroke" d="
  M 53.93 156.32
  L 30.99 156.41"
/>
<path stroke="#b2c0cc" vector-effect="non-scaling-stroke" d="
  M 66.15 56.30
  L 66.09 73.88"
/>
<path stroke="#a9b8c3" vector-effect="non-scaling-stroke" d="
  M 66.04 156.37
  L 60.55 156.45"
/>
<path stroke="#b2c0cc" vector-effect="non-scaling-stroke" d="
  M 60.55 156.45
  L 53.93 156.32"
/>
<path stroke="#abb8c5" vector-effect="non-scaling-stroke" d="
  M 76.96 56.35
  L 77.03 73.89"
/>
<path stroke="#8cd0e5" vector-effect="non-scaling-stroke" d="
  M 141.44 82.70
  L 112.26 82.69"
/>
<path stroke="#7ee1fc" vector-effect="non-scaling-stroke" d="
  M 141.39 93.34
  Q 137.42 94.11 134.04 93.41
  A 0.86 0.86 0.0 0 0 133.03 94.47
  Q 133.93 97.92 131.03 99.32
  A 2.22 2.21 -14.1 0 1 127.85 97.42
  L 127.70 94.21
  Q 127.68 93.72 127.18 93.72
  L 112.23 93.80"
/>
<path stroke="#b1ebfd" vector-effect="non-scaling-stroke" d="
  M 141.37 164.07
  C 137.89 161.47 136.73 158.71 132.18 157.10"
/>
<path stroke="#bceefd" vector-effect="non-scaling-stroke" d="
  M 132.18 157.10
  Q 120.51 153.46 112.26 164.60"
/>
<path stroke="#7ee1fc" vector-effect="non-scaling-stroke" d="
  M 133.1191 107.4947
  A 2.57 2.57 0.0 0 0 130.5536 104.9202
  L 130.3536 104.9198
  A 2.57 2.57 0.0 0 0 127.7791 107.4853
  L 127.7609 117.9253
  A 2.57 2.57 0.0 0 0 130.3264 120.4998
  L 130.5264 120.5002
  A 2.57 2.57 0.0 0 0 133.1009 117.9347
  L 133.1191 107.4947"
/>
<path stroke="#7ee1fc" vector-effect="non-scaling-stroke" d="
  M 125.7578 124.2354
  A 2.46 2.46 0.0 0 0 123.2935 121.7797
  L 122.9535 121.7803
  A 2.46 2.46 0.0 0 0 120.4978 124.2446
  L 120.5022 126.7646
  A 2.46 2.46 0.0 0 0 122.9665 129.2203
  L 123.3065 129.2197
  A 2.46 2.46 0.0 0 0 125.7622 126.7554
  L 125.7578 124.2354"
/>
<path stroke="#7ee1fc" vector-effect="non-scaling-stroke" d="
  M 125.78 135.67
  A 2.53 2.53 0.0 0 0 123.25 133.14
  L 123.01 133.14
  A 2.53 2.53 0.0 0 0 120.48 135.67
  L 120.48 144.33
  A 2.53 2.53 0.0 0 0 123.01 146.86
  L 123.25 146.86
  A 2.53 2.53 0.0 0 0 125.78 144.33
  L 125.78 135.67"
/>
<path stroke="#96a4b1" vector-effect="non-scaling-stroke" d="
  M 60.55 156.45
  Q 62.16 161.88 61.52 168.42"
/>
<path stroke="#bccad3" vector-effect="non-scaling-stroke" d="
  M 61.52 168.42
  L 23.71 168.41"
/>
<path stroke="#a9b8c3" vector-effect="non-scaling-stroke" d="
  M 73.36 168.14
  L 71.71 168.35"
/>
<path stroke="#b3c2ca" vector-effect="non-scaling-stroke" d="
  M 71.71 168.35
  L 61.52 168.42"
/>
<path stroke="#d4f3fe" vector-effect="non-scaling-stroke" d="
  M 132.18 157.10
  Q 126.61 169.18 118.02 180.00"
/>
<path stroke="#cfdde5" vector-effect="non-scaling-stroke" d="
  M 72.49 180.00
  Q 74.30 174.65 72.70 168.98
  Q 72.56 168.49 72.07 168.41
  L 71.71 168.35"
/>
</g>
<path fill="#d9e7ec" d="
  M 37.14 0.00
  L 121.18 0.00
  C 121.42 3.49 120.66 5.17 117.01 5.77
  Q 87.88 10.56 58.78 15.53
  Q 54.16 16.32 54.20 20.51
  Q 54.27 27.28 53.29 30.63
  L 36.90 30.61
  C 32.21 31.52 30.93 29.32 30.95 25.02
  Q 31.00 17.06 30.99 9.18
  C 30.98 4.24 32.28 1.20 37.14 0.00
  Z"
/>
<path fill="#c5d3dd" d="
  M 121.18 0.00
  L 130.76 0.00
  C 133.41 1.70 132.57 4.07 132.72 6.56
  C 132.89 9.47 133.11 12.40 129.75 12.96
  Q 98.21 18.16 66.64 23.36
  Q 66.09 23.45 66.06 24.00
  C 65.96 25.85 66.43 27.96 65.24 29.37
  Q 63.57 31.34 60.18 30.67
  L 53.29 30.63
  Q 54.27 27.28 54.20 20.51
  Q 54.16 16.32 58.78 15.53
  Q 87.88 10.56 117.01 5.77
  C 120.66 5.17 121.42 3.49 121.18 0.00
  Z"
/>
<path fill="#8d9ca8" d="
  M 53.29 30.63
  L 60.18 30.67
  L 60.19 45.44
  L 53.86 45.46
  L 36.90 45.42
  L 36.90 30.61
  L 53.29 30.63
  Z"
/>
<path fill="#d9e7ec" d="
  M 36.90 45.42
  L 53.86 45.46
  L 53.93 156.32
  L 30.99 156.41
  Q 30.96 103.60 31.00 50.71
  C 31.00 46.45 32.52 44.71 36.90 45.42
  Z"
/>
<path fill="#c5d3dd" d="
  M 60.19 45.44
  C 67.96 44.14 65.92 51.85 66.15 56.30
  L 66.09 73.88
  L 66.04 156.37
  L 60.55 156.45
  L 53.93 156.32
  L 53.86 45.46
  L 60.19 45.44
  Z"
/>
<path fill="#9facba" d="
  M 66.15 56.30
  L 76.96 56.35
  L 77.03 73.89
  L 66.09 73.88
  L 66.15 56.30
  Z"
/>
<path fill="#b6c4cf" d="
  M 76.96 56.35
  Q 104.15 56.40 131.17 56.36
  Q 136.82 56.35 139.23 57.28
  C 148.64 60.89 146.21 71.08 146.54 78.80
  Q 146.74 83.30 141.44 82.70
  L 112.26 82.69
  C 105.63 83.59 107.18 78.50 107.01 74.40
  Q 106.99 73.87 106.46 73.87
  L 77.03 73.89
  L 76.96 56.35
  Z"
/>
<path fill="#62dbfb" d="
  M 112.26 82.69
  L 141.44 82.70
  L 141.39 93.34
  Q 137.42 94.11 134.04 93.41
  A 0.86 0.86 0.0 0 0 133.03 94.47
  Q 133.93 97.92 131.03 99.32
  A 2.22 2.21 -14.1 0 1 127.85 97.42
  L 127.70 94.21
  Q 127.68 93.72 127.18 93.72
  L 112.23 93.80
  L 112.26 82.69
  Z"
/>
<path fill="#99e6fc" d="
  M 141.39 93.34
  L 141.37 164.07
  C 137.89 161.47 136.73 158.71 132.18 157.10
  Q 120.51 153.46 112.26 164.60
  L 112.23 93.80
  L 127.18 93.72
  Q 127.68 93.72 127.70 94.21
  L 127.85 97.42
  A 2.22 2.21 -14.1 0 0 131.03 99.32
  Q 133.93 97.92 133.03 94.47
  A 0.86 0.86 0.0 0 1 134.04 93.41
  Q 137.42 94.11 141.39 93.34
  Z
  M 133.1191 107.4947
  A 2.57 2.57 0.0 0 0 130.5536 104.9202
  L 130.3536 104.9198
  A 2.57 2.57 0.0 0 0 127.7791 107.4853
  L 127.7609 117.9253
  A 2.57 2.57 0.0 0 0 130.3264 120.4998
  L 130.5264 120.5002
  A 2.57 2.57 0.0 0 0 133.1009 117.9347
  L 133.1191 107.4947
  Z
  M 125.7578 124.2354
  A 2.46 2.46 0.0 0 0 123.2935 121.7797
  L 122.9535 121.7803
  A 2.46 2.46 0.0 0 0 120.4978 124.2446
  L 120.5022 126.7646
  A 2.46 2.46 0.0 0 0 122.9665 129.2203
  L 123.3065 129.2197
  A 2.46 2.46 0.0 0 0 125.7622 126.7554
  L 125.7578 124.2354
  Z
  M 125.78 135.67
  A 2.53 2.53 0.0 0 0 123.25 133.14
  L 123.01 133.14
  A 2.53 2.53 0.0 0 0 120.48 135.67
  L 120.48 144.33
  A 2.53 2.53 0.0 0 0 123.01 146.86
  L 123.25 146.86
  A 2.53 2.53 0.0 0 0 125.78 144.33
  L 125.78 135.67
  Z"
/>
<rect fill="#62dbfb" x="-2.67" y="-7.79" transform="translate(130.44,112.71) rotate(0.1)" width="5.34" height="15.58" rx="2.57"/>
<rect fill="#62dbfb" x="-2.63" y="-3.72" transform="translate(123.13,125.50) rotate(-0.1)" width="5.26" height="7.44" rx="2.46"/>
<rect fill="#62dbfb" x="120.48" y="133.14" width="5.30" height="13.72" rx="2.53"/>
<path fill="#9facba" d="
  M 53.93 156.32
  L 60.55 156.45
  Q 62.16 161.88 61.52 168.42
  L 23.71 168.41
  Q 23.54 164.17 23.62 160.37
  C 23.72 156.04 28.08 156.61 30.99 156.41
  L 53.93 156.32
  Z"
/>
<path fill="#8d9ca8" d="
  M 66.04 156.37
  C 67.98 156.59 71.02 156.04 72.48 157.74
  C 74.04 159.57 73.50 165.70 73.36 168.14
  L 71.71 168.35
  L 61.52 168.42
  Q 62.16 161.88 60.55 156.45
  L 66.04 156.37
  Z"
/>
<path fill="#dff6fd" d="
  M 132.18 157.10
  Q 126.61 169.18 118.02 180.00
  L 86.38 180.00
  Q 84.05 173.36 93.24 172.01
  Q 93.74 171.94 94.01 171.50
  Q 97.28 166.12 103.64 167.75
  Q 104.16 167.88 104.49 167.45
  Q 107.71 163.30 112.26 164.60
  Q 120.51 153.46 132.18 157.10
  Z"
/>
<path fill="#c8effe" d="
  M 132.18 157.10
  C 136.73 158.71 137.89 161.47 141.37 164.07
  Q 146.24 163.72 149.17 167.40
  Q 149.50 167.81 150.01 167.68
  Q 156.34 166.11 159.64 171.47
  Q 159.89 171.89 160.38 171.96
  Q 169.33 173.18 167.38 180.00
  L 118.02 180.00
  Q 126.61 169.18 132.18 157.10
  Z"
/>
<path fill="#c5d3dd" d="
  M 73.36 168.14
  Q 76.41 168.28 79.44 168.27
  C 82.18 168.26 84.79 167.77 85.14 171.45
  Q 85.65 176.82 83.58 180.00
  L 72.49 180.00
  Q 74.30 174.65 72.70 168.98
  Q 72.56 168.49 72.07 168.41
  L 71.71 168.35
  L 73.36 168.14
  Z"
/>
<path fill="#d9e7ec" d="
  M 23.71 168.41
  L 61.52 168.42
  L 71.71 168.35
  L 72.07 168.41
  Q 72.56 168.49 72.70 168.98
  Q 74.30 174.65 72.49 180.00
  L 14.02 180.00
  C 10.99 178.40 11.86 173.65 12.02 170.89
  A 2.73 2.72 -88.0 0 1 14.77 168.32
  L 23.71 168.41
  Z"
/>
</svg>
