<?xml version="1.0" encoding="UTF-8" standalone="no"?>
<!DOCTYPE svg PUBLIC "-//W3C//DTD SVG 1.1//EN" "http://www.w3.org/Graphics/SVG/1.1/DTD/svg11.dtd">
<svg xmlns="http://www.w3.org/2000/svg" version="1.1" viewBox="0.00 0.00 180.00 180.00">
<g stroke-width="2.00" fill="none" stroke-linecap="butt">
<path stroke="#5a9dff" vector-effect="non-scaling-stroke" d="
  M 68.55 10.98
  L 68.50 53.08"
/>
<path stroke="#b3c6d9" vector-effect="non-scaling-stroke" d="
  M 68.50 53.08
  L 31.72 53.05"
/>
<path stroke="#a6a2cc" vector-effect="non-scaling-stroke" d="
  M 105.44 53.08
  L 69.21 53.08"
/>
<path stroke="#a6b1d9" vector-effect="non-scaling-stroke" d="
  M 69.21 53.08
  L 68.50 53.08"
/>
<path stroke="#ffcaa6" vector-effect="non-scaling-stroke" d="
  M 69.21 53.08
  Q 68.52 53.09 68.52 53.51
  Q 68.55 74.02 68.49 94.68
  Q 68.49 95.23 67.94 95.22
  Q 60.14 95.04 52.77 91.87"
/>
<path stroke="#ffa88d" vector-effect="non-scaling-stroke" d="
  M 84.38 91.88
  Q 77.10 95.02 69.25 95.39
  Q 68.64 95.42 68.64 96.03
  L 68.66 121.74"
/>
<path stroke="#f8d1bd" vector-effect="non-scaling-stroke" d="
  M 68.66 121.74
  Q 68.84 121.31 68.18 121.78"
/>
<path stroke="#fcd8c6" vector-effect="non-scaling-stroke" d="
  M 68.18 121.78
  Q 52.67 120.32 48.06 105.83"
/>
<path stroke="#f26025" vector-effect="non-scaling-stroke" d="
  M 153.60 74.26
  L 153.63 116.26"
/>
<path stroke="#a06459" vector-effect="non-scaling-stroke" d="
  M 153.63 116.26
  Q 153.35 116.59 153.52 116.46"
/>
<path stroke="#a87265" vector-effect="non-scaling-stroke" d="
  M 153.52 116.46
  L 148.41 116.45"
/>
<path stroke="#9f524c" vector-effect="non-scaling-stroke" d="
  M 158.85 116.41
  L 153.63 116.26"
/>
<path stroke="#f8beb1" vector-effect="non-scaling-stroke" d="
  M 89.16 105.75
  Q 84.23 120.69 68.66 121.74"
/>
<path stroke="#f5edea" vector-effect="non-scaling-stroke" d="
  M 68.18 121.78
  L 68.33 137.42"
/>
<path stroke="#b0d3f9" vector-effect="non-scaling-stroke" d="
  M 68.33 137.42
  L 42.81 137.45
  Q 42.26 137.45 42.26 136.90
  L 42.24 106.17"
/>
<path stroke="#9fb7f0" vector-effect="non-scaling-stroke" d="
  M 94.92 106.10
  L 94.92 136.90
  Q 94.92 137.44 94.38 137.44
  L 68.65 137.46"
/>
<path stroke="#abccf0" vector-effect="non-scaling-stroke" d="
  M 68.65 137.46
  Q 68.56 137.49 68.33 137.42"
/>
<path stroke="#5a9dff" vector-effect="non-scaling-stroke" d="
  M 68.65 137.46
  L 68.63 169.03"
/>
<path stroke="#b0d3f9" vector-effect="non-scaling-stroke" d="
  M 21.29 169.03
  Q 20.46 154.42 21.35 150.35
  Q 23.19 141.97 31.13 138.64
  Q 31.61 138.44 31.61 137.92
  L 31.60 108.51"
/>
<path stroke="#9fb7f0" vector-effect="non-scaling-stroke" d="
  M 105.60 108.46
  L 105.54 137.86
  Q 105.54 138.36 106.00 138.56
  Q 112.06 141.16 114.54 146.57
  C 117.08 152.09 116.01 162.19 115.99 169.02"
/>
<path stroke="#55648d" vector-effect="non-scaling-stroke" d="
  M 153.52 116.46
  L 153.65 169.05"
/>
</g>
<path fill="#66b2ff" d="
  M 68.55 10.98
  L 68.50 53.08
  L 31.72 53.05
  C 31.70 45.40 30.81 35.93 33.00 29.19
  Q 36.88 17.26 48.70 12.67
  C 54.62 10.37 62.00 10.82 68.55 10.98
  Z"
/>
<path fill="#4d88ff" d="
  M 68.55 10.98
  C 73.99 11.04 80.24 10.37 85.11 11.63
  Q 100.37 15.57 104.49 30.39
  C 106.27 36.82 105.42 45.72 105.44 53.08
  L 69.21 53.08
  L 68.50 53.08
  L 68.55 10.98
  Z"
/>
<path fill="#ffd9b3" d="
  M 31.72 53.05
  L 68.50 53.08
  L 69.21 53.08
  Q 68.52 53.09 68.52 53.51
  Q 68.55 74.02 68.49 94.68
  Q 68.49 95.23 67.94 95.22
  Q 60.14 95.04 52.77 91.87
  Q 30.46 79.53 31.72 53.05
  Z"
/>
<path fill="#ffbb99" d="
  M 69.21 53.08
  L 105.44 53.08
  Q 107.15 79.57 84.38 91.88
  Q 77.10 95.02 69.25 95.39
  Q 68.64 95.42 68.64 96.03
  L 68.66 121.74
  Q 68.84 121.31 68.18 121.78
  Q 52.67 120.32 48.06 105.83
  C 54.58 104.39 52.74 96.69 52.77 91.87
  Q 60.14 95.04 67.94 95.22
  Q 68.49 95.23 68.49 94.68
  Q 68.55 74.02 68.52 53.51
  Q 68.52 53.09 69.21 53.08
  Z"
/>
<path fill="#f37231" d="
  M 153.60 74.26
  L 153.63 116.26
  Q 153.35 116.59 153.52 116.46
  L 148.41 116.45
  Q 146.14 116.27 143.96 116.29
  C 137.07 116.36 131.23 113.05 128.67 106.87
  Q 127.23 103.40 127.26 94.96
  Q 127.28 87.22 127.24 79.50
  C 127.22 74.92 131.03 74.23 134.98 74.22
  Q 144.23 74.21 153.60 74.26
  Z"
/>
<path fill="#f04e18" d="
  M 153.60 74.26
  Q 171.41 74.00 176.15 74.36
  Q 178.65 74.56 180.00 78.15
  L 180.00 102.94
  Q 177.52 113.43 168.01 115.84
  C 165.23 116.55 161.92 116.28 158.85 116.41
  L 153.63 116.26
  L 153.60 74.26
  Z"
/>
<path fill="#ff9580" d="
  M 84.38 91.88
  C 84.17 97.17 82.88 104.72 89.16 105.75
  Q 84.23 120.69 68.66 121.74
  L 68.64 96.03
  Q 68.64 95.42 69.25 95.39
  Q 77.10 95.02 84.38 91.88
  Z"
/>
<path fill="#f9f4f3" d="
  M 48.06 105.83
  Q 52.67 120.32 68.18 121.78
  L 68.33 137.42
  L 42.81 137.45
  Q 42.26 137.45 42.26 136.90
  L 42.24 106.17
  L 48.06 105.83
  Z"
/>
<path fill="#f0e6e1" d="
  M 89.16 105.75
  L 94.92 106.10
  L 94.92 136.90
  Q 94.92 137.44 94.38 137.44
  L 68.65 137.46
  Q 68.56 137.49 68.33 137.42
  L 68.18 121.78
  Q 68.84 121.31 68.66 121.74
  Q 84.23 120.69 89.16 105.75
  Z"
/>
<path fill="#66b2ff" d="
  M 42.24 106.17
  L 42.26 136.90
  Q 42.26 137.45 42.81 137.45
  L 68.33 137.42
  Q 68.56 137.49 68.65 137.46
  L 68.63 169.03
  L 21.29 169.03
  Q 20.46 154.42 21.35 150.35
  Q 23.19 141.97 31.13 138.64
  Q 31.61 138.44 31.61 137.92
  L 31.60 108.51
  L 42.24 106.17
  Z"
/>
<path fill="#4d88ff" d="
  M 94.92 106.10
  L 105.60 108.46
  L 105.54 137.86
  Q 105.54 138.36 106.00 138.56
  Q 112.06 141.16 114.54 146.57
  C 117.08 152.09 116.01 162.19 115.99 169.02
  L 68.63 169.03
  L 68.65 137.46
  L 94.38 137.44
  Q 94.92 137.44 94.92 136.90
  L 94.92 106.10
  Z"
/>
<path fill="#f9f4f3" d="
  M 31.60 108.51
  L 31.61 137.92
  Q 31.61 138.44 31.13 138.64
  Q 23.19 141.97 21.35 150.35
  Q 20.46 154.42 21.29 169.03
  Q 13.92 169.08 6.22 169.00
  C 2.88 168.97 1.02 167.96 0.00 164.83
  L 0.00 149.78
  Q 3.71 119.79 31.60 108.51
  Z"
/>
<path fill="#f0e6e1" d="
  M 105.60 108.46
  Q 132.04 119.31 136.59 146.34
  C 137.49 151.71 136.92 158.36 137.08 164.21
  A 4.67 4.67 0.0 0 1 132.41 169.00
  L 115.99 169.02
  C 116.01 162.19 117.08 152.09 114.54 146.57
  Q 112.06 141.16 106.00 138.56
  Q 105.54 138.36 105.54 137.86
  L 105.60 108.46
  Z"
/>
<path fill="#5c7199" d="
  M 153.52 116.46
  L 153.65 169.05
  C 149.80 168.93 148.53 166.49 148.49 162.83
  Q 148.25 139.74 148.41 116.45
  L 153.52 116.46
  Z"
/>
<path fill="#4d5680" d="
  M 153.63 116.26
  L 158.85 116.41
  Q 159.02 139.74 158.80 162.83
  C 158.77 166.55 157.60 168.93 153.65 169.05
  L 153.52 116.46
  Q 153.35 116.59 153.63 116.26
  Z"
/>
</svg>
