<?xml version="1.0" encoding="UTF-8" standalone="no"?>
<!DOCTYPE svg PUBLIC "-//W3C//DTD SVG 1.1//EN" "http://www.w3.org/Graphics/SVG/1.1/DTD/svg11.dtd">
<svg xmlns="http://www.w3.org/2000/svg" version="1.1" viewBox="0.00 0.00 180.00 180.00">
<g stroke-width="2.00" fill="none" stroke-linecap="butt">
<path stroke="#ada165" vector-effect="non-scaling-stroke" d="
  M 117.38 4.29
  C 105.24 12.53 103.01 23.18 103.54 36.93"
/>
<path stroke="#a4985c" vector-effect="non-scaling-stroke" d="
  M 103.54 36.93
  L 103.30 40.42"
/>
<path stroke="#b3b895" vector-effect="non-scaling-stroke" d="
  M 103.30 40.42
  C 97.18 31.59 87.87 27.79 77.27 29.97
  Q 61.86 33.13 58.07 50.82"
/>
<path stroke="#ada165" vector-effect="non-scaling-stroke" d="
  M 58.07 50.82
  C 58.00 42.11 59.02 30.27 56.60 23.22
  Q 54.07 15.86 47.13 10.86"
/>
<path stroke="#ada165" vector-effect="non-scaling-stroke" d="
  M 162.15 36.29
  L 162.06 84.26"
/>
<path stroke="#6880a3" vector-effect="non-scaling-stroke" d="
  M 162.06 84.26
  C 141.89 73.78 122.79 89.56 125.10 111.29"
/>
<path stroke="#617c9c" vector-effect="non-scaling-stroke" d="
  M 125.10 111.29
  L 125.07 172.92"
/>
<path stroke="#5a6169" vector-effect="non-scaling-stroke" d="
  M 119.39 175.06
  L 119.37 55.93
  A 1.33 1.31 -75.0 0 0 118.72 54.79
  Q 108.52 48.96 104.89 37.74
  A 0.80 0.80 0.0 0 0 104.37 37.21
  L 103.54 36.93"
/>
<path stroke="#5a6169" vector-effect="non-scaling-stroke" d="
  M 153.62 29.24
  A 20.80 20.80 0.0 0 0 132.82 8.44
  A 20.80 20.80 0.0 0 0 112.02 29.24
  A 20.80 20.80 0.0 0 0 132.82 50.04
  A 20.80 20.80 0.0 0 0 153.62 29.24"
/>
<path stroke="#6880a3" vector-effect="non-scaling-stroke" d="
  M 58.07 50.82
  L 58.05 54.06"
/>
<path stroke="#5f7089" vector-effect="non-scaling-stroke" d="
  M 58.05 54.06
  C 41.61 52.26 28.14 60.70 24.58 76.64
  Q 23.09 83.33 24.06 90.15"
/>
<path stroke="#586980" vector-effect="non-scaling-stroke" d="
  M 24.06 90.15
  Q 23.12 116.47 23.50 141.68
  Q 23.50 141.72 23.31 145.81
  Q 23.20 148.18 23.72 150.83"
/>
<path stroke="#5a6169" vector-effect="non-scaling-stroke" d="
  M 22.13 148.96
  L 21.95 53.78
  A 1.11 1.09 15.3 0 0 21.40 52.83
  Q 12.41 47.67 8.97 36.47"
/>
<path stroke="#5a6169" vector-effect="non-scaling-stroke" d="
  M 50.89 31.34
  A 17.52 17.52 0.0 0 0 33.37 13.82
  A 17.52 17.52 0.0 0 0 15.85 31.34
  A 17.52 17.52 0.0 0 0 33.37 48.86
  A 17.52 17.52 0.0 0 0 50.89 31.34"
/>
<path stroke="#60789a" vector-effect="non-scaling-stroke" d="
  M 103.30 40.42
  Q 107.18 46.70 107.18 52.25
  Q 107.21 115.20 107.22 178.35"
/>
<path stroke="#6587ba" vector-effect="non-scaling-stroke" d="
  M 82.23 179.69
  Q 82.18 131.17 82.23 82.75
  Q 82.24 77.30 79.78 71.36"
/>
<path stroke="#6793cd" vector-effect="non-scaling-stroke" d="
  M 79.78 71.36
  Q 94.94 71.76 99.09 59.46
  C 104.00 44.90 89.26 31.72 75.73 37.70
  Q 64.27 42.77 65.17 56.34"
/>
<path stroke="#6587ba" vector-effect="non-scaling-stroke" d="
  M 65.17 56.34
  L 58.05 54.06"
/>
<path stroke="#5e83b3" vector-effect="non-scaling-stroke" d="
  M 79.78 71.36
  Q 75.15 61.05 65.17 56.34"
/>
<path stroke="#b3b895" vector-effect="non-scaling-stroke" d="
  M 174.59 120.55
  Q 174.36 117.40 174.28 105.25
  Q 174.18 91.74 162.06 84.26"
/>
<path stroke="#a4985c" vector-effect="non-scaling-stroke" d="
  M 8.58 128.14
  L 8.64 51.69"
/>
<path stroke="#557097" vector-effect="non-scaling-stroke" d="
  M 39.34 164.35
  Q 39.67 138.11 39.30 112.26
  C 39.25 108.53 37.64 107.93 34.96 105.98
  Q 28.49 101.29 24.06 90.15"
/>
<path stroke="#557097" vector-effect="non-scaling-stroke" d="
  M 73.71 82.90
  A 20.79 20.79 0.0 0 0 52.92 62.11
  A 20.79 20.79 0.0 0 0 32.13 82.90
  A 20.79 20.79 0.0 0 0 52.92 103.69
  A 20.79 20.79 0.0 0 0 73.71 82.90"
/>
<path stroke="#6793cd" vector-effect="non-scaling-stroke" d="
  M 138.43 165.86
  Q 138.22 147.40 138.35 129.75
  Q 138.37 127.52 137.19 126.79
  C 130.15 122.44 128.46 117.60 125.10 111.29"
/>
<path stroke="#6793cd" vector-effect="non-scaling-stroke" d="
  M 167.19 105.58
  A 17.51 17.51 0.0 0 0 149.68 88.07
  A 17.51 17.51 0.0 0 0 132.17 105.58
  A 17.51 17.51 0.0 0 0 149.68 123.09
  A 17.51 17.51 0.0 0 0 167.19 105.58"
/>
</g>
<path fill="#f7d857" d="
  M 85.41 0.00
  L 94.71 0.00
  Q 106.09 0.75 117.38 4.29
  C 105.24 12.53 103.01 23.18 103.54 36.93
  L 103.30 40.42
  C 97.18 31.59 87.87 27.79 77.27 29.97
  Q 61.86 33.13 58.07 50.82
  C 58.00 42.11 59.02 30.27 56.60 23.22
  Q 54.07 15.86 47.13 10.86
  Q 65.11 1.30 85.41 0.00
  Z"
/>
<path fill="#626972" d="
  M 130.37 0.00
  L 135.47 0.00
  C 151.76 2.72 161.74 13.54 162.00 29.92
  Q 162.05 33.27 162.15 36.29
  L 162.06 84.26
  C 141.89 73.78 122.79 89.56 125.10 111.29
  L 125.07 172.92
  L 119.39 175.06
  L 119.37 55.93
  A 1.33 1.31 -75.0 0 0 118.72 54.79
  Q 108.52 48.96 104.89 37.74
  A 0.80 0.80 0.0 0 0 104.37 37.21
  L 103.54 36.93
  C 103.01 23.18 105.24 12.53 117.38 4.29
  Q 123.19 0.96 130.37 0.00
  Z
  M 153.62 29.24
  A 20.80 20.80 0.0 0 0 132.82 8.44
  A 20.80 20.80 0.0 0 0 112.02 29.24
  A 20.80 20.80 0.0 0 0 132.82 50.04
  A 20.80 20.80 0.0 0 0 153.62 29.24
  Z"
/>
<path fill="#626972" d="
  M 47.13 10.86
  Q 54.07 15.86 56.60 23.22
  C 59.02 30.27 58.00 42.11 58.07 50.82
  L 58.05 54.06
  C 41.61 52.26 28.14 60.70 24.58 76.64
  Q 23.09 83.33 24.06 90.15
  Q 23.12 116.47 23.50 141.68
  Q 23.50 141.72 23.31 145.81
  Q 23.20 148.18 23.72 150.83
  L 22.13 148.96
  L 21.95 53.78
  A 1.11 1.09 15.3 0 0 21.40 52.83
  Q 12.41 47.67 8.97 36.47
  Q 7.25 21.08 17.48 12.67
  C 26.27 5.45 37.44 4.74 47.13 10.86
  Z
  M 50.89 31.34
  A 17.52 17.52 0.0 0 0 33.37 13.82
  A 17.52 17.52 0.0 0 0 15.85 31.34
  A 17.52 17.52 0.0 0 0 33.37 48.86
  A 17.52 17.52 0.0 0 0 50.89 31.34
  Z"
/>
<circle fill="#515860" cx="132.82" cy="29.24" r="20.80"/>
<circle fill="#515860" cx="33.37" cy="31.34" r="17.52"/>
<path fill="#6e97d3" d="
  M 103.30 40.42
  Q 107.18 46.70 107.18 52.25
  Q 107.21 115.20 107.22 178.35
  L 94.36 180.00
  L 85.51 180.00
  L 82.23 179.69
  Q 82.18 131.17 82.23 82.75
  Q 82.24 77.30 79.78 71.36
  Q 94.94 71.76 99.09 59.46
  C 104.00 44.90 89.26 31.72 75.73 37.70
  Q 64.27 42.77 65.17 56.34
  L 58.05 54.06
  L 58.07 50.82
  Q 61.86 33.13 77.27 29.97
  C 87.87 27.79 97.18 31.59 103.30 40.42
  Z"
/>
<path fill="#608ec6" d="
  M 79.78 71.36
  Q 75.15 61.05 65.17 56.34
  Q 64.27 42.77 75.73 37.70
  C 89.26 31.72 104.00 44.90 99.09 59.46
  Q 94.94 71.76 79.78 71.36
  Z"
/>
<path fill="#f7d857" d="
  M 162.15 36.29
  Q 178.40 58.37 180.00 85.68
  L 180.00 94.47
  Q 179.11 107.88 174.59 120.55
  Q 174.36 117.40 174.28 105.25
  Q 174.18 91.74 162.06 84.26
  L 162.15 36.29
  Z"
/>
<path fill="#515860" d="
  M 8.97 36.47
  Q 12.41 47.67 21.40 52.83
  A 1.11 1.09 15.3 0 1 21.95 53.78
  L 22.13 148.96
  Q 13.29 139.17 8.58 128.14
  L 8.64 51.69
  L 8.97 36.47
  Z"
/>
<path fill="#515860" d="
  M 103.54 36.93
  L 104.37 37.21
  A 0.80 0.80 0.0 0 1 104.89 37.74
  Q 108.52 48.96 118.72 54.79
  A 1.33 1.31 -75.0 0 1 119.37 55.93
  L 119.39 175.06
  L 107.22 178.35
  Q 107.21 115.20 107.18 52.25
  Q 107.18 46.70 103.30 40.42
  L 103.54 36.93
  Z"
/>
<path fill="#f7d857" d="
  M 8.64 51.69
  L 8.58 128.14
  Q 1.07 112.17 0.00 94.58
  L 0.00 85.29
  Q 1.11 67.60 8.64 51.69
  Z"
/>
<path fill="#5c77a0" d="
  M 58.05 54.06
  L 65.17 56.34
  Q 75.15 61.05 79.78 71.36
  Q 82.24 77.30 82.23 82.75
  Q 82.18 131.17 82.23 179.69
  Q 58.15 177.30 39.34 164.35
  Q 39.67 138.11 39.30 112.26
  C 39.25 108.53 37.64 107.93 34.96 105.98
  Q 28.49 101.29 24.06 90.15
  Q 23.09 83.33 24.58 76.64
  C 28.14 60.70 41.61 52.26 58.05 54.06
  Z
  M 73.71 82.90
  A 20.79 20.79 0.0 0 0 52.92 62.11
  A 20.79 20.79 0.0 0 0 32.13 82.90
  A 20.79 20.79 0.0 0 0 52.92 103.69
  A 20.79 20.79 0.0 0 0 73.71 82.90
  Z"
/>
<circle fill="#4d688e" cx="52.92" cy="82.90" r="20.79"/>
<path fill="#6e97d3" d="
  M 162.06 84.26
  Q 174.18 91.74 174.28 105.25
  Q 174.36 117.40 174.59 120.55
  Q 164.45 148.71 138.43 165.86
  Q 138.22 147.40 138.35 129.75
  Q 138.37 127.52 137.19 126.79
  C 130.15 122.44 128.46 117.60 125.10 111.29
  C 122.79 89.56 141.89 73.78 162.06 84.26
  Z
  M 167.19 105.58
  A 17.51 17.51 0.0 0 0 149.68 88.07
  A 17.51 17.51 0.0 0 0 132.17 105.58
  A 17.51 17.51 0.0 0 0 149.68 123.09
  A 17.51 17.51 0.0 0 0 167.19 105.58
  Z"
/>
<circle fill="#608ec6" cx="149.68" cy="105.58" r="17.51"/>
<path fill="#4d688e" d="
  M 24.06 90.15
  Q 28.49 101.29 34.96 105.98
  C 37.64 107.93 39.25 108.53 39.30 112.26
  Q 39.67 138.11 39.34 164.35
  Q 30.18 158.24 23.72 150.83
  Q 23.20 148.18 23.31 145.81
  Q 23.50 141.72 23.50 141.68
  Q 23.12 116.47 24.06 90.15
  Z"
/>
<path fill="#608ec6" d="
  M 125.10 111.29
  C 128.46 117.60 130.15 122.44 137.19 126.79
  Q 138.37 127.52 138.35 129.75
  Q 138.22 147.40 138.43 165.86
  Q 132.84 169.63 125.07 172.92
  L 125.10 111.29
  Z"
/>
</svg>
