<?xml version="1.0" encoding="UTF-8" standalone="no"?>
<!DOCTYPE svg PUBLIC "-//W3C//DTD SVG 1.1//EN" "http://www.w3.org/Graphics/SVG/1.1/DTD/svg11.dtd">
<svg xmlns="http://www.w3.org/2000/svg" version="1.1" viewBox="0.00 0.00 180.00 180.00">
<g stroke-width="2.00" fill="none" stroke-linecap="butt">
<path stroke="#69b0e9" vector-effect="non-scaling-stroke" d="
  M 43.59 0.00
  L 43.60 24.46"
/>
<path stroke="#398bcb" vector-effect="non-scaling-stroke" d="
  M 43.60 24.46
  L 18.83 24.44"
/>
<path stroke="#4993ce" vector-effect="non-scaling-stroke" d="
  M 68.37 24.43
  L 43.60 24.46"
/>
<path stroke="#1b77be" vector-effect="non-scaling-stroke" d="
  M 74.52 36.96
  L 12.57 36.96"
/>
<path stroke="#4a9cdc" vector-effect="non-scaling-stroke" d="
  M 68.41 49.98
  Q 68.31 49.68 68.14 49.51
  Q 67.99 49.36 67.65 49.36
  Q 55.26 49.42 43.46 49.44"
/>
<path stroke="#3b94d9" vector-effect="non-scaling-stroke" d="
  M 43.46 49.44
  L 18.76 49.44"
/>
<path stroke="#69b0e9" vector-effect="non-scaling-stroke" d="
  M 43.46 49.44
  L 43.52 88.33
  A 1.40 1.39 -90.0 0 0 44.91 89.73
  L 83.74 89.66"
/>
<path stroke="#398bcb" vector-effect="non-scaling-stroke" d="
  M 83.74 89.66
  L 83.78 114.48"
/>
<path stroke="#4993ce" vector-effect="non-scaling-stroke" d="
  M 83.74 64.87
  L 83.74 89.66"
/>
<path stroke="#4993ce" vector-effect="non-scaling-stroke" d="
  M 96.41 64.82
  L 96.33 89.50"
/>
<path stroke="#398bcb" vector-effect="non-scaling-stroke" d="
  M 96.33 89.50
  L 96.37 114.50"
/>
<path stroke="#4a9cdc" vector-effect="non-scaling-stroke" d="
  M 161.48 129.74
  L 136.68 129.80"
/>
<path stroke="#69b0e9" vector-effect="non-scaling-stroke" d="
  M 136.68 129.80
  L 136.72 90.27
  Q 136.72 89.66 136.11 89.66
  L 96.33 89.50"
/>
<path stroke="#3b94d9" vector-effect="non-scaling-stroke" d="
  M 136.68 129.80
  L 111.87 129.84"
/>
<path stroke="#1b77be" vector-effect="non-scaling-stroke" d="
  M 167.70 142.28
  L 105.70 142.32"
/>
<path stroke="#4993ce" vector-effect="non-scaling-stroke" d="
  M 161.47 154.85
  L 136.58 154.89"
/>
<path stroke="#398bcb" vector-effect="non-scaling-stroke" d="
  M 136.58 154.89
  L 111.92 154.87"
/>
<path stroke="#69b0e9" vector-effect="non-scaling-stroke" d="
  M 136.58 154.89
  L 136.59 179.57"
/>
</g>
<path fill="#59a8e6" d="
  M 18.79 0.00
  L 43.59 0.00
  L 43.60 24.46
  L 18.83 24.44
  L 18.79 0.00
  Z"
/>
<path fill="#78b8eb" d="
  M 43.59 0.00
  L 68.42 0.00
  L 68.37 24.43
  L 43.60 24.46
  L 43.59 0.00
  Z"
/>
<path fill="#196eb0" d="
  M 18.83 24.44
  L 43.60 24.46
  L 68.37 24.43
  L 80.26 24.49
  Q 80.78 24.49 80.78 25.01
  L 80.79 36.45
  Q 80.79 36.90 80.34 36.90
  L 74.52 36.96
  L 12.57 36.96
  L 6.97 36.89
  Q 6.34 36.88 6.34 36.25
  L 6.33 25.01
  A 0.53 0.52 -0.6 0 1 6.85 24.49
  L 18.83 24.44
  Z"
/>
<path fill="#1c7fcc" d="
  M 74.52 36.96
  L 74.53 48.73
  Q 74.53 49.27 74.00 49.27
  L 68.97 49.27
  Q 68.56 49.27 68.41 49.65
  Q 68.34 49.83 68.41 49.98
  Q 68.31 49.68 68.14 49.51
  Q 67.99 49.36 67.65 49.36
  Q 55.26 49.42 43.46 49.44
  L 18.76 49.44
  L 13.09 49.25
  Q 12.56 49.24 12.56 48.71
  L 12.57 36.96
  L 74.52 36.96
  Z"
/>
<path fill="#59a8e6" d="
  M 43.46 49.44
  L 43.52 88.33
  A 1.40 1.39 -90.0 0 0 44.91 89.73
  L 83.74 89.66
  L 83.78 114.48
  Q 54.55 114.50 25.50 114.48
  C 19.33 114.48 18.76 110.16 18.76 104.88
  Q 18.73 77.27 18.76 49.44
  L 43.46 49.44
  Z"
/>
<path fill="#78b8eb" d="
  M 68.41 49.98
  L 68.43 64.22
  Q 68.43 64.79 69.00 64.79
  L 83.74 64.87
  L 83.74 89.66
  L 44.91 89.73
  A 1.40 1.39 90.0 0 1 43.52 88.33
  L 43.46 49.44
  Q 55.26 49.42 67.65 49.36
  Q 67.99 49.36 68.14 49.51
  Q 68.31 49.68 68.41 49.98
  Z"
/>
<path fill="#196eb0" d="
  M 96.41 64.82
  L 96.33 89.50
  L 96.37 114.50
  L 96.28 120.18
  Q 96.27 120.69 95.76 120.69
  L 84.49 120.69
  Q 83.97 120.69 83.95 120.17
  L 83.78 114.48
  L 83.74 89.66
  L 83.74 64.87
  L 83.92 59.20
  Q 83.94 58.62 84.52 58.62
  L 95.73 58.63
  Q 96.28 58.63 96.29 59.17
  L 96.41 64.82
  Z"
/>
<path fill="#78b8eb" d="
  M 96.41 64.82
  Q 126.06 64.81 154.75 64.82
  Q 161.33 64.82 161.37 71.75
  Q 161.53 100.44 161.48 129.74
  L 136.68 129.80
  L 136.72 90.27
  Q 136.72 89.66 136.11 89.66
  L 96.33 89.50
  L 96.41 64.82
  Z"
/>
<path fill="#59a8e6" d="
  M 96.33 89.50
  L 136.11 89.66
  Q 136.72 89.66 136.72 90.27
  L 136.68 129.80
  L 111.87 129.84
  L 111.81 115.06
  Q 111.81 114.51 111.26 114.51
  L 96.37 114.50
  L 96.33 89.50
  Z"
/>
<path fill="#1c7fcc" d="
  M 161.48 129.74
  L 167.16 129.99
  Q 167.69 130.01 167.69 130.54
  L 167.70 142.28
  L 105.70 142.32
  L 105.73 130.56
  Q 105.73 130.01 106.27 130.00
  L 111.87 129.84
  L 136.68 129.80
  L 161.48 129.74
  Z"
/>
<path fill="#196eb0" d="
  M 105.70 142.32
  L 167.70 142.28
  L 173.34 142.43
  Q 173.90 142.45 173.90 143.01
  L 173.92 154.24
  Q 173.92 154.80 173.36 154.80
  L 161.47 154.85
  L 136.58 154.89
  L 111.92 154.87
  L 100.02 154.79
  Q 99.47 154.79 99.47 154.24
  L 99.48 143.01
  Q 99.48 142.50 100.00 142.48
  L 105.70 142.32
  Z"
/>
<path fill="#59a8e6" d="
  M 136.58 154.89
  L 136.59 179.57
  L 112.48 179.58
  Q 111.91 179.58 111.91 179.01
  L 111.92 154.87
  L 136.58 154.89
  Z"
/>
<path fill="#78b8eb" d="
  M 161.47 154.85
  L 161.47 178.99
  Q 161.47 179.55 160.91 179.55
  L 136.59 179.57
  L 136.58 154.89
  L 161.47 154.85
  Z"
/>
</svg>
