<?xml version="1.0" encoding="UTF-8" standalone="no"?>
<!DOCTYPE svg PUBLIC "-//W3C//DTD SVG 1.1//EN" "http://www.w3.org/Graphics/SVG/1.1/DTD/svg11.dtd">
<svg xmlns="http://www.w3.org/2000/svg" version="1.1" viewBox="0.00 0.00 180.00 180.00">
<g stroke-width="2.00" fill="none" stroke-linecap="butt">
<path stroke="#a8dcee" vector-effect="non-scaling-stroke" d="
  M 60.58 78.47
  L 17.41 78.45"
/>
<path stroke="#67a0ba" vector-effect="non-scaling-stroke" d="
  M 72.99 89.75
  L 168.57 89.76"
/>
<path stroke="#a8dcee" vector-effect="non-scaling-stroke" d="
  M 168.64 99.82
  L 69.70 99.87"
/>
<path stroke="#67a0ba" vector-effect="non-scaling-stroke" d="
  M 69.70 99.87
  L 21.50 99.93"
/>
<path stroke="#4290b5" vector-effect="non-scaling-stroke" d="
  M 111.32 134.28
  C 92.12 131.73 74.47 119.29 69.70 99.87"
/>
</g>
<path fill="#83cce9" d="
  M 60.58 78.47
  L 17.41 78.45
  C 12.99 76.66 11.49 74.01 11.48 69.10
  Q 11.42 42.09 11.48 15.12
  Q 11.49 10.72 12.78 8.66
  Q 14.89 5.29 19.25 5.28
  Q 37.91 5.25 56.56 5.30
  C 63.75 5.31 66.65 7.97 66.65 15.00
  Q 66.64 42.13 66.66 69.26
  Q 66.66 75.97 60.58 78.47
  Z"
/>
<path fill="#cdebf3" d="
  M 60.58 78.47
  C 66.65 79.74 66.60 83.97 66.65 89.19
  Q 66.66 89.74 67.21 89.74
  L 72.99 89.75
  L 168.57 89.76
  L 168.64 99.82
  L 69.70 99.87
  L 21.50 99.93
  L 12.01 100.01
  Q 11.49 100.01 11.49 99.50
  Q 11.44 93.38 11.47 87.34
  C 11.49 82.51 12.57 79.55 17.41 78.45
  L 60.58 78.47
  Z"
/>
<path fill="#005480" d="
  M 168.57 89.76
  L 72.99 89.75
  C 75.33 81.86 80.91 78.78 88.96 78.75
  Q 120.74 78.64 152.50 78.76
  C 160.59 78.79 166.22 81.80 168.57 89.76
  Z"
/>
<path fill="#83cce9" d="
  M 168.64 99.82
  C 161.95 125.20 136.05 137.46 111.32 134.28
  C 92.12 131.73 74.47 119.29 69.70 99.87
  L 168.64 99.82
  Z"
/>
<path fill="#005480" d="
  M 21.50 99.93
  L 69.70 99.87
  C 74.47 119.29 92.12 131.73 111.32 134.28
  Q 111.37 148.25 111.27 161.75
  C 111.24 165.81 108.01 172.35 103.78 174.00
  Q 101.86 174.75 96.64 174.75
  Q 63.88 174.73 31.12 174.72
  Q 28.82 174.72 26.00 171.98
  Q 21.33 167.44 21.36 159.25
  Q 21.46 129.72 21.50 99.93
  Z"
/>
</svg>
