<?xml version="1.0" encoding="UTF-8" standalone="no"?>
<!DOCTYPE svg PUBLIC "-//W3C//DTD SVG 1.1//EN" "http://www.w3.org/Graphics/SVG/1.1/DTD/svg11.dtd">
<svg xmlns="http://www.w3.org/2000/svg" version="1.1" viewBox="0.00 0.00 980.00 980.00">
<g stroke-width="2.00" fill="none" stroke-linecap="butt">
<path stroke="#808080" vector-effect="non-scaling-stroke" d="
  M 417.67 165.92
  A 0.41 0.41 0.0 0 1 417.26 165.51
  L 417.24 144.22
  A 0.41 0.41 0.0 0 0 416.83 143.81
  L 375.86 143.79
  A 0.41 0.41 0.0 0 0 375.45 144.20
  L 375.38 165.52
  A 0.41 0.41 0.0 0 1 374.97 165.93
  L 364.82 165.81
  A 0.41 0.41 0.0 0 0 364.41 166.22
  L 364.40 286.84
  A 0.41 0.41 0.0 0 1 363.99 287.25
  L 342.72 287.23
  A 0.41 0.41 0.0 0 0 342.31 287.64
  L 342.33 339.59
  A 0.41 0.41 0.0 0 0 342.74 340.00
  L 363.97 339.98
  A 0.41 0.41 0.0 0 1 364.38 340.39
  L 364.41 350.61
  A 0.41 0.41 0.0 0 0 364.82 351.02
  L 375.03 350.99
  A 0.41 0.41 0.0 0 1 375.44 351.40
  L 375.41 361.65
  A 0.41 0.41 0.0 0 0 375.82 362.06
  L 386.00 361.98
  A 0.41 0.41 0.0 0 1 386.41 362.39
  L 386.45 372.76
  A 0.41 0.41 0.0 0 0 386.86 373.17
  L 397.10 373.12
  A 0.41 0.41 0.0 0 1 397.51 373.53
  L 397.50 383.76
  A 0.41 0.41 0.0 0 0 397.91 384.17
  L 408.09 384.19
  A 0.41 0.41 0.0 0 1 408.50 384.60
  L 408.51 394.83
  A 0.41 0.41 0.0 0 0 408.92 395.24
  L 419.10 395.15
  A 0.41 0.41 0.0 0 1 419.51 395.56
  L 419.49 405.77
  A 0.41 0.41 0.0 0 0 419.90 406.18
  L 430.10 406.19
  A 0.41 0.41 0.0 0 1 430.51 406.60
  L 430.50 427.85
  A 0.41 0.41 0.0 0 0 430.91 428.26
  L 441.16 428.25
  A 0.41 0.41 0.0 0 1 441.57 428.66
  L 441.53 438.85
  A 0.41 0.41 0.0 0 0 441.94 439.26
  L 452.16 439.25
  A 0.41 0.41 0.0 0 1 452.57 439.66
  L 452.55 471.93
  A 0.41 0.41 0.0 0 0 452.96 472.34
  L 463.16 472.31
  A 0.41 0.41 0.0 0 1 463.57 472.72
  L 463.56 485.30
  A 0.41 0.41 0.0 0 1 463.15 485.71
  L 441.96 485.63
  A 0.41 0.41 0.0 0 0 441.55 486.04
  L 441.55 760.89
  A 0.41 0.41 0.0 0 1 441.14 761.30
  L 430.91 761.27
  A 0.41 0.41 0.0 0 0 430.50 761.68
  L 430.50 802.63
  A 0.41 0.41 0.0 0 0 430.91 803.04
  L 441.15 803.00
  A 0.41 0.41 0.0 0 1 441.56 803.41
  L 441.54 835.76
  A 0.41 0.41 0.0 0 0 441.95 836.17
  L 452.13 836.18
  A 0.41 0.41 0.0 0 1 452.54 836.59
  L 452.54 846.73
  A 0.41 0.41 0.0 0 0 452.95 847.14
  L 463.19 847.16
  A 0.41 0.41 0.0 0 1 463.60 847.57
  L 463.54 857.85
  A 0.41 0.41 0.0 0 0 463.95 858.26
  L 474.13 858.27
  A 0.41 0.41 0.0 0 1 474.54 858.68
  L 474.51 868.84
  A 0.41 0.41 0.0 0 0 474.92 869.25
  L 549.09 869.25
  A 0.41 0.41 0.0 0 0 549.50 868.84
  L 549.50 858.67
  A 0.41 0.41 0.0 0 1 549.91 858.26
  L 571.09 858.25
  A 0.41 0.41 0.0 0 0 571.50 857.84
  L 571.50 847.42
  A 0.41 0.41 0.0 0 1 571.92 847.01
  L 582.07 847.16
  A 0.41 0.41 0.0 0 0 582.49 846.75
  L 582.51 825.51
  A 0.41 0.41 0.0 0 1 582.92 825.10
  L 593.19 825.18
  A 0.41 0.41 0.0 0 0 593.60 824.77
  L 593.60 519.09
  A 0.41 0.41 0.0 0 0 593.19 518.68
  L 582.91 518.71
  A 0.41 0.41 0.0 0 1 582.50 518.30
  L 582.50 452.93
  A 0.41 0.41 0.0 0 0 582.09 452.52
  L 560.90 452.54
  A 0.41 0.41 0.0 0 1 560.50 452.19
  L 560.28 450.74
  A 0.41 0.41 0.0 0 1 560.69 450.27
  L 571.09 450.26
  A 0.41 0.41 0.0 0 0 571.50 449.85
  L 571.49 406.49
  A 0.41 0.41 0.0 0 1 571.90 406.08
  L 582.09 406.16
  A 0.41 0.41 0.0 0 0 582.50 405.75
  L 582.51 373.53
  A 0.41 0.41 0.0 0 1 582.92 373.12
  L 593.18 373.14
  A 0.41 0.41 0.0 0 0 593.59 372.73
  L 593.57 340.38
  A 0.41 0.41 0.0 0 1 593.98 339.97
  L 604.17 340.03
  A 0.41 0.41 0.0 0 0 604.58 339.62
  L 604.61 318.26
  A 0.41 0.41 0.0 0 1 605.02 317.85
  L 615.20 317.87
  A 0.41 0.41 0.0 0 0 615.61 317.46
  L 615.63 296.21
  A 0.41 0.41 0.0 0 1 616.04 295.80
  L 626.19 295.88
  A 0.41 0.41 0.0 0 0 626.60 295.47
  L 626.61 188.40
  A 0.41 0.41 0.0 0 0 626.20 187.99
  L 616.03 188.02
  A 0.41 0.41 0.0 0 1 615.62 187.61
  L 615.61 166.25
  A 0.41 0.41 0.0 0 0 615.20 165.84
  L 605.03 165.90
  A 0.41 0.41 0.0 0 1 604.62 165.49
  L 604.58 155.25
  A 0.41 0.41 0.0 0 0 604.17 154.84
  L 593.99 154.82
  A 0.41 0.41 0.0 0 1 593.58 154.41
  L 593.60 144.23
  A 0.41 0.41 0.0 0 0 593.19 143.82
  L 582.92 143.83
  A 0.41 0.41 0.0 0 1 582.51 143.42
  L 582.50 133.27
  A 0.41 0.41 0.0 0 0 582.09 132.86
  L 571.90 132.84
  A 0.41 0.41 0.0 0 1 571.49 132.43
  L 571.50 122.14
  A 0.41 0.41 0.0 0 0 571.09 121.73
  L 560.91 121.76
  A 0.41 0.41 0.0 0 1 560.50 121.35
  L 560.50 100.13
  A 0.41 0.41 0.0 0 0 560.09 99.72
  L 497.12 99.74
  A 0.41 0.41 0.0 0 0 496.71 100.15
  L 496.71 141.09
  A 0.41 0.41 0.0 0 0 497.12 141.50
  L 507.24 141.50
  A 0.41 0.41 0.0 0 1 507.65 141.91
  L 507.67 163.18
  A 0.41 0.41 0.0 0 0 508.08 163.59
  L 518.26 163.56
  A 0.41 0.41 0.0 0 1 518.67 163.97
  L 518.72 196.31
  A 0.41 0.41 0.0 0 0 519.13 196.72
  L 529.35 196.71
  A 0.41 0.41 0.0 0 1 529.76 197.12
  L 529.75 220.80
  A 0.41 0.41 0.0 0 1 529.33 221.21
  L 519.11 221.06
  A 0.41 0.41 0.0 0 0 518.69 221.47
  L 518.71 231.79
  A 0.41 0.41 0.0 0 1 518.30 232.20
  L 497.12 232.11
  A 0.41 0.41 0.0 0 0 496.71 232.52
  L 496.68 242.76
  A 0.41 0.41 0.0 0 1 496.27 243.17
  L 450.68 243.14
  A 0.41 0.41 0.0 0 1 450.27 242.73
  L 450.24 221.52
  A 0.41 0.41 0.0 0 0 449.83 221.11
  L 439.66 221.18
  A 0.41 0.41 0.0 0 1 439.25 220.77
  L 439.25 188.40
  A 0.41 0.41 0.0 0 0 438.84 187.99
  L 428.67 188.00
  A 0.41 0.41 0.0 0 1 428.26 187.59
  L 428.26 166.22
  A 0.41 0.41 0.0 0 0 427.85 165.81
  L 417.67 165.92"
/>
<path stroke="#808080" vector-effect="non-scaling-stroke" d="
  M 517.49 132.07
  L 517.51 142.67"
/>
<path stroke="#464c4e" vector-effect="non-scaling-stroke" d="
  M 517.51 142.67
  L 517.52 153.29
  Q 517.53 153.78 518.01 153.78
  L 528.01 153.77
  Q 528.49 153.77 528.49 154.26
  L 528.50 186.29
  Q 528.50 186.83 529.04 186.83
  L 538.79 186.91
  A 0.75 0.74 0.8 0 1 539.53 187.66
  L 539.53 220.08"
/>
<path stroke="#808080" vector-effect="non-scaling-stroke" d="
  M 539.53 220.08
  L 539.53 231.20"
/>
<path stroke="#464c4e" vector-effect="non-scaling-stroke" d="
  M 539.53 231.20
  L 529.13 231.03
  Q 528.56 231.02 528.56 231.60
  L 528.60 241.79"
/>
<path stroke="#808080" vector-effect="non-scaling-stroke" d="
  M 528.60 241.79
  L 517.69 241.84"
/>
<path stroke="#464c4e" vector-effect="non-scaling-stroke" d="
  M 517.69 241.84
  L 507.12 241.81
  Q 506.57 241.81 506.55 242.36
  Q 506.38 247.07 506.52 251.63
  Q 506.55 252.47 506.13 252.71
  Q 505.66 252.98 504.78 252.85"
/>
<path stroke="#808080" vector-effect="non-scaling-stroke" d="
  M 504.78 252.85
  L 484.68 252.88"
/>
<path stroke="#464c4e" vector-effect="non-scaling-stroke" d="
  M 484.68 252.88
  L 474.01 252.83
  Q 473.43 252.83 473.42 253.41
  L 473.28 263.93"
/>
<path stroke="#808080" vector-effect="non-scaling-stroke" d="
  M 473.28 263.93
  L 462.88 263.85
  Q 462.46 263.85 462.46 264.27
  L 462.37 274.46
  Q 462.36 275.01 461.81 275.01
  L 440.35 274.95"
/>
<path stroke="#0a181c" vector-effect="non-scaling-stroke" d="
  M 440.35 274.95
  L 440.31 264.51
  Q 440.31 263.89 439.69 263.90
  L 429.30 264.00"
/>
<path stroke="#545959" vector-effect="non-scaling-stroke" d="
  M 429.30 264.00
  L 429.23 252.71"
/>
<path stroke="#2d3639" vector-effect="non-scaling-stroke" d="
  M 429.23 252.71
  L 439.88 252.84
  Q 440.50 252.85 440.50 252.23
  L 440.46 231.54
  A 0.67 0.67 0.0 0 0 439.79 230.87
  L 429.96 230.95
  Q 429.46 230.95 429.46 230.46
  L 429.47 198.32
  A 0.65 0.64 -0.0 0 0 428.82 197.68
  L 419.00 197.75
  Q 418.51 197.76 418.51 197.27
  L 418.49 186.67"
/>
<path stroke="#464c4e" vector-effect="non-scaling-stroke" d="
  M 418.49 186.67
  L 418.44 176.19
  Q 418.44 175.71 417.96 175.72
  L 407.99 175.74
  Q 407.48 175.74 407.48 175.23
  L 407.49 154.22
  Q 407.49 153.71 406.97 153.71
  L 385.75 153.72
  Q 385.22 153.72 385.22 154.25
  L 385.25 175.24
  A 0.50 0.49 -90.0 0 1 384.76 175.74
  L 374.76 175.73
  Q 374.25 175.73 374.25 176.24
  L 374.25 252.51"
/>
<path stroke="#2d3639" vector-effect="non-scaling-stroke" d="
  M 374.25 252.51
  L 374.18 296.96"
/>
<path stroke="#464c4e" vector-effect="non-scaling-stroke" d="
  M 374.18 296.96
  L 352.64 296.98
  A 0.52 0.52 0.0 0 0 352.12 297.50
  L 352.16 329.71
  Q 352.16 330.26 352.71 330.26
  L 373.74 330.23
  Q 374.25 330.23 374.25 330.74
  L 374.24 340.72
  Q 374.24 341.34 374.85 341.33
  L 384.92 341.25"
/>
<path stroke="#242c2d" vector-effect="non-scaling-stroke" d="
  M 384.92 341.25
  L 385.11 351.35
  A 0.97 0.96 -0.6 0 0 386.08 352.29
  L 396.19 352.24"
/>
<path stroke="#3d4143" vector-effect="non-scaling-stroke" d="
  M 396.19 352.24
  L 396.18 362.83
  A 0.54 0.54 0.0 0 0 396.73 363.37
  L 406.52 363.22
  Q 407.34 363.21 407.33 364.02
  L 407.25 373.85
  A 0.59 0.59 0.0 0 0 407.85 374.45
  L 417.80 374.32
  Q 418.28 374.32 418.28 374.80
  L 418.27 384.24
  A 1.19 1.18 -0.7 0 0 419.49 385.42
  L 428.75 385.21
  A 0.60 0.60 0.0 0 1 429.36 385.81
  L 429.27 395.43
  Q 429.27 396.35 430.18 396.34
  L 439.78 396.23
  Q 440.34 396.23 440.34 396.78
  L 440.24 417.99
  Q 440.24 418.49 440.74 418.48
  L 450.78 418.42
  A 0.61 0.60 -90.0 0 1 451.38 419.03
  L 451.37 428.45
  A 1.07 1.07 0.0 0 0 452.45 429.52
  L 461.73 429.42
  Q 462.30 429.42 462.30 429.98
  L 462.44 462.03
  Q 462.44 462.62 463.03 462.61
  L 472.76 462.45
  Q 473.39 462.44 473.39 463.07
  L 473.37 473.35"
/>
<path stroke="#0a181c" vector-effect="non-scaling-stroke" d="
  M 473.37 473.35
  L 473.34 484.70"
/>
<path stroke="#242c2d" vector-effect="non-scaling-stroke" d="
  M 473.34 484.70
  L 473.25 495.48"
/>
<path stroke="#7f726d" vector-effect="non-scaling-stroke" d="
  M 473.25 495.48
  L 462.47 495.51"
/>
<path stroke="#4e0100" vector-effect="non-scaling-stroke" d="
  M 462.47 495.51
  L 451.84 495.54
  Q 451.48 495.54 451.48 495.89
  L 451.43 769.61
  Q 451.43 771.16 449.89 771.12
  L 440.80 770.94
  A 0.51 0.51 0.0 0 0 440.28 771.45
  L 440.26 792.48
  Q 440.26 793.20 440.98 793.21
  L 450.33 793.26
  Q 451.39 793.27 451.39 794.33
  L 451.54 825.43
  A 0.89 0.88 89.4 0 0 452.43 826.31
  L 461.08 826.22
  A 1.37 1.37 0.0 0 1 462.46 827.58
  L 462.48 836.73
  Q 462.48 837.22 462.98 837.24
  L 472.74 837.51
  A 0.72 0.71 -88.8 0 1 473.43 838.24
  L 473.22 847.31
  A 0.87 0.87 0.0 0 0 474.06 848.20
  L 483.13 848.45
  A 0.96 0.96 0.0 0 1 484.07 849.38
  L 484.42 858.84
  Q 484.44 859.39 484.98 859.39
  L 538.99 859.43
  Q 539.66 859.44 539.66 858.77
  L 539.76 849.50
  A 1.00 1.00 0.0 0 1 540.75 848.51
  L 561.19 848.36
  Q 561.72 848.36 561.72 847.82
  L 561.73 838.11
  Q 561.73 837.44 562.39 837.43
  L 571.60 837.31
  Q 572.75 837.29 572.75 836.14
  L 572.78 816.08
  A 0.65 0.64 -0.9 0 1 573.41 815.44
  L 582.92 815.26
  A 0.94 0.93 -0.6 0 0 583.84 814.33
  L 583.83 529.26
  A 1.09 1.09 0.0 0 0 582.55 528.19
  Q 577.81 529.01 572.88 527.91"
/>
<path stroke="#800000" vector-effect="non-scaling-stroke" d="
  M 572.88 527.91
  L 572.60 507.31"
/>
<path stroke="#4e0100" vector-effect="non-scaling-stroke" d="
  M 572.60 507.31
  L 572.75 463.01
  Q 572.75 462.47 572.22 462.47
  L 559.63 462.32"
/>
<path stroke="#800000" vector-effect="non-scaling-stroke" d="
  M 559.63 462.32
  L 551.16 462.45
  Q 550.61 462.46 550.60 463.01
  L 550.41 473.46"
/>
<path stroke="#242c2d" vector-effect="non-scaling-stroke" d="
  M 550.41 473.46
  L 539.31 473.17"
/>
<path stroke="#0a181c" vector-effect="non-scaling-stroke" d="
  M 539.31 473.17
  L 539.43 463.98
  A 1.42 1.41 2.3 0 1 540.94 462.59
  Q 545.38 462.89 549.71 461.98
  A 1.02 1.01 85.0 0 0 550.52 461.01
  L 550.73 451.31"
/>
<path stroke="#242c2d" vector-effect="non-scaling-stroke" d="
  M 550.73 451.31
  L 550.76 440.85
  Q 550.76 440.40 551.21 440.40
  L 560.68 440.32
  A 0.91 0.91 0.0 0 0 561.58 439.41
  L 561.71 396.59"
/>
<path stroke="#0a181c" vector-effect="non-scaling-stroke" d="
  M 561.71 396.59
  Q 561.49 397.28 563.20 396.25"
/>
<path stroke="#242c2d" vector-effect="non-scaling-stroke" d="
  M 563.20 396.25
  L 572.18 396.25
  Q 572.73 396.25 572.73 395.70
  Q 572.64 380.28 572.65 364.96
  Q 572.65 364.04 573.10 363.73
  Q 573.60 363.39 574.55 363.36"
/>
<path stroke="#545959" vector-effect="non-scaling-stroke" d="
  M 574.55 363.36
  L 583.15 363.33
  Q 583.75 363.33 583.75 362.72
  L 583.72 352.09"
/>
<path stroke="#242c2d" vector-effect="non-scaling-stroke" d="
  M 583.72 352.09
  L 583.82 340.95"
/>
<path stroke="#0a181c" vector-effect="non-scaling-stroke" d="
  M 583.82 340.95
  Q 583.33 335.23 584.33 330.20"
/>
<path stroke="#242c2d" vector-effect="non-scaling-stroke" d="
  M 584.33 330.20
  L 594.20 330.19
  Q 594.80 330.19 594.80 329.59
  L 594.85 308.62
  A 0.59 0.59 0.0 0 1 595.44 308.03
  L 605.22 308.08
  Q 605.77 308.09 605.77 307.53
  L 605.74 286.73
  A 0.77 0.76 0.4 0 1 606.52 285.97
  L 616.25 286.19
  Q 616.72 286.20 616.72 285.73
  L 616.79 275.16"
/>
<path stroke="#0a181c" vector-effect="non-scaling-stroke" d="
  M 616.79 275.16
  L 616.84 252.72"
/>
<path stroke="#242c2d" vector-effect="non-scaling-stroke" d="
  M 616.84 252.72
  L 616.74 241.85"
/>
<path stroke="#808080" vector-effect="non-scaling-stroke" d="
  M 616.74 241.85
  L 616.74 230.84"
/>
<path stroke="#464c4e" vector-effect="non-scaling-stroke" d="
  M 616.74 230.84
  L 616.74 198.28
  Q 616.74 197.74 616.19 197.72
  L 605.57 197.35"
/>
<path stroke="#808080" vector-effect="non-scaling-stroke" d="
  M 605.57 197.35
  L 605.69 186.81"
/>
<path stroke="#464c4e" vector-effect="non-scaling-stroke" d="
  M 605.69 186.81
  L 605.75 176.21
  Q 605.75 175.71 605.25 175.71
  L 595.42 175.69
  A 0.65 0.64 0.0 0 1 594.77 175.05
  L 594.79 165.01
  Q 594.79 164.58 594.36 164.58
  L 583.69 164.56"
/>
<path stroke="#808080" vector-effect="non-scaling-stroke" d="
  M 583.69 164.56
  L 583.72 154.18
  Q 583.72 153.69 583.23 153.69
  L 573.22 153.73
  Q 572.71 153.73 572.71 153.22
  L 572.68 143.26
  Q 572.68 142.68 572.09 142.68
  L 561.74 142.68"
/>
<path stroke="#464c4e" vector-effect="non-scaling-stroke" d="
  M 561.74 142.68
  L 561.71 132.00
  Q 561.71 131.51 561.22 131.51
  L 551.75 131.51
  Q 550.74 131.51 550.74 130.50
  L 550.75 110.01
  Q 550.75 109.51 550.25 109.51
  L 528.63 109.53"
/>
<path stroke="#0a181c" vector-effect="non-scaling-stroke" d="
  M 528.63 109.53
  L 507.17 109.56
  A 0.70 0.70 0.0 0 0 506.47 110.26
  L 506.48 131.14
  Q 506.48 131.79 507.14 131.78
  L 516.54 131.68
  Q 516.86 131.68 517.12 131.88
  Q 517.28 132.01 517.49 132.07"
/>
<path stroke="#50636a" vector-effect="non-scaling-stroke" d="
  M 528.63 109.53
  L 528.61 131.59"
/>
<path stroke="#8a979b" vector-effect="non-scaling-stroke" d="
  M 528.61 131.59
  Q 523.79 131.65 518.50 131.52
  Q 517.89 131.50 517.49 132.07"
/>
<path stroke="#c6cbce" vector-effect="non-scaling-stroke" d="
  M 561.74 142.68
  L 550.86 142.72
  A 0.48 0.47 0.0 0 1 550.38 142.25
  L 550.41 132.27
  Q 550.41 131.68 549.82 131.68
  L 528.61 131.59"
/>
<path stroke="#c6cbce" vector-effect="non-scaling-stroke" d="
  M 583.69 164.56
  L 583.61 175.28
  Q 583.61 175.81 584.14 175.81
  L 593.91 175.75
  A 0.68 0.68 0.0 0 1 594.59 176.42
  L 594.66 186.30
  Q 594.67 186.71 595.09 186.72
  L 605.69 186.81"
/>
<path stroke="#c6cbce" vector-effect="non-scaling-stroke" d="
  M 605.57 197.35
  L 605.58 230.51
  Q 605.58 231.08 606.15 231.07
  L 616.74 230.84"
/>
<path stroke="#a3abac" vector-effect="non-scaling-stroke" d="
  M 616.74 241.85
  L 606.06 241.79
  Q 605.53 241.79 605.53 242.32
  L 605.56 252.06"
/>
<path stroke="#bdc1c3" vector-effect="non-scaling-stroke" d="
  M 605.56 252.06
  Q 605.35 252.74 604.00 252.75
  Q 593.70 252.77 583.22 252.74"
/>
<path stroke="#d4d8d9" vector-effect="non-scaling-stroke" d="
  M 583.22 252.74
  L 572.82 252.65
  Q 572.27 252.64 572.27 253.20
  L 572.35 263.77"
/>
<path stroke="#bdc1c3" vector-effect="non-scaling-stroke" d="
  M 572.35 263.77
  L 550.94 263.83
  Q 550.44 263.83 550.44 264.33
  L 550.47 273.92
  A 0.94 0.94 0.0 0 1 549.54 274.87
  L 538.00 275.02"
/>
<path stroke="#808080" vector-effect="non-scaling-stroke" d="
  M 538.00 275.02
  L 518.27 275.20
  Q 517.69 275.20 517.69 275.78
  L 517.72 285.75"
/>
<path stroke="#d4d8d9" vector-effect="non-scaling-stroke" d="
  M 517.72 285.75
  L 506.39 286.07"
/>
<path stroke="#808080" vector-effect="non-scaling-stroke" d="
  M 506.39 286.07
  L 485.07 286.12
  Q 484.55 286.12 484.55 286.64
  L 484.57 296.67"
/>
<path stroke="#d4d8d9" vector-effect="non-scaling-stroke" d="
  M 484.57 296.67
  L 471.27 297.05"
/>
<path stroke="#808080" vector-effect="non-scaling-stroke" d="
  M 471.27 297.05
  L 463.09 297.13
  Q 462.55 297.13 462.55 297.67
  L 462.51 307.83"
/>
<path stroke="#bdc1c3" vector-effect="non-scaling-stroke" d="
  M 462.51 307.83
  L 451.26 307.82"
/>
<path stroke="#d4d8d9" vector-effect="non-scaling-stroke" d="
  M 451.26 307.82
  L 440.86 308.01
  Q 440.30 308.02 440.29 308.58
  L 440.13 319.01"
/>
<path stroke="#bdc1c3" vector-effect="non-scaling-stroke" d="
  M 440.13 319.01
  L 418.30 319.16"
/>
<path stroke="#d4d8d9" vector-effect="non-scaling-stroke" d="
  M 418.30 319.16
  L 407.60 318.99
  Q 407.09 318.98 407.09 319.49
  Q 407.11 324.51 406.88 329.59
  Q 406.87 329.85 406.79 329.89
  Q 406.69 329.95 406.45 330.01"
/>
<path stroke="#8a979b" vector-effect="non-scaling-stroke" d="
  M 406.45 330.01
  L 396.70 330.07"
/>
<path stroke="#c6cbce" vector-effect="non-scaling-stroke" d="
  M 396.70 330.07
  L 396.43 319.50
  A 0.51 0.50 88.8 0 0 395.93 319.01
  L 374.96 319.01
  A 0.64 0.63 -0.0 0 1 374.32 318.38
  Q 374.26 308.11 374.36 297.75
  Q 374.36 297.42 374.75 297.02"
/>
<path stroke="#adb6b9" vector-effect="non-scaling-stroke" d="
  M 374.75 297.02
  L 385.33 297.07"
/>
<path stroke="#d4d8d9" vector-effect="non-scaling-stroke" d="
  M 385.33 297.07
  L 396.20 297.51
  Q 396.65 297.52 396.63 297.08
  L 396.26 287.30
  A 1.37 1.37 0.0 0 1 397.62 285.88
  L 418.34 285.83"
/>
<path stroke="#808080" vector-effect="non-scaling-stroke" d="
  M 418.34 285.83
  L 428.74 285.98
  Q 429.27 285.98 429.28 285.45
  L 429.33 274.99"
/>
<path stroke="#8a979b" vector-effect="non-scaling-stroke" d="
  M 429.33 274.99
  L 440.35 274.95"
/>
<path stroke="#c6cbce" vector-effect="non-scaling-stroke" d="
  M 473.28 263.93
  L 483.89 263.91
  Q 484.46 263.91 484.47 263.33
  L 484.68 252.88"
/>
<path stroke="#c6cbce" vector-effect="non-scaling-stroke" d="
  M 504.78 252.85
  L 517.26 252.92
  Q 517.72 252.93 517.72 252.47
  L 517.69 241.84"
/>
<path stroke="#c6cbce" vector-effect="non-scaling-stroke" d="
  M 528.60 241.79
  L 538.96 241.81
  Q 539.54 241.81 539.54 241.23
  L 539.53 231.20"
/>
<path stroke="#c6cbce" vector-effect="non-scaling-stroke" d="
  M 539.53 220.08
  L 550.19 220.02
  Q 550.72 220.02 550.72 219.49
  L 550.75 209.24
  A 0.50 0.50 0.0 0 1 551.26 208.74
  L 561.04 208.84
  A 0.64 0.64 0.0 0 0 561.69 208.21
  L 561.75 198.19
  Q 561.76 197.62 561.19 197.62
  L 551.24 197.53
  A 0.54 0.54 0.0 0 1 550.71 196.99
  L 550.75 176.08
  Q 550.75 175.51 550.18 175.51
  L 540.19 175.52
  Q 539.60 175.52 539.60 174.94
  L 539.67 143.48
  Q 539.67 142.63 538.83 142.63
  L 517.51 142.67"
/>
<path stroke="#242c2d" vector-effect="non-scaling-stroke" d="
  M 539.58 286.24
  L 539.53 296.28
  Q 539.52 296.79 540.04 296.82
  L 550.59 297.28"
/>
<path stroke="#808080" vector-effect="non-scaling-stroke" d="
  M 550.59 297.28
  L 550.54 329.65
  Q 550.54 330.20 549.99 330.20
  L 528.93 330.14
  Q 528.50 330.14 528.50 330.57
  L 528.49 340.72
  Q 528.49 341.17 528.04 341.17
  L 507.18 341.15
  Q 506.51 341.15 506.51 341.82
  L 506.50 351.51
  Q 506.50 352.14 505.87 352.14
  L 496.21 352.10
  Q 495.57 352.10 495.57 351.46
  L 495.58 341.76
  A 0.57 0.57 0.0 0 0 495.01 341.19
  L 473.78 341.19
  A 0.43 0.43 0.0 0 1 473.35 340.76
  L 473.42 319.28"
/>
<path stroke="#2d3639" vector-effect="non-scaling-stroke" d="
  M 473.42 319.28
  L 482.65 319.10
  A 1.77 1.77 0.0 0 0 484.38 317.37
  L 484.59 308.86
  Q 484.61 307.99 485.48 307.98
  L 502.97 307.89"
/>
<path stroke="#545959" vector-effect="non-scaling-stroke" d="
  M 502.97 307.89
  Q 503.08 307.91 503.19 307.93"
/>
<path stroke="#2d3639" vector-effect="non-scaling-stroke" d="
  M 503.19 307.93
  L 516.53 307.95
  A 0.91 0.90 -88.7 0 0 517.44 307.07
  Q 517.59 303.12 517.68 298.70
  Q 517.73 296.50 520.21 296.91"
/>
<path stroke="#545959" vector-effect="non-scaling-stroke" d="
  M 520.21 296.91
  L 527.87 296.80
  A 0.60 0.59 -0.5 0 0 528.46 296.21
  L 528.46 286.34
  Q 528.46 285.90 528.02 285.89
  L 517.72 285.75"
/>
<path stroke="#919a9c" vector-effect="non-scaling-stroke" d="
  M 452.47 319.21
  Q 450.91 319.22 450.98 317.25
  Q 451.13 312.58 451.26 307.82"
/>
<path stroke="#2d3639" vector-effect="non-scaling-stroke" d="
  M 506.48 296.99
  Q 506.43 297.62 506.18 296.95"
/>
<path stroke="#545959" vector-effect="non-scaling-stroke" d="
  M 506.18 296.95
  L 484.57 296.67"
/>
<path stroke="#2d3639" vector-effect="non-scaling-stroke" d="
  M 473.32 307.29
  Q 473.37 308.14 472.63 308.00"
/>
<path stroke="#3d4143" vector-effect="non-scaling-stroke" d="
  M 472.63 308.00
  L 462.51 307.83"
/>
<path stroke="#919a9c" vector-effect="non-scaling-stroke" d="
  M 418.30 319.16
  L 418.18 328.12
  A 1.90 1.90 0.0 0 1 416.31 330.00
  L 407.29 330.14"
/>
<path stroke="#5e7075" vector-effect="non-scaling-stroke" d="
  M 407.29 330.14
  Q 406.73 330.50 406.45 330.01"
/>
<path stroke="#818f92" vector-effect="non-scaling-stroke" d="
  M 520.21 296.91
  L 506.48 296.99"
/>
<path stroke="#545959" vector-effect="non-scaling-stroke" d="
  M 506.48 296.99
  L 506.39 286.07"
/>
<path stroke="#616d70" vector-effect="non-scaling-stroke" d="
  M 418.32 341.72
  C 417.84 341.38 417.41 341.07 416.77 341.08
  Q 411.93 341.15 407.34 340.70"
/>
<path stroke="#47595f" vector-effect="non-scaling-stroke" d="
  M 407.34 340.70
  L 407.29 330.14"
/>
<path stroke="#818f92" vector-effect="non-scaling-stroke" d="
  M 506.18 296.95
  L 506.10 307.13
  Q 506.09 307.76 505.46 307.79
  L 503.19 307.93"
/>
<path stroke="#818f92" vector-effect="non-scaling-stroke" d="
  M 502.97 307.89
  Q 488.53 307.83 474.12 307.88
  Q 473.68 307.88 473.32 307.29"
/>
<path stroke="#545959" vector-effect="non-scaling-stroke" d="
  M 473.32 307.29
  L 473.27 297.75
  Q 473.27 297.20 472.73 297.16
  L 471.27 297.05"
/>
<path stroke="#50636a" vector-effect="non-scaling-stroke" d="
  M 396.70 330.07
  L 385.91 329.95
  Q 385.29 329.95 385.29 330.56
  L 385.25 339.76"
/>
<path stroke="#6a777b" vector-effect="non-scaling-stroke" d="
  M 385.25 339.76
  L 384.92 341.25"
/>
<path stroke="#919a9c" vector-effect="non-scaling-stroke" d="
  M 451.48 320.05
  Q 450.64 318.83 449.75 318.88
  Q 444.83 319.13 440.13 319.01"
/>
<path stroke="#2e4348" vector-effect="non-scaling-stroke" d="
  M 407.34 340.70
  Q 407.23 340.89 406.81 341.08
  Q 406.53 341.21 406.17 341.21
  Q 396.03 341.21 385.87 341.09
  Q 385.35 341.09 385.18 340.59
  Q 385.05 340.23 385.25 339.76"
/>
<path stroke="#47595f" vector-effect="non-scaling-stroke" d="
  M 605.67 253.77
  L 605.50 263.40
  Q 605.49 263.89 605.01 263.89
  L 595.25 263.92
  Q 594.76 263.92 594.77 264.40
  L 594.80 274.54"
/>
<path stroke="#616d70" vector-effect="non-scaling-stroke" d="
  M 594.80 274.54
  Q 594.87 275.23 594.69 275.51"
/>
<path stroke="#919a9c" vector-effect="non-scaling-stroke" d="
  M 594.69 275.51
  L 584.87 275.32
  A 1.14 1.13 -89.5 0 0 583.71 276.47
  L 583.86 284.96
  Q 583.87 285.53 584.39 285.78
  Q 584.67 285.91 584.95 285.91"
/>
<path stroke="#616d70" vector-effect="non-scaling-stroke" d="
  M 584.95 285.91
  Q 584.01 286.34 583.62 286.24"
/>
<path stroke="#919a9c" vector-effect="non-scaling-stroke" d="
  M 583.62 286.24
  L 572.24 286.02"
/>
<path stroke="#bdc1c3" vector-effect="non-scaling-stroke" d="
  M 572.24 286.02
  Q 561.37 286.04 551.00 286.13
  Q 550.53 286.13 550.63 287.01"
/>
<path stroke="#616d70" vector-effect="non-scaling-stroke" d="
  M 550.63 287.01
  Q 550.67 286.63 550.53 286.34
  Q 550.31 285.89 549.82 285.91
  L 539.58 286.24"
/>
<path stroke="#3d4143" vector-effect="non-scaling-stroke" d="
  M 539.58 286.24
  Q 539.59 281.37 539.31 275.93
  Q 539.28 275.32 538.00 275.02"
/>
<path stroke="#919a9c" vector-effect="non-scaling-stroke" d="
  M 572.35 263.77
  L 582.31 264.01
  Q 583.49 264.04 583.46 262.87
  L 583.22 252.74"
/>
<path stroke="#738287" vector-effect="non-scaling-stroke" d="
  M 374.75 297.02
  L 374.18 296.96"
/>
<path stroke="#2e4348" vector-effect="non-scaling-stroke" d="
  M 616.84 252.72
  L 606.67 252.85
  Q 606.22 252.86 605.99 253.24
  L 605.67 253.77"
/>
<path stroke="#616d70" vector-effect="non-scaling-stroke" d="
  M 605.67 253.77
  Q 606.13 252.71 605.56 252.06"
/>
<path stroke="#0a181c" vector-effect="non-scaling-stroke" d="
  M 429.33 274.99
  L 429.15 275.01"
/>
<path stroke="#5e7075" vector-effect="non-scaling-stroke" d="
  M 429.30 264.00
  L 429.15 275.01"
/>
<path stroke="#545959" vector-effect="non-scaling-stroke" d="
  M 429.15 275.01
  L 418.97 274.92
  Q 418.39 274.92 418.39 275.50
  L 418.34 285.83"
/>
<path stroke="#818f92" vector-effect="non-scaling-stroke" d="
  M 385.33 297.07
  L 385.29 274.54"
/>
<path stroke="#d4d8d9" vector-effect="non-scaling-stroke" d="
  M 572.24 286.02
  L 572.41 307.96"
/>
<path stroke="#8a979b" vector-effect="non-scaling-stroke" d="
  M 572.41 307.96
  L 572.47 340.92"
/>
<path stroke="#a3abac" vector-effect="non-scaling-stroke" d="
  M 572.47 340.92
  L 572.38 352.00"
/>
<path stroke="#8a979b" vector-effect="non-scaling-stroke" d="
  M 572.38 352.00
  L 562.18 351.98
  Q 561.62 351.98 561.61 352.55
  L 561.57 363.12"
/>
<path stroke="#a3abac" vector-effect="non-scaling-stroke" d="
  M 561.57 363.12
  L 561.44 385.25"
/>
<path stroke="#8a979b" vector-effect="non-scaling-stroke" d="
  M 561.44 385.25
  L 551.08 385.24
  Q 550.53 385.24 550.53 385.80
  L 550.49 396.30"
/>
<path stroke="#a3abac" vector-effect="non-scaling-stroke" d="
  M 550.49 396.30
  Q 550.60 406.79 550.38 417.49
  Q 550.37 417.99 550.13 418.19
  Q 549.82 418.44 549.30 418.31"
/>
<path stroke="#8a979b" vector-effect="non-scaling-stroke" d="
  M 549.30 418.31
  L 540.06 418.28
  Q 539.54 418.28 539.54 418.79
  L 539.57 429.19"
/>
<path stroke="#a3abac" vector-effect="non-scaling-stroke" d="
  M 539.57 429.19
  L 539.55 451.50"
/>
<path stroke="#8a979b" vector-effect="non-scaling-stroke" d="
  M 539.55 451.50
  L 539.56 461.87
  A 0.56 0.56 0.0 0 1 539.00 462.43
  L 529.22 462.37"
/>
<path stroke="#bdc1c3" vector-effect="non-scaling-stroke" d="
  M 529.22 462.37
  L 528.62 462.34"
/>
<path stroke="#d4d8d9" vector-effect="non-scaling-stroke" d="
  M 528.62 462.34
  L 528.62 451.62
  Q 528.62 451.07 528.06 451.07
  L 518.02 451.18
  Q 517.56 451.19 517.57 451.65
  L 517.91 462.24"
/>
<path stroke="#bdc1c3" vector-effect="non-scaling-stroke" d="
  M 517.91 462.24
  L 506.72 462.33"
/>
<path stroke="#d4d8d9" vector-effect="non-scaling-stroke" d="
  M 506.72 462.33
  L 484.42 462.40"
/>
<path stroke="#bdc1c3" vector-effect="non-scaling-stroke" d="
  M 484.42 462.40
  L 484.48 440.95
  A 0.70 0.70 0.0 0 0 483.78 440.25
  L 474.02 440.27
  Q 473.51 440.27 473.51 439.77
  L 473.52 418.75
  Q 473.52 418.23 473.00 418.23
  L 463.00 418.27
  Q 462.48 418.27 462.48 417.75
  L 462.44 396.63
  Q 462.44 396.06 461.88 396.06
  L 452.16 396.06
  Q 451.52 396.05 451.52 395.41
  L 451.51 385.58
  Q 451.51 385.15 451.08 385.15
  L 440.88 385.20
  Q 440.32 385.20 440.32 384.63
  L 440.32 363.75
  Q 440.32 363.18 439.75 363.18
  L 430.04 363.22
  A 0.68 0.67 -90.0 0 1 429.37 362.54
  L 429.39 352.47
  Q 429.39 351.97 428.89 351.98
  L 418.32 352.10"
/>
<path stroke="#a3abac" vector-effect="non-scaling-stroke" d="
  M 418.32 352.10
  L 418.32 341.72"
/>
<path stroke="#bdc1c3" vector-effect="non-scaling-stroke" d="
  M 418.32 341.72
  L 418.43 341.48
  Q 418.58 341.14 418.95 341.14
  L 439.77 341.23
  Q 440.28 341.24 440.28 340.73
  L 440.28 330.74
  Q 440.27 330.24 440.77 330.24
  L 451.01 330.25
  Q 451.49 330.25 451.49 329.77
  L 451.48 320.05"
/>
<path stroke="#d4d8d9" vector-effect="non-scaling-stroke" d="
  M 451.48 320.05
  L 452.47 319.21"
/>
<path stroke="#bdc1c3" vector-effect="non-scaling-stroke" d="
  M 452.47 319.21
  L 473.21 319.18"
/>
<path stroke="#adb6b9" vector-effect="non-scaling-stroke" d="
  M 473.21 319.18
  Q 473.83 319.68 473.42 319.28"
/>
<path stroke="#a3abac" vector-effect="non-scaling-stroke" d="
  M 550.63 287.01
  L 550.59 297.28"
/>
<path stroke="#6a777c" vector-effect="non-scaling-stroke" d="
  M 473.21 319.18
  L 472.63 308.00"
/>
<path stroke="#616d70" vector-effect="non-scaling-stroke" d="
  M 418.32 352.10
  L 396.19 352.24"
/>
<path stroke="#2e4348" vector-effect="non-scaling-stroke" d="
  M 584.33 330.20
  Q 583.79 329.50 583.74 328.00
  Q 583.41 317.97 583.65 308.01"
/>
<path stroke="#788486" vector-effect="non-scaling-stroke" d="
  M 583.65 308.01
  L 583.62 286.24"
/>
<path stroke="#788486" vector-effect="non-scaling-stroke" d="
  M 584.95 285.91
  L 594.19 285.95
  Q 594.71 285.95 594.71 285.43
  L 594.69 275.51"
/>
<path stroke="#5e7075" vector-effect="non-scaling-stroke" d="
  M 583.65 308.01
  L 572.41 307.96"
/>
<path stroke="#2e4348" vector-effect="non-scaling-stroke" d="
  M 616.79 275.16
  Q 606.00 274.94 595.46 274.97
  Q 595.21 274.97 595.07 274.87
  Q 594.91 274.74 594.80 274.54"
/>
<path stroke="#d4d8d9" vector-effect="non-scaling-stroke" d="
  M 407.22 208.62
  L 406.93 219.67
  Q 406.92 220.09 407.34 220.08
  L 418.29 219.63"
/>
<path stroke="#d4d8d9" vector-effect="non-scaling-stroke" d="
  M 418.30 241.67
  L 418.41 251.29
  A 1.47 1.46 -89.6 0 1 416.92 252.77
  L 407.57 252.61
  A 0.57 0.57 0.0 0 0 406.99 253.18
  L 407.13 262.76
  A 1.13 1.12 -0.2 0 1 405.99 263.90
  L 396.43 263.84
  A 0.49 0.48 -0.0 0 0 395.94 264.32
  L 396.03 273.10
  A 1.68 1.67 -89.5 0 1 394.31 274.80
  L 385.29 274.54"
/>
<path stroke="#adb6b9" vector-effect="non-scaling-stroke" d="
  M 385.29 274.54
  L 385.33 252.80"
/>
<path stroke="#738287" vector-effect="non-scaling-stroke" d="
  M 418.49 186.67
  L 407.24 186.73"
/>
<path stroke="#c6cbce" vector-effect="non-scaling-stroke" d="
  M 407.24 186.73
  L 396.93 186.82
  Q 396.27 186.83 396.27 187.49
  L 396.27 197.60
  Q 396.27 197.97 395.90 197.97
  L 385.89 197.83
  Q 385.29 197.82 385.29 198.43
  L 385.33 252.80"
/>
<path stroke="#738287" vector-effect="non-scaling-stroke" d="
  M 385.33 252.80
  L 374.25 252.51"
/>
<path stroke="#818f92" vector-effect="non-scaling-stroke" d="
  M 429.23 252.71
  L 429.15 242.35
  Q 429.14 241.75 428.54 241.75
  L 418.30 241.67"
/>
<path stroke="#adb6b9" vector-effect="non-scaling-stroke" d="
  M 418.30 241.67
  L 418.29 219.63"
/>
<path stroke="#818f92" vector-effect="non-scaling-stroke" d="
  M 418.29 219.63
  L 418.44 209.33
  A 0.69 0.69 0.0 0 0 417.75 208.63
  L 407.22 208.62"
/>
<path stroke="#adb6b9" vector-effect="non-scaling-stroke" d="
  M 407.22 208.62
  L 407.24 186.73"
/>
<path stroke="#919a9c" vector-effect="non-scaling-stroke" d="
  M 484.42 462.40
  L 484.44 472.51
  A 0.77 0.76 0.0 0 0 485.21 473.27
  L 505.73 473.25
  A 0.64 0.63 0.9 0 0 506.37 472.64
  L 506.72 462.33"
/>
<path stroke="#919a9c" vector-effect="non-scaling-stroke" d="
  M 517.91 462.24
  L 528.62 462.34"
/>
<path stroke="#47595f" vector-effect="non-scaling-stroke" d="
  M 529.22 462.37
  Q 529.03 462.37 528.86 462.45
  Q 528.39 462.65 528.39 463.16
  L 528.32 473.04"
/>
<path stroke="#616d70" vector-effect="non-scaling-stroke" d="
  M 528.32 473.04
  L 518.18 473.19
  A 0.84 0.84 0.0 0 0 517.36 474.05
  L 517.62 484.52"
/>
<path stroke="#3d4143" vector-effect="non-scaling-stroke" d="
  M 517.62 484.52
  L 506.15 484.52"
/>
<path stroke="#bd4143" vector-effect="non-scaling-stroke" d="
  M 506.15 484.52
  L 495.92 484.56"
/>
<path stroke="#8b4243" vector-effect="non-scaling-stroke" d="
  M 495.92 484.56
  L 485.82 484.45"
/>
<path stroke="#616d70" vector-effect="non-scaling-stroke" d="
  M 485.82 484.45
  Q 484.37 484.29 484.36 483.46"
/>
<path stroke="#47595f" vector-effect="non-scaling-stroke" d="
  M 484.36 483.46
  L 484.39 474.09
  A 0.82 0.81 -0.0 0 0 483.56 473.27
  L 473.37 473.35"
/>
<path stroke="#788486" vector-effect="non-scaling-stroke" d="
  M 583.72 352.09
  L 572.52 352.11"
/>
<path stroke="#2e4348" vector-effect="non-scaling-stroke" d="
  M 572.52 352.11
  Q 572.45 352.05 572.38 352.00"
/>
<path stroke="#2e4348" vector-effect="non-scaling-stroke" d="
  M 550.73 451.31
  L 541.05 451.43
  Q 540.94 451.43 540.86 451.36
  L 540.60 451.10
  A 0.42 0.42 0.0 0 0 540.01 451.09
  L 539.55 451.50"
/>
<path stroke="#2e4348" vector-effect="non-scaling-stroke" d="
  M 539.57 429.19
  L 539.91 429.89
  Q 540.16 430.39 540.53 429.97
  L 540.94 429.51
  A 1.09 1.09 0.0 0 1 541.82 429.14
  L 550.04 429.53
  A 0.78 0.78 0.0 0 0 550.86 428.71
  Q 550.57 423.99 550.45 419.51
  Q 550.42 418.37 549.30 418.31"
/>
<path stroke="#2e4348" vector-effect="non-scaling-stroke" d="
  M 563.20 396.25
  Q 561.77 396.52 561.81 394.50
  Q 561.88 391.74 561.44 385.25"
/>
<path stroke="#2e4348" vector-effect="non-scaling-stroke" d="
  M 539.31 473.17
  Q 533.41 473.92 528.32 473.04"
/>
<path stroke="#2e4348" vector-effect="non-scaling-stroke" d="
  M 561.71 396.59
  L 550.49 396.30"
/>
<path stroke="#2e4348" vector-effect="non-scaling-stroke" d="
  M 583.82 340.95
  L 572.47 340.92"
/>
<path stroke="#5e7075" vector-effect="non-scaling-stroke" d="
  M 572.52 352.11
  L 572.63 362.85"
/>
<path stroke="#2e4348" vector-effect="non-scaling-stroke" d="
  M 572.63 362.85
  L 561.57 363.12"
/>
<path stroke="#2e4348" vector-effect="non-scaling-stroke" d="
  M 484.36 483.46
  L 484.30 483.87
  Q 484.22 484.41 483.67 484.43
  L 473.34 484.70"
/>
<path stroke="#ce0100" vector-effect="non-scaling-stroke" d="
  M 559.63 462.32
  Q 561.31 463.93 561.38 469.49
  Q 561.59 487.56 562.13 505.39
  Q 562.16 506.38 563.15 506.38
  L 571.51 506.32
  Q 571.99 506.31 572.23 506.72
  L 572.60 507.31"
/>
<path stroke="#ce0100" vector-effect="non-scaling-stroke" d="
  M 572.88 527.91
  L 562.96 528.50
  Q 561.76 528.57 561.76 529.77
  Q 561.85 585.53 561.73 641.49
  C 561.69 658.49 561.98 676.65 561.75 694.26
  C 561.36 722.85 561.78 751.47 561.74 780.06
  C 561.72 787.67 561.07 795.25 560.62 802.87
  A 0.67 0.67 0.0 0 1 560.02 803.49
  C 557.39 803.77 551.39 802.54 550.99 806.23
  Q 550.01 815.52 549.86 824.96
  A 0.94 0.94 0.0 0 1 548.91 825.89
  L 540.30 825.79
  Q 539.81 825.78 539.79 825.29
  L 539.48 816.04
  A 0.84 0.83 87.6 0 0 538.61 815.23
  L 530.63 815.55
  Q 528.40 815.64 528.41 817.87
  L 528.49 836.60
  Q 528.49 837.19 527.90 837.19
  L 485.73 837.24
  Q 484.47 837.25 484.46 835.99
  L 484.33 826.43
  Q 484.32 825.78 483.68 825.81
  L 475.22 826.12
  Q 473.52 826.18 473.52 824.48
  L 473.50 815.93
  Q 473.50 815.12 472.68 815.12
  L 464.34 815.06
  Q 462.38 815.04 462.38 813.09
  L 462.67 673.22
  A 1.14 1.13 -0.8 0 1 463.78 672.09
  L 472.56 671.89
  A 0.95 0.95 0.0 0 0 473.49 670.94
  L 473.62 628.15
  A 0.93 0.92 -1.2 0 0 472.65 627.23
  L 463.52 627.69
  A 0.90 0.89 88.5 0 1 462.58 626.79
  L 462.67 561.65"
/>
<path stroke="#fe726d" vector-effect="non-scaling-stroke" d="
  M 462.67 561.65
  L 472.69 561.49
  Q 473.24 561.48 473.24 560.93
  L 473.24 495.88"
/>
<path stroke="#a32c2d" vector-effect="non-scaling-stroke" d="
  M 473.24 495.88
  L 484.35 495.49"
/>
<path stroke="#ce0100" vector-effect="non-scaling-stroke" d="
  M 484.35 495.49
  L 494.65 495.49
  A 1.09 1.09 0.0 0 0 495.73 494.25
  Q 495.08 489.50 495.92 484.56"
/>
<path stroke="#800000" vector-effect="non-scaling-stroke" d="
  M 506.15 484.52
  L 506.49 494.72
  Q 506.51 495.30 507.08 495.31
  L 517.68 495.59"
/>
<path stroke="#a32c2d" vector-effect="non-scaling-stroke" d="
  M 517.68 495.59
  L 527.34 495.34
  A 1.27 1.27 0.0 0 0 528.58 494.03
  L 528.37 486.04
  A 1.40 1.40 0.0 0 1 529.68 484.61
  Q 539.05 483.97 548.38 484.91
  A 1.79 1.78 3.1 0 0 550.35 483.15
  L 550.41 473.46"
/>
<path stroke="#722c2d" vector-effect="non-scaling-stroke" d="
  M 485.82 484.45
  Q 484.51 484.50 484.55 485.25
  Q 484.72 488.12 484.35 495.49"
/>
<path stroke="#a29e9a" vector-effect="non-scaling-stroke" d="
  M 473.24 495.88
  Q 473.42 495.71 473.25 495.48"
/>
<path stroke="#242c2d" vector-effect="non-scaling-stroke" d="
  M 517.68 495.59
  L 517.62 484.52"
/>
<path stroke="#788486" vector-effect="non-scaling-stroke" d="
  M 574.55 363.36
  L 572.63 362.85"
/>
<path stroke="#cd736d" vector-effect="non-scaling-stroke" d="
  M 462.47 495.51
  L 462.67 561.65"
/>
<path stroke="#0a181c" vector-effect="non-scaling-stroke" d="
  M 462.4915 253.5417
  A 0.80 0.80 0.0 0 0 461.6818 252.7515
  L 452.0426 252.8693
  A 0.80 0.80 0.0 0 0 451.2524 253.6790
  L 451.3685 263.1783
  A 0.80 0.80 0.0 0 0 452.1782 263.9685
  L 461.8174 263.8507
  A 0.80 0.80 0.0 0 0 462.6076 263.0410
  L 462.4915 253.5417"
/>
<path stroke="#2d3639" vector-effect="non-scaling-stroke" d="
  M 528.76 297.00
  A 0.33 0.33 0.0 0 0 528.43 297.34
  L 528.74 307.66
  A 0.33 0.33 0.0 0 0 529.07 307.98
  L 539.23 308.01
  A 0.33 0.33 0.0 0 0 539.56 307.68
  L 539.56 297.34
  A 0.33 0.33 0.0 0 0 539.23 297.01
  L 528.76 297.00"
/>
<path stroke="#800000" vector-effect="non-scaling-stroke" d="
  M 517.48 805.14
  A 1.01 1.01 0.0 0 1 518.51 804.12
  L 527.48 804.31
  A 1.01 1.01 0.0 0 0 528.51 803.32
  L 528.65 794.25
  A 1.01 1.01 0.0 0 0 527.64 793.22
  L 518.57 793.26
  A 1.01 1.01 0.0 0 1 517.55 792.25
  L 517.51 783.07
  A 1.01 1.01 0.0 0 0 516.49 782.07
  L 507.54 782.13
  A 1.01 1.01 0.0 0 0 506.54 783.15
  L 506.70 814.14
  A 1.01 1.01 0.0 0 0 507.72 815.15
  L 516.56 815.10
  A 1.01 1.01 0.0 0 0 517.57 814.08
  L 517.48 805.14"
/>
</g>
<path fill="#ffffff" d="
  M 0.00 0.00
  L 980.00 0.00
  L 980.00 980.00
  L 0.00 980.00
  L 0.00 0.00
  Z
  M 417.67 165.92
  A 0.41 0.41 0.0 0 1 417.26 165.51
  L 417.24 144.22
  A 0.41 0.41 0.0 0 0 416.83 143.81
  L 375.86 143.79
  A 0.41 0.41 0.0 0 0 375.45 144.20
  L 375.38 165.52
  A 0.41 0.41 0.0 0 1 374.97 165.93
  L 364.82 165.81
  A 0.41 0.41 0.0 0 0 364.41 166.22
  L 364.40 286.84
  A 0.41 0.41 0.0 0 1 363.99 287.25
  L 342.72 287.23
  A 0.41 0.41 0.0 0 0 342.31 287.64
  L 342.33 339.59
  A 0.41 0.41 0.0 0 0 342.74 340.00
  L 363.97 339.98
  A 0.41 0.41 0.0 0 1 364.38 340.39
  L 364.41 350.61
  A 0.41 0.41 0.0 0 0 364.82 351.02
  L 375.03 350.99
  A 0.41 0.41 0.0 0 1 375.44 351.40
  L 375.41 361.65
  A 0.41 0.41 0.0 0 0 375.82 362.06
  L 386.00 361.98
  A 0.41 0.41 0.0 0 1 386.41 362.39
  L 386.45 372.76
  A 0.41 0.41 0.0 0 0 386.86 373.17
  L 397.10 373.12
  A 0.41 0.41 0.0 0 1 397.51 373.53
  L 397.50 383.76
  A 0.41 0.41 0.0 0 0 397.91 384.17
  L 408.09 384.19
  A 0.41 0.41 0.0 0 1 408.50 384.60
  L 408.51 394.83
  A 0.41 0.41 0.0 0 0 408.92 395.24
  L 419.10 395.15
  A 0.41 0.41 0.0 0 1 419.51 395.56
  L 419.49 405.77
  A 0.41 0.41 0.0 0 0 419.90 406.18
  L 430.10 406.19
  A 0.41 0.41 0.0 0 1 430.51 406.60
  L 430.50 427.85
  A 0.41 0.41 0.0 0 0 430.91 428.26
  L 441.16 428.25
  A 0.41 0.41 0.0 0 1 441.57 428.66
  L 441.53 438.85
  A 0.41 0.41 0.0 0 0 441.94 439.26
  L 452.16 439.25
  A 0.41 0.41 0.0 0 1 452.57 439.66
  L 452.55 471.93
  A 0.41 0.41 0.0 0 0 452.96 472.34
  L 463.16 472.31
  A 0.41 0.41 0.0 0 1 463.57 472.72
  L 463.56 485.30
  A 0.41 0.41 0.0 0 1 463.15 485.71
  L 441.96 485.63
  A 0.41 0.41 0.0 0 0 441.55 486.04
  L 441.55 760.89
  A 0.41 0.41 0.0 0 1 441.14 761.30
  L 430.91 761.27
  A 0.41 0.41 0.0 0 0 430.50 761.68
  L 430.50 802.63
  A 0.41 0.41 0.0 0 0 430.91 803.04
  L 441.15 803.00
  A 0.41 0.41 0.0 0 1 441.56 803.41
  L 441.54 835.76
  A 0.41 0.41 0.0 0 0 441.95 836.17
  L 452.13 836.18
  A 0.41 0.41 0.0 0 1 452.54 836.59
  L 452.54 846.73
  A 0.41 0.41 0.0 0 0 452.95 847.14
  L 463.19 847.16
  A 0.41 0.41 0.0 0 1 463.60 847.57
  L 463.54 857.85
  A 0.41 0.41 0.0 0 0 463.95 858.26
  L 474.13 858.27
  A 0.41 0.41 0.0 0 1 474.54 858.68
  L 474.51 868.84
  A 0.41 0.41 0.0 0 0 474.92 869.25
  L 549.09 869.25
  A 0.41 0.41 0.0 0 0 549.50 868.84
  L 549.50 858.67
  A 0.41 0.41 0.0 0 1 549.91 858.26
  L 571.09 858.25
  A 0.41 0.41 0.0 0 0 571.50 857.84
  L 571.50 847.42
  A 0.41 0.41 0.0 0 1 571.92 847.01
  L 582.07 847.16
  A 0.41 0.41 0.0 0 0 582.49 846.75
  L 582.51 825.51
  A 0.41 0.41 0.0 0 1 582.92 825.10
  L 593.19 825.18
  A 0.41 0.41 0.0 0 0 593.60 824.77
  L 593.60 519.09
  A 0.41 0.41 0.0 0 0 593.19 518.68
  L 582.91 518.71
  A 0.41 0.41 0.0 0 1 582.50 518.30
  L 582.50 452.93
  A 0.41 0.41 0.0 0 0 582.09 452.52
  L 560.90 452.54
  A 0.41 0.41 0.0 0 1 560.50 452.19
  L 560.28 450.74
  A 0.41 0.41 0.0 0 1 560.69 450.27
  L 571.09 450.26
  A 0.41 0.41 0.0 0 0 571.50 449.85
  L 571.49 406.49
  A 0.41 0.41 0.0 0 1 571.90 406.08
  L 582.09 406.16
  A 0.41 0.41 0.0 0 0 582.50 405.75
  L 582.51 373.53
  A 0.41 0.41 0.0 0 1 582.92 373.12
  L 593.18 373.14
  A 0.41 0.41 0.0 0 0 593.59 372.73
  L 593.57 340.38
  A 0.41 0.41 0.0 0 1 593.98 339.97
  L 604.17 340.03
  A 0.41 0.41 0.0 0 0 604.58 339.62
  L 604.61 318.26
  A 0.41 0.41 0.0 0 1 605.02 317.85
  L 615.20 317.87
  A 0.41 0.41 0.0 0 0 615.61 317.46
  L 615.63 296.21
  A 0.41 0.41 0.0 0 1 616.04 295.80
  L 626.19 295.88
  A 0.41 0.41 0.0 0 0 626.60 295.47
  L 626.61 188.40
  A 0.41 0.41 0.0 0 0 626.20 187.99
  L 616.03 188.02
  A 0.41 0.41 0.0 0 1 615.62 187.61
  L 615.61 166.25
  A 0.41 0.41 0.0 0 0 615.20 165.84
  L 605.03 165.90
  A 0.41 0.41 0.0 0 1 604.62 165.49
  L 604.58 155.25
  A 0.41 0.41 0.0 0 0 604.17 154.84
  L 593.99 154.82
  A 0.41 0.41 0.0 0 1 593.58 154.41
  L 593.60 144.23
  A 0.41 0.41 0.0 0 0 593.19 143.82
  L 582.92 143.83
  A 0.41 0.41 0.0 0 1 582.51 143.42
  L 582.50 133.27
  A 0.41 0.41 0.0 0 0 582.09 132.86
  L 571.90 132.84
  A 0.41 0.41 0.0 0 1 571.49 132.43
  L 571.50 122.14
  A 0.41 0.41 0.0 0 0 571.09 121.73
  L 560.91 121.76
  A 0.41 0.41 0.0 0 1 560.50 121.35
  L 560.50 100.13
  A 0.41 0.41 0.0 0 0 560.09 99.72
  L 497.12 99.74
  A 0.41 0.41 0.0 0 0 496.71 100.15
  L 496.71 141.09
  A 0.41 0.41 0.0 0 0 497.12 141.50
  L 507.24 141.50
  A 0.41 0.41 0.0 0 1 507.65 141.91
  L 507.67 163.18
  A 0.41 0.41 0.0 0 0 508.08 163.59
  L 518.26 163.56
  A 0.41 0.41 0.0 0 1 518.67 163.97
  L 518.72 196.31
  A 0.41 0.41 0.0 0 0 519.13 196.72
  L 529.35 196.71
  A 0.41 0.41 0.0 0 1 529.76 197.12
  L 529.75 220.80
  A 0.41 0.41 0.0 0 1 529.33 221.21
  L 519.11 221.06
  A 0.41 0.41 0.0 0 0 518.69 221.47
  L 518.71 231.79
  A 0.41 0.41 0.0 0 1 518.30 232.20
  L 497.12 232.11
  A 0.41 0.41 0.0 0 0 496.71 232.52
  L 496.68 242.76
  A 0.41 0.41 0.0 0 1 496.27 243.17
  L 450.68 243.14
  A 0.41 0.41 0.0 0 1 450.27 242.73
  L 450.24 221.52
  A 0.41 0.41 0.0 0 0 449.83 221.11
  L 439.66 221.18
  A 0.41 0.41 0.0 0 1 439.25 220.77
  L 439.25 188.40
  A 0.41 0.41 0.0 0 0 438.84 187.99
  L 428.67 188.00
  A 0.41 0.41 0.0 0 1 428.26 187.59
  L 428.26 166.22
  A 0.41 0.41 0.0 0 0 427.85 165.81
  L 417.67 165.92
  Z"
/>
<path fill="#000000" d="
  M 417.67 165.92
  L 427.85 165.81
  A 0.41 0.41 0.0 0 1 428.26 166.22
  L 428.26 187.59
  A 0.41 0.41 0.0 0 0 428.67 188.00
  L 438.84 187.99
  A 0.41 0.41 0.0 0 1 439.25 188.40
  L 439.25 220.77
  A 0.41 0.41 0.0 0 0 439.66 221.18
  L 449.83 221.11
  A 0.41 0.41 0.0 0 1 450.24 221.52
  L 450.27 242.73
  A 0.41 0.41 0.0 0 0 450.68 243.14
  L 496.27 243.17
  A 0.41 0.41 0.0 0 0 496.68 242.76
  L 496.71 232.52
  A 0.41 0.41 0.0 0 1 497.12 232.11
  L 518.30 232.20
  A 0.41 0.41 0.0 0 0 518.71 231.79
  L 518.69 221.47
  A 0.41 0.41 0.0 0 1 519.11 221.06
  L 529.33 221.21
  A 0.41 0.41 0.0 0 0 529.75 220.80
  L 529.76 197.12
  A 0.41 0.41 0.0 0 0 529.35 196.71
  L 519.13 196.72
  A 0.41 0.41 0.0 0 1 518.72 196.31
  L 518.67 163.97
  A 0.41 0.41 0.0 0 0 518.26 163.56
  L 508.08 163.59
  A 0.41 0.41 0.0 0 1 507.67 163.18
  L 507.65 141.91
  A 0.41 0.41 0.0 0 0 507.24 141.50
  L 497.12 141.50
  A 0.41 0.41 0.0 0 1 496.71 141.09
  L 496.71 100.15
  A 0.41 0.41 0.0 0 1 497.12 99.74
  L 560.09 99.72
  A 0.41 0.41 0.0 0 1 560.50 100.13
  L 560.50 121.35
  A 0.41 0.41 0.0 0 0 560.91 121.76
  L 571.09 121.73
  A 0.41 0.41 0.0 0 1 571.50 122.14
  L 571.49 132.43
  A 0.41 0.41 0.0 0 0 571.90 132.84
  L 582.09 132.86
  A 0.41 0.41 0.0 0 1 582.50 133.27
  L 582.51 143.42
  A 0.41 0.41 0.0 0 0 582.92 143.83
  L 593.19 143.82
  A 0.41 0.41 0.0 0 1 593.60 144.23
  L 593.58 154.41
  A 0.41 0.41 0.0 0 0 593.99 154.82
  L 604.17 154.84
  A 0.41 0.41 0.0 0 1 604.58 155.25
  L 604.62 165.49
  A 0.41 0.41 0.0 0 0 605.03 165.90
  L 615.20 165.84
  A 0.41 0.41 0.0 0 1 615.61 166.25
  L 615.62 187.61
  A 0.41 0.41 0.0 0 0 616.03 188.02
  L 626.20 187.99
  A 0.41 0.41 0.0 0 1 626.61 188.40
  L 626.60 295.47
  A 0.41 0.41 0.0 0 1 626.19 295.88
  L 616.04 295.80
  A 0.41 0.41 0.0 0 0 615.63 296.21
  L 615.61 317.46
  A 0.41 0.41 0.0 0 1 615.20 317.87
  L 605.02 317.85
  A 0.41 0.41 0.0 0 0 604.61 318.26
  L 604.58 339.62
  A 0.41 0.41 0.0 0 1 604.17 340.03
  L 593.98 339.97
  A 0.41 0.41 0.0 0 0 593.57 340.38
  L 593.59 372.73
  A 0.41 0.41 0.0 0 1 593.18 373.14
  L 582.92 373.12
  A 0.41 0.41 0.0 0 0 582.51 373.53
  L 582.50 405.75
  A 0.41 0.41 0.0 0 1 582.09 406.16
  L 571.90 406.08
  A 0.41 0.41 0.0 0 0 571.49 406.49
  L 571.50 449.85
  A 0.41 0.41 0.0 0 1 571.09 450.26
  L 560.69 450.27
  A 0.41 0.41 0.0 0 0 560.28 450.74
  L 560.50 452.19
  A 0.41 0.41 0.0 0 0 560.90 452.54
  L 582.09 452.52
  A 0.41 0.41 0.0 0 1 582.50 452.93
  L 582.50 518.30
  A 0.41 0.41 0.0 0 0 582.91 518.71
  L 593.19 518.68
  A 0.41 0.41 0.0 0 1 593.60 519.09
  L 593.60 824.77
  A 0.41 0.41 0.0 0 1 593.19 825.18
  L 582.92 825.10
  A 0.41 0.41 0.0 0 0 582.51 825.51
  L 582.49 846.75
  A 0.41 0.41 0.0 0 1 582.07 847.16
  L 571.92 847.01
  A 0.41 0.41 0.0 0 0 571.50 847.42
  L 571.50 857.84
  A 0.41 0.41 0.0 0 1 571.09 858.25
  L 549.91 858.26
  A 0.41 0.41 0.0 0 0 549.50 858.67
  L 549.50 868.84
  A 0.41 0.41 0.0 0 1 549.09 869.25
  L 474.92 869.25
  A 0.41 0.41 0.0 0 1 474.51 868.84
  L 474.54 858.68
  A 0.41 0.41 0.0 0 0 474.13 858.27
  L 463.95 858.26
  A 0.41 0.41 0.0 0 1 463.54 857.85
  L 463.60 847.57
  A 0.41 0.41 0.0 0 0 463.19 847.16
  L 452.95 847.14
  A 0.41 0.41 0.0 0 1 452.54 846.73
  L 452.54 836.59
  A 0.41 0.41 0.0 0 0 452.13 836.18
  L 441.95 836.17
  A 0.41 0.41 0.0 0 1 441.54 835.76
  L 441.56 803.41
  A 0.41 0.41 0.0 0 0 441.15 803.00
  L 430.91 803.04
  A 0.41 0.41 0.0 0 1 430.50 802.63
  L 430.50 761.68
  A 0.41 0.41 0.0 0 1 430.91 761.27
  L 441.14 761.30
  A 0.41 0.41 0.0 0 0 441.55 760.89
  L 441.55 486.04
  A 0.41 0.41 0.0 0 1 441.96 485.63
  L 463.15 485.71
  A 0.41 0.41 0.0 0 0 463.56 485.30
  L 463.57 472.72
  A 0.41 0.41 0.0 0 0 463.16 472.31
  L 452.96 472.34
  A 0.41 0.41 0.0 0 1 452.55 471.93
  L 452.57 439.66
  A 0.41 0.41 0.0 0 0 452.16 439.25
  L 441.94 439.26
  A 0.41 0.41 0.0 0 1 441.53 438.85
  L 441.57 428.66
  A 0.41 0.41 0.0 0 0 441.16 428.25
  L 430.91 428.26
  A 0.41 0.41 0.0 0 1 430.50 427.85
  L 430.51 406.60
  A 0.41 0.41 0.0 0 0 430.10 406.19
  L 419.90 406.18
  A 0.41 0.41 0.0 0 1 419.49 405.77
  L 419.51 395.56
  A 0.41 0.41 0.0 0 0 419.10 395.15
  L 408.92 395.24
  A 0.41 0.41 0.0 0 1 408.51 394.83
  L 408.50 384.60
  A 0.41 0.41 0.0 0 0 408.09 384.19
  L 397.91 384.17
  A 0.41 0.41 0.0 0 1 397.50 383.76
  L 397.51 373.53
  A 0.41 0.41 0.0 0 0 397.10 373.12
  L 386.86 373.17
  A 0.41 0.41 0.0 0 1 386.45 372.76
  L 386.41 362.39
  A 0.41 0.41 0.0 0 0 386.00 361.98
  L 375.82 362.06
  A 0.41 0.41 0.0 0 1 375.41 361.65
  L 375.44 351.40
  A 0.41 0.41 0.0 0 0 375.03 350.99
  L 364.82 351.02
  A 0.41 0.41 0.0 0 1 364.41 350.61
  L 364.38 340.39
  A 0.41 0.41 0.0 0 0 363.97 339.98
  L 342.74 340.00
  A 0.41 0.41 0.0 0 1 342.33 339.59
  L 342.31 287.64
  A 0.41 0.41 0.0 0 1 342.72 287.23
  L 363.99 287.25
  A 0.41 0.41 0.0 0 0 364.40 286.84
  L 364.41 166.22
  A 0.41 0.41 0.0 0 1 364.82 165.81
  L 374.97 165.93
  A 0.41 0.41 0.0 0 0 375.38 165.52
  L 375.45 144.20
  A 0.41 0.41 0.0 0 1 375.86 143.79
  L 416.83 143.81
  A 0.41 0.41 0.0 0 1 417.24 144.22
  L 417.26 165.51
  A 0.41 0.41 0.0 0 0 417.67 165.92
  Z
  M 517.49 132.07
  L 517.51 142.67
  L 517.52 153.29
  Q 517.53 153.78 518.01 153.78
  L 528.01 153.77
  Q 528.49 153.77 528.49 154.26
  L 528.50 186.29
  Q 528.50 186.83 529.04 186.83
  L 538.79 186.91
  A 0.75 0.74 0.8 0 1 539.53 187.66
  L 539.53 220.08
  L 539.53 231.20
  L 529.13 231.03
  Q 528.56 231.02 528.56 231.60
  L 528.60 241.79
  L 517.69 241.84
  L 507.12 241.81
  Q 506.57 241.81 506.55 242.36
  Q 506.38 247.07 506.52 251.63
  Q 506.55 252.47 506.13 252.71
  Q 505.66 252.98 504.78 252.85
  L 484.68 252.88
  L 474.01 252.83
  Q 473.43 252.83 473.42 253.41
  L 473.28 263.93
  L 462.88 263.85
  Q 462.46 263.85 462.46 264.27
  L 462.37 274.46
  Q 462.36 275.01 461.81 275.01
  L 440.35 274.95
  L 440.31 264.51
  Q 440.31 263.89 439.69 263.90
  L 429.30 264.00
  L 429.23 252.71
  L 439.88 252.84
  Q 440.50 252.85 440.50 252.23
  L 440.46 231.54
  A 0.67 0.67 0.0 0 0 439.79 230.87
  L 429.96 230.95
  Q 429.46 230.95 429.46 230.46
  L 429.47 198.32
  A 0.65 0.64 -0.0 0 0 428.82 197.68
  L 419.00 197.75
  Q 418.51 197.76 418.51 197.27
  L 418.49 186.67
  L 418.44 176.19
  Q 418.44 175.71 417.96 175.72
  L 407.99 175.74
  Q 407.48 175.74 407.48 175.23
  L 407.49 154.22
  Q 407.49 153.71 406.97 153.71
  L 385.75 153.72
  Q 385.22 153.72 385.22 154.25
  L 385.25 175.24
  A 0.50 0.49 -90.0 0 1 384.76 175.74
  L 374.76 175.73
  Q 374.25 175.73 374.25 176.24
  L 374.25 252.51
  L 374.18 296.96
  L 352.64 296.98
  A 0.52 0.52 0.0 0 0 352.12 297.50
  L 352.16 329.71
  Q 352.16 330.26 352.71 330.26
  L 373.74 330.23
  Q 374.25 330.23 374.25 330.74
  L 374.24 340.72
  Q 374.24 341.34 374.85 341.33
  L 384.92 341.25
  L 385.11 351.35
  A 0.97 0.96 -0.6 0 0 386.08 352.29
  L 396.19 352.24
  L 396.18 362.83
  A 0.54 0.54 0.0 0 0 396.73 363.37
  L 406.52 363.22
  Q 407.34 363.21 407.33 364.02
  L 407.25 373.85
  A 0.59 0.59 0.0 0 0 407.85 374.45
  L 417.80 374.32
  Q 418.28 374.32 418.28 374.80
  L 418.27 384.24
  A 1.19 1.18 -0.7 0 0 419.49 385.42
  L 428.75 385.21
  A 0.60 0.60 0.0 0 1 429.36 385.81
  L 429.27 395.43
  Q 429.27 396.35 430.18 396.34
  L 439.78 396.23
  Q 440.34 396.23 440.34 396.78
  L 440.24 417.99
  Q 440.24 418.49 440.74 418.48
  L 450.78 418.42
  A 0.61 0.60 -90.0 0 1 451.38 419.03
  L 451.37 428.45
  A 1.07 1.07 0.0 0 0 452.45 429.52
  L 461.73 429.42
  Q 462.30 429.42 462.30 429.98
  L 462.44 462.03
  Q 462.44 462.62 463.03 462.61
  L 472.76 462.45
  Q 473.39 462.44 473.39 463.07
  L 473.37 473.35
  L 473.34 484.70
  L 473.25 495.48
  L 462.47 495.51
  L 451.84 495.54
  Q 451.48 495.54 451.48 495.89
  L 451.43 769.61
  Q 451.43 771.16 449.89 771.12
  L 440.80 770.94
  A 0.51 0.51 0.0 0 0 440.28 771.45
  L 440.26 792.48
  Q 440.26 793.20 440.98 793.21
  L 450.33 793.26
  Q 451.39 793.27 451.39 794.33
  L 451.54 825.43
  A 0.89 0.88 89.4 0 0 452.43 826.31
  L 461.08 826.22
  A 1.37 1.37 0.0 0 1 462.46 827.58
  L 462.48 836.73
  Q 462.48 837.22 462.98 837.24
  L 472.74 837.51
  A 0.72 0.71 -88.8 0 1 473.43 838.24
  L 473.22 847.31
  A 0.87 0.87 0.0 0 0 474.06 848.20
  L 483.13 848.45
  A 0.96 0.96 0.0 0 1 484.07 849.38
  L 484.42 858.84
  Q 484.44 859.39 484.98 859.39
  L 538.99 859.43
  Q 539.66 859.44 539.66 858.77
  L 539.76 849.50
  A 1.00 1.00 0.0 0 1 540.75 848.51
  L 561.19 848.36
  Q 561.72 848.36 561.72 847.82
  L 561.73 838.11
  Q 561.73 837.44 562.39 837.43
  L 571.60 837.31
  Q 572.75 837.29 572.75 836.14
  L 572.78 816.08
  A 0.65 0.64 -0.9 0 1 573.41 815.44
  L 582.92 815.26
  A 0.94 0.93 -0.6 0 0 583.84 814.33
  L 583.83 529.26
  A 1.09 1.09 0.0 0 0 582.55 528.19
  Q 577.81 529.01 572.88 527.91
  L 572.60 507.31
  L 572.75 463.01
  Q 572.75 462.47 572.22 462.47
  L 559.63 462.32
  L 551.16 462.45
  Q 550.61 462.46 550.60 463.01
  L 550.41 473.46
  L 539.31 473.17
  L 539.43 463.98
  A 1.42 1.41 2.3 0 1 540.94 462.59
  Q 545.38 462.89 549.71 461.98
  A 1.02 1.01 85.0 0 0 550.52 461.01
  L 550.73 451.31
  L 550.76 440.85
  Q 550.76 440.40 551.21 440.40
  L 560.68 440.32
  A 0.91 0.91 0.0 0 0 561.58 439.41
  L 561.71 396.59
  Q 561.49 397.28 563.20 396.25
  L 572.18 396.25
  Q 572.73 396.25 572.73 395.70
  Q 572.64 380.28 572.65 364.96
  Q 572.65 364.04 573.10 363.73
  Q 573.60 363.39 574.55 363.36
  L 583.15 363.33
  Q 583.75 363.33 583.75 362.72
  L 583.72 352.09
  L 583.82 340.95
  Q 583.33 335.23 584.33 330.20
  L 594.20 330.19
  Q 594.80 330.19 594.80 329.59
  L 594.85 308.62
  A 0.59 0.59 0.0 0 1 595.44 308.03
  L 605.22 308.08
  Q 605.77 308.09 605.77 307.53
  L 605.74 286.73
  A 0.77 0.76 0.4 0 1 606.52 285.97
  L 616.25 286.19
  Q 616.72 286.20 616.72 285.73
  L 616.79 275.16
  L 616.84 252.72
  L 616.74 241.85
  L 616.74 230.84
  L 616.74 198.28
  Q 616.74 197.74 616.19 197.72
  L 605.57 197.35
  L 605.69 186.81
  L 605.75 176.21
  Q 605.75 175.71 605.25 175.71
  L 595.42 175.69
  A 0.65 0.64 0.0 0 1 594.77 175.05
  L 594.79 165.01
  Q 594.79 164.58 594.36 164.58
  L 583.69 164.56
  L 583.72 154.18
  Q 583.72 153.69 583.23 153.69
  L 573.22 153.73
  Q 572.71 153.73 572.71 153.22
  L 572.68 143.26
  Q 572.68 142.68 572.09 142.68
  L 561.74 142.68
  L 561.71 132.00
  Q 561.71 131.51 561.22 131.51
  L 551.75 131.51
  Q 550.74 131.51 550.74 130.50
  L 550.75 110.01
  Q 550.75 109.51 550.25 109.51
  L 528.63 109.53
  L 507.17 109.56
  A 0.70 0.70 0.0 0 0 506.47 110.26
  L 506.48 131.14
  Q 506.48 131.79 507.14 131.78
  L 516.54 131.68
  Q 516.86 131.68 517.12 131.88
  Q 517.28 132.01 517.49 132.07
  Z
  M 462.4915 253.5417
  A 0.80 0.80 0.0 0 0 461.6818 252.7515
  L 452.0426 252.8693
  A 0.80 0.80 0.0 0 0 451.2524 253.6790
  L 451.3685 263.1783
  A 0.80 0.80 0.0 0 0 452.1782 263.9685
  L 461.8174 263.8507
  A 0.80 0.80 0.0 0 0 462.6076 263.0410
  L 462.4915 253.5417
  Z"
/>
<path fill="#142f37" d="
  M 528.63 109.53
  L 528.61 131.59
  Q 523.79 131.65 518.50 131.52
  Q 517.89 131.50 517.49 132.07
  Q 517.28 132.01 517.12 131.88
  Q 516.86 131.68 516.54 131.68
  L 507.14 131.78
  Q 506.48 131.79 506.48 131.14
  L 506.47 110.26
  A 0.70 0.70 0.0 0 1 507.17 109.56
  L 528.63 109.53
  Z"
/>
<path fill="#8c979c" d="
  M 528.63 109.53
  L 550.25 109.51
  Q 550.75 109.51 550.75 110.01
  L 550.74 130.50
  Q 550.74 131.51 551.75 131.51
  L 561.22 131.51
  Q 561.71 131.51 561.71 132.00
  L 561.74 142.68
  L 550.86 142.72
  A 0.48 0.47 0.0 0 1 550.38 142.25
  L 550.41 132.27
  Q 550.41 131.68 549.82 131.68
  L 528.61 131.59
  L 528.63 109.53
  Z"
/>
<path fill="#ffffff" d="
  M 528.61 131.59
  L 549.82 131.68
  Q 550.41 131.68 550.41 132.27
  L 550.38 142.25
  A 0.48 0.47 0.0 0 0 550.86 142.72
  L 561.74 142.68
  L 572.09 142.68
  Q 572.68 142.68 572.68 143.26
  L 572.71 153.22
  Q 572.71 153.73 573.22 153.73
  L 583.23 153.69
  Q 583.72 153.69 583.72 154.18
  L 583.69 164.56
  L 583.61 175.28
  Q 583.61 175.81 584.14 175.81
  L 593.91 175.75
  A 0.68 0.68 0.0 0 1 594.59 176.42
  L 594.66 186.30
  Q 594.67 186.71 595.09 186.72
  L 605.69 186.81
  L 605.57 197.35
  L 605.58 230.51
  Q 605.58 231.08 606.15 231.07
  L 616.74 230.84
  L 616.74 241.85
  L 606.06 241.79
  Q 605.53 241.79 605.53 242.32
  L 605.56 252.06
  Q 605.35 252.74 604.00 252.75
  Q 593.70 252.77 583.22 252.74
  L 572.82 252.65
  Q 572.27 252.64 572.27 253.20
  L 572.35 263.77
  L 550.94 263.83
  Q 550.44 263.83 550.44 264.33
  L 550.47 273.92
  A 0.94 0.94 0.0 0 1 549.54 274.87
  L 538.00 275.02
  L 518.27 275.20
  Q 517.69 275.20 517.69 275.78
  L 517.72 285.75
  L 506.39 286.07
  L 485.07 286.12
  Q 484.55 286.12 484.55 286.64
  L 484.57 296.67
  L 471.27 297.05
  L 463.09 297.13
  Q 462.55 297.13 462.55 297.67
  L 462.51 307.83
  L 451.26 307.82
  L 440.86 308.01
  Q 440.30 308.02 440.29 308.58
  L 440.13 319.01
  L 418.30 319.16
  L 407.60 318.99
  Q 407.09 318.98 407.09 319.49
  Q 407.11 324.51 406.88 329.59
  Q 406.87 329.85 406.79 329.89
  Q 406.69 329.95 406.45 330.01
  L 396.70 330.07
  L 396.43 319.50
  A 0.51 0.50 88.8 0 0 395.93 319.01
  L 374.96 319.01
  A 0.64 0.63 -0.0 0 1 374.32 318.38
  Q 374.26 308.11 374.36 297.75
  Q 374.36 297.42 374.75 297.02
  L 385.33 297.07
  L 396.20 297.51
  Q 396.65 297.52 396.63 297.08
  L 396.26 287.30
  A 1.37 1.37 0.0 0 1 397.62 285.88
  L 418.34 285.83
  L 428.74 285.98
  Q 429.27 285.98 429.28 285.45
  L 429.33 274.99
  L 440.35 274.95
  L 461.81 275.01
  Q 462.36 275.01 462.37 274.46
  L 462.46 264.27
  Q 462.46 263.85 462.88 263.85
  L 473.28 263.93
  L 483.89 263.91
  Q 484.46 263.91 484.47 263.33
  L 484.68 252.88
  L 504.78 252.85
  L 517.26 252.92
  Q 517.72 252.93 517.72 252.47
  L 517.69 241.84
  L 528.60 241.79
  L 538.96 241.81
  Q 539.54 241.81 539.54 241.23
  L 539.53 231.20
  L 539.53 220.08
  L 550.19 220.02
  Q 550.72 220.02 550.72 219.49
  L 550.75 209.24
  A 0.50 0.50 0.0 0 1 551.26 208.74
  L 561.04 208.84
  A 0.64 0.64 0.0 0 0 561.69 208.21
  L 561.75 198.19
  Q 561.76 197.62 561.19 197.62
  L 551.24 197.53
  A 0.54 0.54 0.0 0 1 550.71 196.99
  L 550.75 176.08
  Q 550.75 175.51 550.18 175.51
  L 540.19 175.52
  Q 539.60 175.52 539.60 174.94
  L 539.67 143.48
  Q 539.67 142.63 538.83 142.63
  L 517.51 142.67
  L 517.49 132.07
  Q 517.89 131.50 518.50 131.52
  Q 523.79 131.65 528.61 131.59
  Z"
/>
<path fill="#8c979c" d="
  M 539.53 220.08
  L 539.53 187.66
  A 0.75 0.74 0.8 0 0 538.79 186.91
  L 529.04 186.83
  Q 528.50 186.83 528.50 186.29
  L 528.49 154.26
  Q 528.49 153.77 528.01 153.77
  L 518.01 153.78
  Q 517.53 153.78 517.52 153.29
  L 517.51 142.67
  L 538.83 142.63
  Q 539.67 142.63 539.67 143.48
  L 539.60 174.94
  Q 539.60 175.52 540.19 175.52
  L 550.18 175.51
  Q 550.75 175.51 550.75 176.08
  L 550.71 196.99
  A 0.54 0.54 0.0 0 0 551.24 197.53
  L 561.19 197.62
  Q 561.76 197.62 561.75 198.19
  L 561.69 208.21
  A 0.64 0.64 0.0 0 1 561.04 208.84
  L 551.26 208.74
  A 0.50 0.50 0.0 0 0 550.75 209.24
  L 550.72 219.49
  Q 550.72 220.02 550.19 220.02
  L 539.53 220.08
  Z"
/>
<path fill="#8c979c" d="
  M 418.49 186.67
  L 407.24 186.73
  L 396.93 186.82
  Q 396.27 186.83 396.27 187.49
  L 396.27 197.60
  Q 396.27 197.97 395.90 197.97
  L 385.89 197.83
  Q 385.29 197.82 385.29 198.43
  L 385.33 252.80
  L 374.25 252.51
  L 374.25 176.24
  Q 374.25 175.73 374.76 175.73
  L 384.76 175.74
  A 0.50 0.49 -90.0 0 0 385.25 175.24
  L 385.22 154.25
  Q 385.22 153.72 385.75 153.72
  L 406.97 153.71
  Q 407.49 153.71 407.49 154.22
  L 407.48 175.23
  Q 407.48 175.74 407.99 175.74
  L 417.96 175.72
  Q 418.44 175.71 418.44 176.19
  L 418.49 186.67
  Z"
/>
<path fill="#8c979c" d="
  M 583.69 164.56
  L 594.36 164.58
  Q 594.79 164.58 594.79 165.01
  L 594.77 175.05
  A 0.65 0.64 -0.0 0 0 595.42 175.69
  L 605.25 175.71
  Q 605.75 175.71 605.75 176.21
  L 605.69 186.81
  L 595.09 186.72
  Q 594.67 186.71 594.66 186.30
  L 594.59 176.42
  A 0.68 0.68 0.0 0 0 593.91 175.75
  L 584.14 175.81
  Q 583.61 175.81 583.61 175.28
  L 583.69 164.56
  Z"
/>
<path fill="#5a6c72" d="
  M 418.49 186.67
  L 418.51 197.27
  Q 418.51 197.76 419.00 197.75
  L 428.82 197.68
  A 0.65 0.64 0.0 0 1 429.47 198.32
  L 429.46 230.46
  Q 429.46 230.95 429.96 230.95
  L 439.79 230.87
  A 0.67 0.67 0.0 0 1 440.46 231.54
  L 440.50 252.23
  Q 440.50 252.85 439.88 252.84
  L 429.23 252.71
  L 429.15 242.35
  Q 429.14 241.75 428.54 241.75
  L 418.30 241.67
  L 418.29 219.63
  L 418.44 209.33
  A 0.69 0.69 0.0 0 0 417.75 208.63
  L 407.22 208.62
  L 407.24 186.73
  L 418.49 186.67
  Z"
/>
<path fill="#ffffff" d="
  M 407.24 186.73
  L 407.22 208.62
  L 406.93 219.67
  Q 406.92 220.09 407.34 220.08
  L 418.29 219.63
  L 418.30 241.67
  L 418.41 251.29
  A 1.47 1.46 -89.6 0 1 416.92 252.77
  L 407.57 252.61
  A 0.57 0.57 0.0 0 0 406.99 253.18
  L 407.13 262.76
  A 1.13 1.12 -0.2 0 1 405.99 263.90
  L 396.43 263.84
  A 0.49 0.48 -0.0 0 0 395.94 264.32
  L 396.03 273.10
  A 1.68 1.67 -89.5 0 1 394.31 274.80
  L 385.29 274.54
  L 385.33 252.80
  L 385.29 198.43
  Q 385.29 197.82 385.89 197.83
  L 395.90 197.97
  Q 396.27 197.97 396.27 197.60
  L 396.27 187.49
  Q 396.27 186.83 396.93 186.82
  L 407.24 186.73
  Z"
/>
<path fill="#8c979c" d="
  M 605.57 197.35
  L 616.19 197.72
  Q 616.74 197.74 616.74 198.28
  L 616.74 230.84
  L 606.15 231.07
  Q 605.58 231.08 605.58 230.51
  L 605.57 197.35
  Z"
/>
<path fill="#a8b1b2" d="
  M 407.22 208.62
  L 417.75 208.63
  A 0.69 0.69 0.0 0 1 418.44 209.33
  L 418.29 219.63
  L 407.34 220.08
  Q 406.92 220.09 406.93 219.67
  L 407.22 208.62
  Z"
/>
<path fill="#8c979c" d="
  M 539.53 231.20
  L 539.54 241.23
  Q 539.54 241.81 538.96 241.81
  L 528.60 241.79
  L 528.56 231.60
  Q 528.56 231.02 529.13 231.03
  L 539.53 231.20
  Z"
/>
<path fill="#a8b1b2" d="
  M 418.30 241.67
  L 428.54 241.75
  Q 429.14 241.75 429.15 242.35
  L 429.23 252.71
  L 429.30 264.00
  L 429.15 275.01
  L 418.97 274.92
  Q 418.39 274.92 418.39 275.50
  L 418.34 285.83
  L 397.62 285.88
  A 1.37 1.37 0.0 0 0 396.26 287.30
  L 396.63 297.08
  Q 396.65 297.52 396.20 297.51
  L 385.33 297.07
  L 385.29 274.54
  L 394.31 274.80
  A 1.68 1.67 -89.5 0 0 396.03 273.10
  L 395.94 264.32
  A 0.49 0.48 -0.0 0 1 396.43 263.84
  L 405.99 263.90
  A 1.13 1.12 -0.2 0 0 407.13 262.76
  L 406.99 253.18
  A 0.57 0.57 0.0 0 1 407.57 252.61
  L 416.92 252.77
  A 1.47 1.46 -89.6 0 0 418.41 251.29
  L 418.30 241.67
  Z"
/>
<path fill="#8c979c" d="
  M 517.69 241.84
  L 517.72 252.47
  Q 517.72 252.93 517.26 252.92
  L 504.78 252.85
  Q 505.66 252.98 506.13 252.71
  Q 506.55 252.47 506.52 251.63
  Q 506.38 247.07 506.55 242.36
  Q 506.57 241.81 507.12 241.81
  L 517.69 241.84
  Z"
/>
<path fill="#475759" d="
  M 616.74 241.85
  L 616.84 252.72
  L 606.67 252.85
  Q 606.22 252.86 605.99 253.24
  L 605.67 253.77
  Q 606.13 252.71 605.56 252.06
  L 605.53 242.32
  Q 605.53 241.79 606.06 241.79
  L 616.74 241.85
  Z"
/>
<path fill="#7a8286" d="
  M 605.56 252.06
  Q 606.13 252.71 605.67 253.77
  L 605.50 263.40
  Q 605.49 263.89 605.01 263.89
  L 595.25 263.92
  Q 594.76 263.92 594.77 264.40
  L 594.80 274.54
  Q 594.87 275.23 594.69 275.51
  L 584.87 275.32
  A 1.14 1.13 -89.5 0 0 583.71 276.47
  L 583.86 284.96
  Q 583.87 285.53 584.39 285.78
  Q 584.67 285.91 584.95 285.91
  Q 584.01 286.34 583.62 286.24
  L 572.24 286.02
  Q 561.37 286.04 551.00 286.13
  Q 550.53 286.13 550.63 287.01
  Q 550.67 286.63 550.53 286.34
  Q 550.31 285.89 549.82 285.91
  L 539.58 286.24
  Q 539.59 281.37 539.31 275.93
  Q 539.28 275.32 538.00 275.02
  L 549.54 274.87
  A 0.94 0.94 0.0 0 0 550.47 273.92
  L 550.44 264.33
  Q 550.44 263.83 550.94 263.83
  L 572.35 263.77
  L 582.31 264.01
  Q 583.49 264.04 583.46 262.87
  L 583.22 252.74
  Q 593.70 252.77 604.00 252.75
  Q 605.35 252.74 605.56 252.06
  Z"
/>
<path fill="#5a6c72" d="
  M 374.25 252.51
  L 385.33 252.80
  L 385.29 274.54
  L 385.33 297.07
  L 374.75 297.02
  L 374.18 296.96
  L 374.25 252.51
  Z"
/>
<path fill="#a8b1b2" d="
  M 583.22 252.74
  L 583.46 262.87
  Q 583.49 264.04 582.31 264.01
  L 572.35 263.77
  L 572.27 253.20
  Q 572.27 252.64 572.82 252.65
  L 583.22 252.74
  Z"
/>
<rect fill="#142f37" x="-5.62" y="-5.55" transform="translate(456.93,258.36) rotate(-0.7)" width="11.24" height="11.10" rx="0.80"/>
<path fill="#8c979c" d="
  M 484.68 252.88
  L 484.47 263.33
  Q 484.46 263.91 483.89 263.91
  L 473.28 263.93
  L 473.42 253.41
  Q 473.43 252.83 474.01 252.83
  L 484.68 252.88
  Z"
/>
<path fill="#142f37" d="
  M 616.84 252.72
  L 616.79 275.16
  Q 606.00 274.94 595.46 274.97
  Q 595.21 274.97 595.07 274.87
  Q 594.91 274.74 594.80 274.54
  L 594.77 264.40
  Q 594.76 263.92 595.25 263.92
  L 605.01 263.89
  Q 605.49 263.89 605.50 263.40
  L 605.67 253.77
  L 605.99 253.24
  Q 606.22 252.86 606.67 252.85
  L 616.84 252.72
  Z"
/>
<path fill="#142f37" d="
  M 440.35 274.95
  L 429.33 274.99
  L 429.15 275.01
  L 429.30 264.00
  L 439.69 263.90
  Q 440.31 263.89 440.31 264.51
  L 440.35 274.95
  Z"
/>
<path fill="#475759" d="
  M 594.80 274.54
  Q 594.91 274.74 595.07 274.87
  Q 595.21 274.97 595.46 274.97
  Q 606.00 274.94 616.79 275.16
  L 616.72 285.73
  Q 616.72 286.20 616.25 286.19
  L 606.52 285.97
  A 0.77 0.76 0.4 0 0 605.74 286.73
  L 605.77 307.53
  Q 605.77 308.09 605.22 308.08
  L 595.44 308.03
  A 0.59 0.59 0.0 0 0 594.85 308.62
  L 594.80 329.59
  Q 594.80 330.19 594.20 330.19
  L 584.33 330.20
  Q 583.79 329.50 583.74 328.00
  Q 583.41 317.97 583.65 308.01
  L 583.62 286.24
  Q 584.01 286.34 584.95 285.91
  L 594.19 285.95
  Q 594.71 285.95 594.71 285.43
  L 594.69 275.51
  Q 594.87 275.23 594.80 274.54
  Z"
/>
<path fill="#000000" d="
  M 429.15 275.01
  L 429.33 274.99
  L 429.28 285.45
  Q 429.27 285.98 428.74 285.98
  L 418.34 285.83
  L 418.39 275.50
  Q 418.39 274.92 418.97 274.92
  L 429.15 275.01
  Z"
/>
<path fill="#000000" d="
  M 538.00 275.02
  Q 539.28 275.32 539.31 275.93
  Q 539.59 281.37 539.58 286.24
  L 539.53 296.28
  Q 539.52 296.79 540.04 296.82
  L 550.59 297.28
  L 550.54 329.65
  Q 550.54 330.20 549.99 330.20
  L 528.93 330.14
  Q 528.50 330.14 528.50 330.57
  L 528.49 340.72
  Q 528.49 341.17 528.04 341.17
  L 507.18 341.15
  Q 506.51 341.15 506.51 341.82
  L 506.50 351.51
  Q 506.50 352.14 505.87 352.14
  L 496.21 352.10
  Q 495.57 352.10 495.57 351.46
  L 495.58 341.76
  A 0.57 0.57 0.0 0 0 495.01 341.19
  L 473.78 341.19
  A 0.43 0.43 0.0 0 1 473.35 340.76
  L 473.42 319.28
  L 482.65 319.10
  A 1.77 1.77 0.0 0 0 484.38 317.37
  L 484.59 308.86
  Q 484.61 307.99 485.48 307.98
  L 502.97 307.89
  Q 503.08 307.91 503.19 307.93
  L 516.53 307.95
  A 0.91 0.90 -88.7 0 0 517.44 307.07
  Q 517.59 303.12 517.68 298.70
  Q 517.73 296.50 520.21 296.91
  L 527.87 296.80
  A 0.60 0.59 -0.5 0 0 528.46 296.21
  L 528.46 286.34
  Q 528.46 285.90 528.02 285.89
  L 517.72 285.75
  L 517.69 275.78
  Q 517.69 275.20 518.27 275.20
  L 538.00 275.02
  Z
  M 528.76 297.00
  A 0.33 0.33 0.0 0 0 528.43 297.34
  L 528.74 307.66
  A 0.33 0.33 0.0 0 0 529.07 307.98
  L 539.23 308.01
  A 0.33 0.33 0.0 0 0 539.56 307.68
  L 539.56 297.34
  A 0.33 0.33 0.0 0 0 539.23 297.01
  L 528.76 297.00
  Z"
/>
<path fill="#a8b1b2" d="
  M 594.69 275.51
  L 594.71 285.43
  Q 594.71 285.95 594.19 285.95
  L 584.95 285.91
  Q 584.67 285.91 584.39 285.78
  Q 583.87 285.53 583.86 284.96
  L 583.71 276.47
  A 1.14 1.13 -89.5 0 1 584.87 275.32
  L 594.69 275.51
  Z"
/>
<path fill="#a8b1b2" d="
  M 517.72 285.75
  L 528.02 285.89
  Q 528.46 285.90 528.46 286.34
  L 528.46 296.21
  A 0.60 0.59 -0.5 0 1 527.87 296.80
  L 520.21 296.91
  L 506.48 296.99
  L 506.39 286.07
  L 517.72 285.75
  Z"
/>
<path fill="#475759" d="
  M 550.63 287.01
  L 550.59 297.28
  L 540.04 296.82
  Q 539.52 296.79 539.53 296.28
  L 539.58 286.24
  L 549.82 285.91
  Q 550.31 285.89 550.53 286.34
  Q 550.67 286.63 550.63 287.01
  Z"
/>
<path fill="#000000" d="
  M 506.39 286.07
  L 506.48 296.99
  Q 506.43 297.62 506.18 296.95
  L 484.57 296.67
  L 484.55 286.64
  Q 484.55 286.12 485.07 286.12
  L 506.39 286.07
  Z"
/>
<path fill="#ffffff" d="
  M 572.24 286.02
  L 572.41 307.96
  L 572.47 340.92
  L 572.38 352.00
  L 562.18 351.98
  Q 561.62 351.98 561.61 352.55
  L 561.57 363.12
  L 561.44 385.25
  L 551.08 385.24
  Q 550.53 385.24 550.53 385.80
  L 550.49 396.30
  Q 550.60 406.79 550.38 417.49
  Q 550.37 417.99 550.13 418.19
  Q 549.82 418.44 549.30 418.31
  L 540.06 418.28
  Q 539.54 418.28 539.54 418.79
  L 539.57 429.19
  L 539.55 451.50
  L 539.56 461.87
  A 0.56 0.56 0.0 0 1 539.00 462.43
  L 529.22 462.37
  L 528.62 462.34
  L 528.62 451.62
  Q 528.62 451.07 528.06 451.07
  L 518.02 451.18
  Q 517.56 451.19 517.57 451.65
  L 517.91 462.24
  L 506.72 462.33
  L 484.42 462.40
  L 484.48 440.95
  A 0.70 0.70 0.0 0 0 483.78 440.25
  L 474.02 440.27
  Q 473.51 440.27 473.51 439.77
  L 473.52 418.75
  Q 473.52 418.23 473.00 418.23
  L 463.00 418.27
  Q 462.48 418.27 462.48 417.75
  L 462.44 396.63
  Q 462.44 396.06 461.88 396.06
  L 452.16 396.06
  Q 451.52 396.05 451.52 395.41
  L 451.51 385.58
  Q 451.51 385.15 451.08 385.15
  L 440.88 385.20
  Q 440.32 385.20 440.32 384.63
  L 440.32 363.75
  Q 440.32 363.18 439.75 363.18
  L 430.04 363.22
  A 0.68 0.67 -90.0 0 1 429.37 362.54
  L 429.39 352.47
  Q 429.39 351.97 428.89 351.98
  L 418.32 352.10
  L 418.32 341.72
  L 418.43 341.48
  Q 418.58 341.14 418.95 341.14
  L 439.77 341.23
  Q 440.28 341.24 440.28 340.73
  L 440.28 330.74
  Q 440.27 330.24 440.77 330.24
  L 451.01 330.25
  Q 451.49 330.25 451.49 329.77
  L 451.48 320.05
  L 452.47 319.21
  L 473.21 319.18
  Q 473.83 319.68 473.42 319.28
  L 473.35 340.76
  A 0.43 0.43 0.0 0 0 473.78 341.19
  L 495.01 341.19
  A 0.57 0.57 0.0 0 1 495.58 341.76
  L 495.57 351.46
  Q 495.57 352.10 496.21 352.10
  L 505.87 352.14
  Q 506.50 352.14 506.50 351.51
  L 506.51 341.82
  Q 506.51 341.15 507.18 341.15
  L 528.04 341.17
  Q 528.49 341.17 528.49 340.72
  L 528.50 330.57
  Q 528.50 330.14 528.93 330.14
  L 549.99 330.20
  Q 550.54 330.20 550.54 329.65
  L 550.59 297.28
  L 550.63 287.01
  Q 550.53 286.13 551.00 286.13
  Q 561.37 286.04 572.24 286.02
  Z"
/>
<path fill="#a8b1b2" d="
  M 572.24 286.02
  L 583.62 286.24
  L 583.65 308.01
  L 572.41 307.96
  L 572.24 286.02
  Z"
/>
<path fill="#a8b1b2" d="
  M 484.57 296.67
  L 506.18 296.95
  L 506.10 307.13
  Q 506.09 307.76 505.46 307.79
  L 503.19 307.93
  Q 503.08 307.91 502.97 307.89
  Q 488.53 307.83 474.12 307.88
  Q 473.68 307.88 473.32 307.29
  L 473.27 297.75
  Q 473.27 297.20 472.73 297.16
  L 471.27 297.05
  L 484.57 296.67
  Z"
/>
<path fill="#5a6c72" d="
  M 506.48 296.99
  L 520.21 296.91
  Q 517.73 296.50 517.68 298.70
  Q 517.59 303.12 517.44 307.07
  A 0.91 0.90 -88.7 0 1 516.53 307.95
  L 503.19 307.93
  L 505.46 307.79
  Q 506.09 307.76 506.10 307.13
  L 506.18 296.95
  Q 506.43 297.62 506.48 296.99
  Z"
/>
<path fill="#8c979c" d="
  M 374.18 296.96
  L 374.75 297.02
  Q 374.36 297.42 374.36 297.75
  Q 374.26 308.11 374.32 318.38
  A 0.64 0.63 -0.0 0 0 374.96 319.01
  L 395.93 319.01
  A 0.51 0.50 88.8 0 1 396.43 319.50
  L 396.70 330.07
  L 385.91 329.95
  Q 385.29 329.95 385.29 330.56
  L 385.25 339.76
  L 384.92 341.25
  L 374.85 341.33
  Q 374.24 341.34 374.24 340.72
  L 374.25 330.74
  Q 374.25 330.23 373.74 330.23
  L 352.71 330.26
  Q 352.16 330.26 352.16 329.71
  L 352.12 297.50
  A 0.52 0.52 0.0 0 1 352.64 296.98
  L 374.18 296.96
  Z"
/>
<path fill="#000000" d="
  M 471.27 297.05
  L 472.73 297.16
  Q 473.27 297.20 473.27 297.75
  L 473.32 307.29
  Q 473.37 308.14 472.63 308.00
  L 462.51 307.83
  L 462.55 297.67
  Q 462.55 297.13 463.09 297.13
  L 471.27 297.05
  Z"
/>
<path fill="#5a6c72" d="
  M 528.76 297.00
  L 539.23 297.01
  A 0.33 0.33 0.0 0 1 539.56 297.34
  L 539.56 307.68
  A 0.33 0.33 0.0 0 1 539.23 308.01
  L 529.07 307.98
  A 0.33 0.33 0.0 0 1 528.74 307.66
  L 528.43 297.34
  A 0.33 0.33 0.0 0 1 528.76 297.00
  Z"
/>
<path fill="#5a6c72" d="
  M 473.32 307.29
  Q 473.68 307.88 474.12 307.88
  Q 488.53 307.83 502.97 307.89
  L 485.48 307.98
  Q 484.61 307.99 484.59 308.86
  L 484.38 317.37
  A 1.77 1.77 0.0 0 1 482.65 319.10
  L 473.42 319.28
  Q 473.83 319.68 473.21 319.18
  L 472.63 308.00
  Q 473.37 308.14 473.32 307.29
  Z"
/>
<path fill="#7a8286" d="
  M 462.51 307.83
  L 472.63 308.00
  L 473.21 319.18
  L 452.47 319.21
  Q 450.91 319.22 450.98 317.25
  Q 451.13 312.58 451.26 307.82
  L 462.51 307.83
  Z"
/>
<path fill="#a8b1b2" d="
  M 451.26 307.82
  Q 451.13 312.58 450.98 317.25
  Q 450.91 319.22 452.47 319.21
  L 451.48 320.05
  Q 450.64 318.83 449.75 318.88
  Q 444.83 319.13 440.13 319.01
  L 440.29 308.58
  Q 440.30 308.02 440.86 308.01
  L 451.26 307.82
  Z"
/>
<path fill="#142f37" d="
  M 583.65 308.01
  Q 583.41 317.97 583.74 328.00
  Q 583.79 329.50 584.33 330.20
  Q 583.33 335.23 583.82 340.95
  L 572.47 340.92
  L 572.41 307.96
  L 583.65 308.01
  Z"
/>
<path fill="#a8b1b2" d="
  M 418.30 319.16
  L 418.18 328.12
  A 1.90 1.90 0.0 0 1 416.31 330.00
  L 407.29 330.14
  Q 406.73 330.50 406.45 330.01
  Q 406.69 329.95 406.79 329.89
  Q 406.87 329.85 406.88 329.59
  Q 407.11 324.51 407.09 319.49
  Q 407.09 318.98 407.60 318.99
  L 418.30 319.16
  Z"
/>
<path fill="#7a8286" d="
  M 440.13 319.01
  Q 444.83 319.13 449.75 318.88
  Q 450.64 318.83 451.48 320.05
  L 451.49 329.77
  Q 451.49 330.25 451.01 330.25
  L 440.77 330.24
  Q 440.27 330.24 440.28 330.74
  L 440.28 340.73
  Q 440.28 341.24 439.77 341.23
  L 418.95 341.14
  Q 418.58 341.14 418.43 341.48
  L 418.32 341.72
  C 417.84 341.38 417.41 341.07 416.77 341.08
  Q 411.93 341.15 407.34 340.70
  L 407.29 330.14
  L 416.31 330.00
  A 1.90 1.90 0.0 0 0 418.18 328.12
  L 418.30 319.16
  L 440.13 319.01
  Z"
/>
<path fill="#142f37" d="
  M 396.70 330.07
  L 406.45 330.01
  Q 406.73 330.50 407.29 330.14
  L 407.34 340.70
  Q 407.23 340.89 406.81 341.08
  Q 406.53 341.21 406.17 341.21
  Q 396.03 341.21 385.87 341.09
  Q 385.35 341.09 385.18 340.59
  Q 385.05 340.23 385.25 339.76
  L 385.29 330.56
  Q 385.29 329.95 385.91 329.95
  L 396.70 330.07
  Z"
/>
<path fill="#475759" d="
  M 385.25 339.76
  Q 385.05 340.23 385.18 340.59
  Q 385.35 341.09 385.87 341.09
  Q 396.03 341.21 406.17 341.21
  Q 406.53 341.21 406.81 341.08
  Q 407.23 340.89 407.34 340.70
  Q 411.93 341.15 416.77 341.08
  C 417.41 341.07 417.84 341.38 418.32 341.72
  L 418.32 352.10
  L 396.19 352.24
  L 386.08 352.29
  A 0.97 0.96 -0.6 0 1 385.11 351.35
  L 384.92 341.25
  L 385.25 339.76
  Z"
/>
<path fill="#475759" d="
  M 583.82 340.95
  L 583.72 352.09
  L 572.52 352.11
  Q 572.45 352.05 572.38 352.00
  L 572.47 340.92
  L 583.82 340.95
  Z"
/>
<path fill="#7a8286" d="
  M 418.32 352.10
  L 428.89 351.98
  Q 429.39 351.97 429.39 352.47
  L 429.37 362.54
  A 0.68 0.67 -90.0 0 0 430.04 363.22
  L 439.75 363.18
  Q 440.32 363.18 440.32 363.75
  L 440.32 384.63
  Q 440.32 385.20 440.88 385.20
  L 451.08 385.15
  Q 451.51 385.15 451.51 385.58
  L 451.52 395.41
  Q 451.52 396.05 452.16 396.06
  L 461.88 396.06
  Q 462.44 396.06 462.44 396.63
  L 462.48 417.75
  Q 462.48 418.27 463.00 418.27
  L 473.00 418.23
  Q 473.52 418.23 473.52 418.75
  L 473.51 439.77
  Q 473.51 440.27 474.02 440.27
  L 483.78 440.25
  A 0.70 0.70 0.0 0 1 484.48 440.95
  L 484.42 462.40
  L 484.44 472.51
  A 0.77 0.76 0.0 0 0 485.21 473.27
  L 505.73 473.25
  A 0.64 0.63 0.9 0 0 506.37 472.64
  L 506.72 462.33
  L 517.91 462.24
  L 528.62 462.34
  L 529.22 462.37
  Q 529.03 462.37 528.86 462.45
  Q 528.39 462.65 528.39 463.16
  L 528.32 473.04
  L 518.18 473.19
  A 0.84 0.84 0.0 0 0 517.36 474.05
  L 517.62 484.52
  L 506.15 484.52
  L 495.92 484.56
  L 485.82 484.45
  Q 484.37 484.29 484.36 483.46
  L 484.39 474.09
  A 0.82 0.81 -0.0 0 0 483.56 473.27
  L 473.37 473.35
  L 473.39 463.07
  Q 473.39 462.44 472.76 462.45
  L 463.03 462.61
  Q 462.44 462.62 462.44 462.03
  L 462.30 429.98
  Q 462.30 429.42 461.73 429.42
  L 452.45 429.52
  A 1.07 1.07 0.0 0 1 451.37 428.45
  L 451.38 419.03
  A 0.61 0.60 -90.0 0 0 450.78 418.42
  L 440.74 418.48
  Q 440.24 418.49 440.24 417.99
  L 440.34 396.78
  Q 440.34 396.23 439.78 396.23
  L 430.18 396.34
  Q 429.27 396.35 429.27 395.43
  L 429.36 385.81
  A 0.60 0.60 0.0 0 0 428.75 385.21
  L 419.49 385.42
  A 1.19 1.18 -0.7 0 1 418.27 384.24
  L 418.28 374.80
  Q 418.28 374.32 417.80 374.32
  L 407.85 374.45
  A 0.59 0.59 0.0 0 1 407.25 373.85
  L 407.33 364.02
  Q 407.34 363.21 406.52 363.22
  L 396.73 363.37
  A 0.54 0.54 0.0 0 1 396.18 362.83
  L 396.19 352.24
  L 418.32 352.10
  Z"
/>
<path fill="#142f37" d="
  M 572.38 352.00
  Q 572.45 352.05 572.52 352.11
  L 572.63 362.85
  L 561.57 363.12
  L 561.61 352.55
  Q 561.62 351.98 562.18 351.98
  L 572.38 352.00
  Z"
/>
<path fill="#a8b1b2" d="
  M 572.52 352.11
  L 583.72 352.09
  L 583.75 362.72
  Q 583.75 363.33 583.15 363.33
  L 574.55 363.36
  L 572.63 362.85
  L 572.52 352.11
  Z"
/>
<path fill="#475759" d="
  M 572.63 362.85
  L 574.55 363.36
  Q 573.60 363.39 573.10 363.73
  Q 572.65 364.04 572.65 364.96
  Q 572.64 380.28 572.73 395.70
  Q 572.73 396.25 572.18 396.25
  L 563.20 396.25
  Q 561.77 396.52 561.81 394.50
  Q 561.88 391.74 561.44 385.25
  L 561.57 363.12
  L 572.63 362.85
  Z"
/>
<path fill="#142f37" d="
  M 561.44 385.25
  Q 561.88 391.74 561.81 394.50
  Q 561.77 396.52 563.20 396.25
  Q 561.49 397.28 561.71 396.59
  L 550.49 396.30
  L 550.53 385.80
  Q 550.53 385.24 551.08 385.24
  L 561.44 385.25
  Z"
/>
<path fill="#475759" d="
  M 550.49 396.30
  L 561.71 396.59
  L 561.58 439.41
  A 0.91 0.91 0.0 0 1 560.68 440.32
  L 551.21 440.40
  Q 550.76 440.40 550.76 440.85
  L 550.73 451.31
  L 541.05 451.43
  Q 540.94 451.43 540.86 451.36
  L 540.60 451.10
  A 0.42 0.42 0.0 0 0 540.01 451.09
  L 539.55 451.50
  L 539.57 429.19
  L 539.91 429.89
  Q 540.16 430.39 540.53 429.97
  L 540.94 429.51
  A 1.09 1.09 0.0 0 1 541.82 429.14
  L 550.04 429.53
  A 0.78 0.78 0.0 0 0 550.86 428.71
  Q 550.57 423.99 550.45 419.51
  Q 550.42 418.37 549.30 418.31
  Q 549.82 418.44 550.13 418.19
  Q 550.37 417.99 550.38 417.49
  Q 550.60 406.79 550.49 396.30
  Z"
/>
<path fill="#142f37" d="
  M 549.30 418.31
  Q 550.42 418.37 550.45 419.51
  Q 550.57 423.99 550.86 428.71
  A 0.78 0.78 0.0 0 1 550.04 429.53
  L 541.82 429.14
  A 1.09 1.09 0.0 0 0 540.94 429.51
  L 540.53 429.97
  Q 540.16 430.39 539.91 429.89
  L 539.57 429.19
  L 539.54 418.79
  Q 539.54 418.28 540.06 418.28
  L 549.30 418.31
  Z"
/>
<path fill="#a8b1b2" d="
  M 528.62 462.34
  L 517.91 462.24
  L 517.57 451.65
  Q 517.56 451.19 518.02 451.18
  L 528.06 451.07
  Q 528.62 451.07 528.62 451.62
  L 528.62 462.34
  Z"
/>
<path fill="#142f37" d="
  M 550.73 451.31
  L 550.52 461.01
  A 1.02 1.01 85.0 0 1 549.71 461.98
  Q 545.38 462.89 540.94 462.59
  A 1.42 1.41 2.3 0 0 539.43 463.98
  L 539.31 473.17
  Q 533.41 473.92 528.32 473.04
  L 528.39 463.16
  Q 528.39 462.65 528.86 462.45
  Q 529.03 462.37 529.22 462.37
  L 539.00 462.43
  A 0.56 0.56 0.0 0 0 539.56 461.87
  L 539.55 451.50
  L 540.01 451.09
  A 0.42 0.42 0.0 0 1 540.60 451.10
  L 540.86 451.36
  Q 540.94 451.43 541.05 451.43
  L 550.73 451.31
  Z"
/>
<path fill="#a8b1b2" d="
  M 506.72 462.33
  L 506.37 472.64
  A 0.64 0.63 0.9 0 1 505.73 473.25
  L 485.21 473.27
  A 0.77 0.76 0.0 0 1 484.44 472.51
  L 484.42 462.40
  L 506.72 462.33
  Z"
/>
<path fill="#ff0000" d="
  M 559.63 462.32
  Q 561.31 463.93 561.38 469.49
  Q 561.59 487.56 562.13 505.39
  Q 562.16 506.38 563.15 506.38
  L 571.51 506.32
  Q 571.99 506.31 572.23 506.72
  L 572.60 507.31
  L 572.88 527.91
  L 562.96 528.50
  Q 561.76 528.57 561.76 529.77
  Q 561.85 585.53 561.73 641.49
  C 561.69 658.49 561.98 676.65 561.75 694.26
  C 561.36 722.85 561.78 751.47 561.74 780.06
  C 561.72 787.67 561.07 795.25 560.62 802.87
  A 0.67 0.67 0.0 0 1 560.02 803.49
  C 557.39 803.77 551.39 802.54 550.99 806.23
  Q 550.01 815.52 549.86 824.96
  A 0.94 0.94 0.0 0 1 548.91 825.89
  L 540.30 825.79
  Q 539.81 825.78 539.79 825.29
  L 539.48 816.04
  A 0.84 0.83 87.6 0 0 538.61 815.23
  L 530.63 815.55
  Q 528.40 815.64 528.41 817.87
  L 528.49 836.60
  Q 528.49 837.19 527.90 837.19
  L 485.73 837.24
  Q 484.47 837.25 484.46 835.99
  L 484.33 826.43
  Q 484.32 825.78 483.68 825.81
  L 475.22 826.12
  Q 473.52 826.18 473.52 824.48
  L 473.50 815.93
  Q 473.50 815.12 472.68 815.12
  L 464.34 815.06
  Q 462.38 815.04 462.38 813.09
  L 462.67 673.22
  A 1.14 1.13 -0.8 0 1 463.78 672.09
  L 472.56 671.89
  A 0.95 0.95 0.0 0 0 473.49 670.94
  L 473.62 628.15
  A 0.93 0.92 -1.2 0 0 472.65 627.23
  L 463.52 627.69
  A 0.90 0.89 88.5 0 1 462.58 626.79
  L 462.67 561.65
  L 472.69 561.49
  Q 473.24 561.48 473.24 560.93
  L 473.24 495.88
  L 484.35 495.49
  L 494.65 495.49
  A 1.09 1.09 0.0 0 0 495.73 494.25
  Q 495.08 489.50 495.92 484.56
  L 506.15 484.52
  L 506.49 494.72
  Q 506.51 495.30 507.08 495.31
  L 517.68 495.59
  L 527.34 495.34
  A 1.27 1.27 0.0 0 0 528.58 494.03
  L 528.37 486.04
  A 1.40 1.40 0.0 0 1 529.68 484.61
  Q 539.05 483.97 548.38 484.91
  A 1.79 1.78 3.1 0 0 550.35 483.15
  L 550.41 473.46
  L 550.60 463.01
  Q 550.61 462.46 551.16 462.45
  L 559.63 462.32
  Z
  M 517.48 805.14
  A 1.01 1.01 0.0 0 1 518.51 804.12
  L 527.48 804.31
  A 1.01 1.01 0.0 0 0 528.51 803.32
  L 528.65 794.25
  A 1.01 1.01 0.0 0 0 527.64 793.22
  L 518.57 793.26
  A 1.01 1.01 0.0 0 1 517.55 792.25
  L 517.51 783.07
  A 1.01 1.01 0.0 0 0 516.49 782.07
  L 507.54 782.13
  A 1.01 1.01 0.0 0 0 506.54 783.15
  L 506.70 814.14
  A 1.01 1.01 0.0 0 0 507.72 815.15
  L 516.56 815.10
  A 1.01 1.01 0.0 0 0 517.57 814.08
  L 517.48 805.14
  Z"
/>
<path fill="#9c0100" d="
  M 559.63 462.32
  L 572.22 462.47
  Q 572.75 462.47 572.75 463.01
  L 572.60 507.31
  L 572.23 506.72
  Q 571.99 506.31 571.51 506.32
  L 563.15 506.38
  Q 562.16 506.38 562.13 505.39
  Q 561.59 487.56 561.38 469.49
  Q 561.31 463.93 559.63 462.32
  Z"
/>
<path fill="#475759" d="
  M 528.32 473.04
  Q 533.41 473.92 539.31 473.17
  L 550.41 473.46
  L 550.35 483.15
  A 1.79 1.78 3.1 0 1 548.38 484.91
  Q 539.05 483.97 529.68 484.61
  A 1.40 1.40 0.0 0 0 528.37 486.04
  L 528.58 494.03
  A 1.27 1.27 0.0 0 1 527.34 495.34
  L 517.68 495.59
  L 517.62 484.52
  L 517.36 474.05
  A 0.84 0.84 0.0 0 1 518.18 473.19
  L 528.32 473.04
  Z"
/>
<path fill="#142f37" d="
  M 473.37 473.35
  L 483.56 473.27
  A 0.82 0.81 -0.0 0 1 484.39 474.09
  L 484.36 483.46
  L 484.30 483.87
  Q 484.22 484.41 483.67 484.43
  L 473.34 484.70
  L 473.37 473.35
  Z"
/>
<path fill="#475759" d="
  M 484.36 483.46
  Q 484.37 484.29 485.82 484.45
  Q 484.51 484.50 484.55 485.25
  Q 484.72 488.12 484.35 495.49
  L 473.24 495.88
  Q 473.42 495.71 473.25 495.48
  L 473.34 484.70
  L 483.67 484.43
  Q 484.22 484.41 484.30 483.87
  L 484.36 483.46
  Z"
/>
<path fill="#9c0100" d="
  M 485.82 484.45
  L 495.92 484.56
  Q 495.08 489.50 495.73 494.25
  A 1.09 1.09 0.0 0 1 494.65 495.49
  L 484.35 495.49
  Q 484.72 488.12 484.55 485.25
  Q 484.51 484.50 485.82 484.45
  Z"
/>
<path fill="#000000" d="
  M 506.15 484.52
  L 517.62 484.52
  L 517.68 495.59
  L 507.08 495.31
  Q 506.51 495.30 506.49 494.72
  L 506.15 484.52
  Z"
/>
<path fill="#9c0100" d="
  M 462.47 495.51
  L 462.67 561.65
  L 462.58 626.79
  A 0.90 0.89 88.5 0 0 463.52 627.69
  L 472.65 627.23
  A 0.93 0.92 -1.2 0 1 473.62 628.15
  L 473.49 670.94
  A 0.95 0.95 0.0 0 1 472.56 671.89
  L 463.78 672.09
  A 1.14 1.13 -0.8 0 0 462.67 673.22
  L 462.38 813.09
  Q 462.38 815.04 464.34 815.06
  L 472.68 815.12
  Q 473.50 815.12 473.50 815.93
  L 473.52 824.48
  Q 473.52 826.18 475.22 826.12
  L 483.68 825.81
  Q 484.32 825.78 484.33 826.43
  L 484.46 835.99
  Q 484.47 837.25 485.73 837.24
  L 527.90 837.19
  Q 528.49 837.19 528.49 836.60
  L 528.41 817.87
  Q 528.40 815.64 530.63 815.55
  L 538.61 815.23
  A 0.84 0.83 87.6 0 1 539.48 816.04
  L 539.79 825.29
  Q 539.81 825.78 540.30 825.79
  L 548.91 825.89
  A 0.94 0.94 0.0 0 0 549.86 824.96
  Q 550.01 815.52 550.99 806.23
  C 551.39 802.54 557.39 803.77 560.02 803.49
  A 0.67 0.67 0.0 0 0 560.62 802.87
  C 561.07 795.25 561.72 787.67 561.74 780.06
  C 561.78 751.47 561.36 722.85 561.75 694.26
  C 561.98 676.65 561.69 658.49 561.73 641.49
  Q 561.85 585.53 561.76 529.77
  Q 561.76 528.57 562.96 528.50
  L 572.88 527.91
  Q 577.81 529.01 582.55 528.19
  A 1.09 1.09 0.0 0 1 583.83 529.26
  L 583.84 814.33
  A 0.94 0.93 -0.6 0 1 582.92 815.26
  L 573.41 815.44
  A 0.65 0.64 -0.9 0 0 572.78 816.08
  L 572.75 836.14
  Q 572.75 837.29 571.60 837.31
  L 562.39 837.43
  Q 561.73 837.44 561.73 838.11
  L 561.72 847.82
  Q 561.72 848.36 561.19 848.36
  L 540.75 848.51
  A 1.00 1.00 0.0 0 0 539.76 849.50
  L 539.66 858.77
  Q 539.66 859.44 538.99 859.43
  L 484.98 859.39
  Q 484.44 859.39 484.42 858.84
  L 484.07 849.38
  A 0.96 0.96 0.0 0 0 483.13 848.45
  L 474.06 848.20
  A 0.87 0.87 0.0 0 1 473.22 847.31
  L 473.43 838.24
  A 0.72 0.71 -88.8 0 0 472.74 837.51
  L 462.98 837.24
  Q 462.48 837.22 462.48 836.73
  L 462.46 827.58
  A 1.37 1.37 0.0 0 0 461.08 826.22
  L 452.43 826.31
  A 0.89 0.88 89.4 0 1 451.54 825.43
  L 451.39 794.33
  Q 451.39 793.27 450.33 793.26
  L 440.98 793.21
  Q 440.26 793.20 440.26 792.48
  L 440.28 771.45
  A 0.51 0.51 0.0 0 1 440.80 770.94
  L 449.89 771.12
  Q 451.43 771.16 451.43 769.61
  L 451.48 495.89
  Q 451.48 495.54 451.84 495.54
  L 462.47 495.51
  Z"
/>
<path fill="#fde4da" d="
  M 462.47 495.51
  L 473.25 495.48
  Q 473.42 495.71 473.24 495.88
  L 473.24 560.93
  Q 473.24 561.48 472.69 561.49
  L 462.67 561.65
  L 462.47 495.51
  Z"
/>
<path fill="#000000" d="
  M 517.48 805.14
  L 517.57 814.08
  A 1.01 1.01 0.0 0 1 516.56 815.10
  L 507.72 815.15
  A 1.01 1.01 0.0 0 1 506.70 814.14
  L 506.54 783.15
  A 1.01 1.01 0.0 0 1 507.54 782.13
  L 516.49 782.07
  A 1.01 1.01 0.0 0 1 517.51 783.07
  L 517.55 792.25
  A 1.01 1.01 0.0 0 0 518.57 793.26
  L 527.64 793.22
  A 1.01 1.01 0.0 0 1 528.65 794.25
  L 528.51 803.32
  A 1.01 1.01 0.0 0 1 527.48 804.31
  L 518.51 804.12
  A 1.01 1.01 0.0 0 0 517.48 805.14
  Z"
/>
</svg>
